<?xml version="1.0" encoding="us-ascii" standalone="no"?><svg xmlns="http://www.w3.org/2000/svg" xmlns:xlink="http://www.w3.org/1999/xlink" contentStyleType="text/css" height="1441px" preserveAspectRatio="none" style="width:3622px;height:1441px;background:#FFFFFF;" version="1.1" viewBox="0 0 3622 1441" width="3622px" zoomAndPan="magnify"><defs><filter height="300%" id="fszz7oqi9thd3" width="300%" x="-1" y="-1"><feGaussianBlur result="blurOut" stdDeviation="2.0"/><feColorMatrix in="blurOut" result="blurOut2" type="matrix" values="0 0 0 0 0 0 0 0 0 0 0 0 0 0 0 0 0 0 .4 0"/><feOffset dx="4.0" dy="4.0" in="blurOut2" result="blurOut3"/><feBlend in="SourceGraphic" in2="blurOut3" mode="normal"/></filter></defs><g><!--cluster it--><g id="cluster_it"><polygon fill="none" filter="url(#fszz7oqi9thd3)" points="16,263,35,263,42,285.2969,3311,285.2969,3311,1432,16,1432,16,263" style="stroke:#000000;stroke-width:1.5;"/><line style="stroke:#000000;stroke-width:1.5;" x1="16" x2="42" y1="285.2969" y2="285.2969"/><text fill="#000000" font-family="sans-serif" font-size="14" font-weight="bold" lengthAdjust="spacing" textLength="13" x="20" y="277.9951">it</text></g><!--cluster polimi--><g id="cluster_polimi"><polygon fill="none" filter="url(#fszz7oqi9thd3)" points="40,306,96,306,103,328.2969,3287,328.2969,3287,1408,40,1408,40,306" style="stroke:#000000;stroke-width:1.5;"/><line style="stroke:#000000;stroke-width:1.5;" x1="40" x2="103" y1="328.2969" y2="328.2969"/><text fill="#000000" font-family="sans-serif" font-size="14" font-weight="bold" lengthAdjust="spacing" textLength="50" x="44" y="320.9951">polimi</text></g><!--cluster ingsw--><g id="cluster_ingsw"><polygon fill="none" filter="url(#fszz7oqi9thd3)" points="64,349,117,349,124,371.2969,3263,371.2969,3263,1384,64,1384,64,349" style="stroke:#000000;stroke-width:1.5;"/><line style="stroke:#000000;stroke-width:1.5;" x1="64" x2="124" y1="371.2969" y2="371.2969"/><text fill="#000000" font-family="sans-serif" font-size="14" font-weight="bold" lengthAdjust="spacing" textLength="47" x="68" y="363.9951">ingsw</text></g><!--cluster Client--><g id="cluster_Client"><polygon fill="none" filter="url(#fszz7oqi9thd3)" points="639,988,692,988,699,1010.2969,3239,1010.2969,3239,1360,639,1360,639,988" style="stroke:#000000;stroke-width:1.5;"/><line style="stroke:#000000;stroke-width:1.5;" x1="639" x2="699" y1="1010.2969" y2="1010.2969"/><text fill="#000000" font-family="sans-serif" font-size="14" font-weight="bold" lengthAdjust="spacing" textLength="47" x="643" y="1002.9951">Client</text></g><!--cluster ClientModel--><g id="cluster_ClientModel"><polygon fill="none" filter="url(#fszz7oqi9thd3)" points="1274,1031,1375,1031,1382,1053.2969,3215,1053.2969,3215,1336,1274,1336,1274,1031" style="stroke:#000000;stroke-width:1.5;"/><line style="stroke:#000000;stroke-width:1.5;" x1="1274" x2="1382" y1="1053.2969" y2="1053.2969"/><text fill="#000000" font-family="sans-serif" font-size="14" font-weight="bold" lengthAdjust="spacing" textLength="95" x="1278" y="1045.9951">ClientModel</text></g><!--cluster View--><g id="cluster_View"><polygon fill="none" filter="url(#fszz7oqi9thd3)" points="1094,1080,1138,1080,1145,1102.2969,1250,1102.2969,1250,1179,1094,1179,1094,1080" style="stroke:#000000;stroke-width:1.5;"/><line style="stroke:#000000;stroke-width:1.5;" x1="1094" x2="1145" y1="1102.2969" y2="1102.2969"/><text fill="#000000" font-family="sans-serif" font-size="14" font-weight="bold" lengthAdjust="spacing" textLength="38" x="1098" y="1094.9951">View</text></g><!--cluster Common--><g id="cluster_Common"><polygon fill="none" filter="url(#fszz7oqi9thd3)" points="283,392,359,392,366,414.2969,3094,414.2969,3094,964,283,964,283,392" style="stroke:#000000;stroke-width:1.5;"/><line style="stroke:#000000;stroke-width:1.5;" x1="283" x2="366" y1="414.2969" y2="414.2969"/><text fill="#000000" font-family="sans-serif" font-size="14" font-weight="bold" lengthAdjust="spacing" textLength="70" x="287" y="406.9951">Common</text></g><!--cluster Server--><g id="cluster_Server"><polygon fill="none" filter="url(#fszz7oqi9thd3)" points="88,1037,145,1037,152,1059.2969,615,1059.2969,615,1336,88,1336,88,1037" style="stroke:#000000;stroke-width:1.5;"/><line style="stroke:#000000;stroke-width:1.5;" x1="88" x2="152" y1="1059.2969" y2="1059.2969"/><text fill="#000000" font-family="sans-serif" font-size="14" font-weight="bold" lengthAdjust="spacing" textLength="51" x="92" y="1051.9951">Server</text></g><!--cluster Controller--><g id="cluster_Controller"><polygon fill="none" filter="url(#fszz7oqi9thd3)" points="393,1080,480,1080,487,1102.2969,591,1102.2969,591,1179,393,1179,393,1080" style="stroke:#000000;stroke-width:1.5;"/><line style="stroke:#000000;stroke-width:1.5;" x1="393" x2="487" y1="1102.2969" y2="1102.2969"/><text fill="#000000" font-family="sans-serif" font-size="14" font-weight="bold" lengthAdjust="spacing" textLength="81" x="397" y="1094.9951">Controller</text></g><!--cluster java--><g id="cluster_java"><polygon fill="none" filter="url(#fszz7oqi9thd3)" points="1975,6,2015,6,2022,28.2969,2396,28.2969,2396,239,1975,239,1975,6" style="stroke:#000000;stroke-width:1.5;"/><line style="stroke:#000000;stroke-width:1.5;" x1="1975" x2="2022" y1="28.2969" y2="28.2969"/><text fill="#000000" font-family="sans-serif" font-size="14" font-weight="bold" lengthAdjust="spacing" textLength="34" x="1979" y="20.9951">java</text></g><!--cluster rmi--><g id="cluster_rmi"><polygon fill="none" filter="url(#fszz7oqi9thd3)" points="1999,49,2032,49,2039,71.2969,2372,71.2969,2372,215,1999,215,1999,49" style="stroke:#000000;stroke-width:1.5;"/><line style="stroke:#000000;stroke-width:1.5;" x1="1999" x2="2039" y1="71.2969" y2="71.2969"/><text fill="#000000" font-family="sans-serif" font-size="14" font-weight="bold" lengthAdjust="spacing" textLength="27" x="2003" y="63.9951">rmi</text></g><!--cluster server--><g id="cluster_server"><polygon fill="none" filter="url(#fszz7oqi9thd3)" points="2124,92,2180,92,2187,114.2969,2348,114.2969,2348,191,2124,191,2124,92" style="stroke:#000000;stroke-width:1.5;"/><line style="stroke:#000000;stroke-width:1.5;" x1="2124" x2="2187" y1="114.2969" y2="114.2969"/><text fill="#000000" font-family="sans-serif" font-size="14" font-weight="bold" lengthAdjust="spacing" textLength="50" x="2128" y="106.9951">server</text></g><!--cluster javafx--><g id="cluster_javafx"><polygon fill="none" filter="url(#fszz7oqi9thd3)" points="3335,585.5,3391,585.5,3398,607.7969,3531,607.7969,3531,751.5,3335,751.5,3335,585.5" style="stroke:#000000;stroke-width:1.5;"/><line style="stroke:#000000;stroke-width:1.5;" x1="3335" x2="3398" y1="607.7969" y2="607.7969"/><text fill="#000000" font-family="sans-serif" font-size="14" font-weight="bold" lengthAdjust="spacing" textLength="50" x="3339" y="600.4951">javafx</text></g><!--cluster application--><g id="cluster_application"><polygon fill="none" filter="url(#fszz7oqi9thd3)" points="3359,628.5,3457,628.5,3464,650.7969,3507,650.7969,3507,727.5,3359,727.5,3359,628.5" style="stroke:#000000;stroke-width:1.5;"/><line style="stroke:#000000;stroke-width:1.5;" x1="3359" x2="3464" y1="650.7969" y2="650.7969"/><text fill="#000000" font-family="sans-serif" font-size="14" font-weight="bold" lengthAdjust="spacing" textLength="92" x="3363" y="643.4951">application</text></g><!--class SocketClient--><g id="elem_SocketClient"><rect codeLine="28" fill="#FEFECE" filter="url(#fszz7oqi9thd3)" height="48" id="SocketClient" style="stroke:#A80036;stroke-width:1.0;" width="126" x="949" y="1115"/><ellipse cx="964" cy="1131" fill="#ADD1B2" rx="11" ry="11" style="stroke:#A80036;stroke-width:1.0;"/><path d="M966.3438,1126.6719 C965.4063,1126.2344 964.8125,1126.0938 963.9375,1126.0938 C961.3125,1126.0938 959.3125,1128.1719 959.3125,1130.8906 L959.3125,1132.0156 C959.3125,1134.5938 961.4219,1136.4844 964.3125,1136.4844 C965.5313,1136.4844 966.6875,1136.1875 967.4375,1135.6406 C968.0156,1135.2344 968.3438,1134.7813 968.3438,1134.3906 C968.3438,1133.9375 967.9531,1133.5469 967.4844,1133.5469 C967.2656,1133.5469 967.0625,1133.625 966.875,1133.8125 C966.4219,1134.2969 966.4219,1134.2969 966.2344,1134.3906 C965.8125,1134.6563 965.125,1134.7813 964.3594,1134.7813 C962.3125,1134.7813 961.0156,1133.6875 961.0156,1131.9844 L961.0156,1130.8906 C961.0156,1129.1094 962.2656,1127.7969 964,1127.7969 C964.5781,1127.7969 965.1875,1127.9531 965.6563,1128.2031 C966.1406,1128.4844 966.3125,1128.7031 966.4063,1129.1094 C966.4688,1129.5156 966.5,1129.6406 966.6406,1129.7656 C966.7813,1129.9063 967.0156,1130.0156 967.2344,1130.0156 C967.5,1130.0156 967.7656,1129.875 967.9375,1129.6563 C968.0469,1129.5 968.0781,1129.3125 968.0781,1128.8906 L968.0781,1127.4688 C968.0781,1127.0313 968.0625,1126.9063 967.9688,1126.75 C967.8125,1126.4844 967.5313,1126.3438 967.2344,1126.3438 C966.9375,1126.3438 966.7344,1126.4375 966.5156,1126.75 L966.3438,1126.6719 Z " fill="#000000"/><text fill="#000000" font-family="sans-serif" font-size="14" lengthAdjust="spacing" textLength="94" x="978" y="1135.8467">SocketClient</text><line style="stroke:#A80036;stroke-width:1.0;" x1="950" x2="1074" y1="1147" y2="1147"/><line style="stroke:#A80036;stroke-width:1.0;" x1="950" x2="1074" y1="1155" y2="1155"/></g><!--class GUI--><g id="elem_GUI"><rect codeLine="38" fill="#FEFECE" filter="url(#fszz7oqi9thd3)" height="48" id="GUI" style="stroke:#A80036;stroke-width:1.0;" width="56" x="858" y="1115"/><ellipse cx="873" cy="1131" fill="#ADD1B2" rx="11" ry="11" style="stroke:#A80036;stroke-width:1.0;"/><path d="M875.3438,1126.6719 C874.4063,1126.2344 873.8125,1126.0938 872.9375,1126.0938 C870.3125,1126.0938 868.3125,1128.1719 868.3125,1130.8906 L868.3125,1132.0156 C868.3125,1134.5938 870.4219,1136.4844 873.3125,1136.4844 C874.5313,1136.4844 875.6875,1136.1875 876.4375,1135.6406 C877.0156,1135.2344 877.3438,1134.7813 877.3438,1134.3906 C877.3438,1133.9375 876.9531,1133.5469 876.4844,1133.5469 C876.2656,1133.5469 876.0625,1133.625 875.875,1133.8125 C875.4219,1134.2969 875.4219,1134.2969 875.2344,1134.3906 C874.8125,1134.6563 874.125,1134.7813 873.3594,1134.7813 C871.3125,1134.7813 870.0156,1133.6875 870.0156,1131.9844 L870.0156,1130.8906 C870.0156,1129.1094 871.2656,1127.7969 873,1127.7969 C873.5781,1127.7969 874.1875,1127.9531 874.6563,1128.2031 C875.1406,1128.4844 875.3125,1128.7031 875.4063,1129.1094 C875.4688,1129.5156 875.5,1129.6406 875.6406,1129.7656 C875.7813,1129.9063 876.0156,1130.0156 876.2344,1130.0156 C876.5,1130.0156 876.7656,1129.875 876.9375,1129.6563 C877.0469,1129.5 877.0781,1129.3125 877.0781,1128.8906 L877.0781,1127.4688 C877.0781,1127.0313 877.0625,1126.9063 876.9688,1126.75 C876.8125,1126.4844 876.5313,1126.3438 876.2344,1126.3438 C875.9375,1126.3438 875.7344,1126.4375 875.5156,1126.75 L875.3438,1126.6719 Z " fill="#000000"/><text fill="#000000" font-family="sans-serif" font-size="14" lengthAdjust="spacing" textLength="24" x="887" y="1135.8467">GUI</text><line style="stroke:#A80036;stroke-width:1.0;" x1="859" x2="913" y1="1147" y2="1147"/><line style="stroke:#A80036;stroke-width:1.0;" x1="859" x2="913" y1="1155" y2="1155"/></g><!--class RMIClient--><g id="elem_RMIClient"><rect codeLine="50" fill="#FEFECE" filter="url(#fszz7oqi9thd3)" height="48" id="RMIClient" style="stroke:#A80036;stroke-width:1.0;" width="101" x="688.5" y="1272"/><ellipse cx="703.5" cy="1288" fill="#ADD1B2" rx="11" ry="11" style="stroke:#A80036;stroke-width:1.0;"/><path d="M705.8438,1283.6719 C704.9063,1283.2344 704.3125,1283.0938 703.4375,1283.0938 C700.8125,1283.0938 698.8125,1285.1719 698.8125,1287.8906 L698.8125,1289.0156 C698.8125,1291.5938 700.9219,1293.4844 703.8125,1293.4844 C705.0313,1293.4844 706.1875,1293.1875 706.9375,1292.6406 C707.5156,1292.2344 707.8438,1291.7813 707.8438,1291.3906 C707.8438,1290.9375 707.4531,1290.5469 706.9844,1290.5469 C706.7656,1290.5469 706.5625,1290.625 706.375,1290.8125 C705.9219,1291.2969 705.9219,1291.2969 705.7344,1291.3906 C705.3125,1291.6563 704.625,1291.7813 703.8594,1291.7813 C701.8125,1291.7813 700.5156,1290.6875 700.5156,1288.9844 L700.5156,1287.8906 C700.5156,1286.1094 701.7656,1284.7969 703.5,1284.7969 C704.0781,1284.7969 704.6875,1284.9531 705.1563,1285.2031 C705.6406,1285.4844 705.8125,1285.7031 705.9063,1286.1094 C705.9688,1286.5156 706,1286.6406 706.1406,1286.7656 C706.2813,1286.9063 706.5156,1287.0156 706.7344,1287.0156 C707,1287.0156 707.2656,1286.875 707.4375,1286.6563 C707.5469,1286.5 707.5781,1286.3125 707.5781,1285.8906 L707.5781,1284.4688 C707.5781,1284.0313 707.5625,1283.9063 707.4688,1283.75 C707.3125,1283.4844 707.0313,1283.3438 706.7344,1283.3438 C706.4375,1283.3438 706.2344,1283.4375 706.0156,1283.75 L705.8438,1283.6719 Z " fill="#000000"/><text fill="#000000" font-family="sans-serif" font-size="14" lengthAdjust="spacing" textLength="69" x="717.5" y="1292.8467">RMIClient</text><line style="stroke:#A80036;stroke-width:1.0;" x1="689.5" x2="788.5" y1="1304" y2="1304"/><line style="stroke:#A80036;stroke-width:1.0;" x1="689.5" x2="788.5" y1="1312" y2="1312"/></g><!--class RMIClientInterface--><g id="elem_RMIClientInterface"><rect fill="#FEFECE" filter="url(#fszz7oqi9thd3)" height="48" id="RMIClientInterface" style="stroke:#A80036;stroke-width:1.0;" width="167" x="655.5" y="1115"/><ellipse cx="670.5" cy="1131" fill="#ADD1B2" rx="11" ry="11" style="stroke:#A80036;stroke-width:1.0;"/><path d="M672.8438,1126.6719 C671.9063,1126.2344 671.3125,1126.0938 670.4375,1126.0938 C667.8125,1126.0938 665.8125,1128.1719 665.8125,1130.8906 L665.8125,1132.0156 C665.8125,1134.5938 667.9219,1136.4844 670.8125,1136.4844 C672.0313,1136.4844 673.1875,1136.1875 673.9375,1135.6406 C674.5156,1135.2344 674.8438,1134.7813 674.8438,1134.3906 C674.8438,1133.9375 674.4531,1133.5469 673.9844,1133.5469 C673.7656,1133.5469 673.5625,1133.625 673.375,1133.8125 C672.9219,1134.2969 672.9219,1134.2969 672.7344,1134.3906 C672.3125,1134.6563 671.625,1134.7813 670.8594,1134.7813 C668.8125,1134.7813 667.5156,1133.6875 667.5156,1131.9844 L667.5156,1130.8906 C667.5156,1129.1094 668.7656,1127.7969 670.5,1127.7969 C671.0781,1127.7969 671.6875,1127.9531 672.1563,1128.2031 C672.6406,1128.4844 672.8125,1128.7031 672.9063,1129.1094 C672.9688,1129.5156 673,1129.6406 673.1406,1129.7656 C673.2813,1129.9063 673.5156,1130.0156 673.7344,1130.0156 C674,1130.0156 674.2656,1129.875 674.4375,1129.6563 C674.5469,1129.5 674.5781,1129.3125 674.5781,1128.8906 L674.5781,1127.4688 C674.5781,1127.0313 674.5625,1126.9063 674.4688,1126.75 C674.3125,1126.4844 674.0313,1126.3438 673.7344,1126.3438 C673.4375,1126.3438 673.2344,1126.4375 673.0156,1126.75 L672.8438,1126.6719 Z " fill="#000000"/><text fill="#000000" font-family="sans-serif" font-size="14" lengthAdjust="spacing" textLength="135" x="684.5" y="1135.8467">RMIClientInterface</text><line style="stroke:#A80036;stroke-width:1.0;" x1="656.5" x2="821.5" y1="1147" y2="1147"/><line style="stroke:#A80036;stroke-width:1.0;" x1="656.5" x2="821.5" y1="1155" y2="1155"/></g><!--class ClientBoard--><g id="elem_ClientBoard"><rect codeLine="4" fill="#FEFECE" filter="url(#fszz7oqi9thd3)" height="48" id="ClientBoard" style="stroke:#A80036;stroke-width:1.0;" width="117" x="1862.5" y="1115"/><ellipse cx="1877.5" cy="1131" fill="#ADD1B2" rx="11" ry="11" style="stroke:#A80036;stroke-width:1.0;"/><path d="M1879.8438,1126.6719 C1878.9063,1126.2344 1878.3125,1126.0938 1877.4375,1126.0938 C1874.8125,1126.0938 1872.8125,1128.1719 1872.8125,1130.8906 L1872.8125,1132.0156 C1872.8125,1134.5938 1874.9219,1136.4844 1877.8125,1136.4844 C1879.0313,1136.4844 1880.1875,1136.1875 1880.9375,1135.6406 C1881.5156,1135.2344 1881.8438,1134.7813 1881.8438,1134.3906 C1881.8438,1133.9375 1881.4531,1133.5469 1880.9844,1133.5469 C1880.7656,1133.5469 1880.5625,1133.625 1880.375,1133.8125 C1879.9219,1134.2969 1879.9219,1134.2969 1879.7344,1134.3906 C1879.3125,1134.6563 1878.625,1134.7813 1877.8594,1134.7813 C1875.8125,1134.7813 1874.5156,1133.6875 1874.5156,1131.9844 L1874.5156,1130.8906 C1874.5156,1129.1094 1875.7656,1127.7969 1877.5,1127.7969 C1878.0781,1127.7969 1878.6875,1127.9531 1879.1563,1128.2031 C1879.6406,1128.4844 1879.8125,1128.7031 1879.9063,1129.1094 C1879.9688,1129.5156 1880,1129.6406 1880.1406,1129.7656 C1880.2813,1129.9063 1880.5156,1130.0156 1880.7344,1130.0156 C1881,1130.0156 1881.2656,1129.875 1881.4375,1129.6563 C1881.5469,1129.5 1881.5781,1129.3125 1881.5781,1128.8906 L1881.5781,1127.4688 C1881.5781,1127.0313 1881.5625,1126.9063 1881.4688,1126.75 C1881.3125,1126.4844 1881.0313,1126.3438 1880.7344,1126.3438 C1880.4375,1126.3438 1880.2344,1126.4375 1880.0156,1126.75 L1879.8438,1126.6719 Z " fill="#000000"/><text fill="#000000" font-family="sans-serif" font-size="14" lengthAdjust="spacing" textLength="85" x="1891.5" y="1135.8467">ClientBoard</text><line style="stroke:#A80036;stroke-width:1.0;" x1="1863.5" x2="1978.5" y1="1147" y2="1147"/><line style="stroke:#A80036;stroke-width:1.0;" x1="1863.5" x2="1978.5" y1="1155" y2="1155"/></g><!--class ClientCommonGoalCard--><g id="elem_ClientCommonGoalCard"><rect codeLine="6" fill="#FEFECE" filter="url(#fszz7oqi9thd3)" height="48" id="ClientCommonGoalCard" style="stroke:#A80036;stroke-width:1.0;" width="205" x="1622.5" y="1115"/><ellipse cx="1637.5" cy="1131" fill="#ADD1B2" rx="11" ry="11" style="stroke:#A80036;stroke-width:1.0;"/><path d="M1639.8438,1126.6719 C1638.9063,1126.2344 1638.3125,1126.0938 1637.4375,1126.0938 C1634.8125,1126.0938 1632.8125,1128.1719 1632.8125,1130.8906 L1632.8125,1132.0156 C1632.8125,1134.5938 1634.9219,1136.4844 1637.8125,1136.4844 C1639.0313,1136.4844 1640.1875,1136.1875 1640.9375,1135.6406 C1641.5156,1135.2344 1641.8438,1134.7813 1641.8438,1134.3906 C1641.8438,1133.9375 1641.4531,1133.5469 1640.9844,1133.5469 C1640.7656,1133.5469 1640.5625,1133.625 1640.375,1133.8125 C1639.9219,1134.2969 1639.9219,1134.2969 1639.7344,1134.3906 C1639.3125,1134.6563 1638.625,1134.7813 1637.8594,1134.7813 C1635.8125,1134.7813 1634.5156,1133.6875 1634.5156,1131.9844 L1634.5156,1130.8906 C1634.5156,1129.1094 1635.7656,1127.7969 1637.5,1127.7969 C1638.0781,1127.7969 1638.6875,1127.9531 1639.1563,1128.2031 C1639.6406,1128.4844 1639.8125,1128.7031 1639.9063,1129.1094 C1639.9688,1129.5156 1640,1129.6406 1640.1406,1129.7656 C1640.2813,1129.9063 1640.5156,1130.0156 1640.7344,1130.0156 C1641,1130.0156 1641.2656,1129.875 1641.4375,1129.6563 C1641.5469,1129.5 1641.5781,1129.3125 1641.5781,1128.8906 L1641.5781,1127.4688 C1641.5781,1127.0313 1641.5625,1126.9063 1641.4688,1126.75 C1641.3125,1126.4844 1641.0313,1126.3438 1640.7344,1126.3438 C1640.4375,1126.3438 1640.2344,1126.4375 1640.0156,1126.75 L1639.8438,1126.6719 Z " fill="#000000"/><text fill="#000000" font-family="sans-serif" font-size="14" lengthAdjust="spacing" textLength="173" x="1651.5" y="1135.8467">ClientCommonGoalCard</text><line style="stroke:#A80036;stroke-width:1.0;" x1="1623.5" x2="1826.5" y1="1147" y2="1147"/><line style="stroke:#A80036;stroke-width:1.0;" x1="1623.5" x2="1826.5" y1="1155" y2="1155"/></g><!--class ClientStatus--><g id="elem_ClientStatus"><rect codeLine="16" fill="#FEFECE" filter="url(#fszz7oqi9thd3)" height="48" id="ClientStatus" style="stroke:#A80036;stroke-width:1.0;" width="121" x="3060.5" y="1272"/><ellipse cx="3075.5" cy="1288" fill="#ADD1B2" rx="11" ry="11" style="stroke:#A80036;stroke-width:1.0;"/><path d="M3077.8438,1283.6719 C3076.9063,1283.2344 3076.3125,1283.0938 3075.4375,1283.0938 C3072.8125,1283.0938 3070.8125,1285.1719 3070.8125,1287.8906 L3070.8125,1289.0156 C3070.8125,1291.5938 3072.9219,1293.4844 3075.8125,1293.4844 C3077.0313,1293.4844 3078.1875,1293.1875 3078.9375,1292.6406 C3079.5156,1292.2344 3079.8438,1291.7813 3079.8438,1291.3906 C3079.8438,1290.9375 3079.4531,1290.5469 3078.9844,1290.5469 C3078.7656,1290.5469 3078.5625,1290.625 3078.375,1290.8125 C3077.9219,1291.2969 3077.9219,1291.2969 3077.7344,1291.3906 C3077.3125,1291.6563 3076.625,1291.7813 3075.8594,1291.7813 C3073.8125,1291.7813 3072.5156,1290.6875 3072.5156,1288.9844 L3072.5156,1287.8906 C3072.5156,1286.1094 3073.7656,1284.7969 3075.5,1284.7969 C3076.0781,1284.7969 3076.6875,1284.9531 3077.1563,1285.2031 C3077.6406,1285.4844 3077.8125,1285.7031 3077.9063,1286.1094 C3077.9688,1286.5156 3078,1286.6406 3078.1406,1286.7656 C3078.2813,1286.9063 3078.5156,1287.0156 3078.7344,1287.0156 C3079,1287.0156 3079.2656,1286.875 3079.4375,1286.6563 C3079.5469,1286.5 3079.5781,1286.3125 3079.5781,1285.8906 L3079.5781,1284.4688 C3079.5781,1284.0313 3079.5625,1283.9063 3079.4688,1283.75 C3079.3125,1283.4844 3079.0313,1283.3438 3078.7344,1283.3438 C3078.4375,1283.3438 3078.2344,1283.4375 3078.0156,1283.75 L3077.8438,1283.6719 Z " fill="#000000"/><text fill="#000000" font-family="sans-serif" font-size="14" lengthAdjust="spacing" textLength="89" x="3089.5" y="1292.8467">ClientStatus</text><line style="stroke:#A80036;stroke-width:1.0;" x1="3061.5" x2="3180.5" y1="1304" y2="1304"/><line style="stroke:#A80036;stroke-width:1.0;" x1="3061.5" x2="3180.5" y1="1312" y2="1312"/></g><!--class ClientMove--><g id="elem_ClientMove"><rect codeLine="26" fill="#FEFECE" filter="url(#fszz7oqi9thd3)" height="48" id="ClientMove" style="stroke:#A80036;stroke-width:1.0;" width="113" x="1290.5" y="1115"/><ellipse cx="1305.5" cy="1131" fill="#ADD1B2" rx="11" ry="11" style="stroke:#A80036;stroke-width:1.0;"/><path d="M1307.8438,1126.6719 C1306.9063,1126.2344 1306.3125,1126.0938 1305.4375,1126.0938 C1302.8125,1126.0938 1300.8125,1128.1719 1300.8125,1130.8906 L1300.8125,1132.0156 C1300.8125,1134.5938 1302.9219,1136.4844 1305.8125,1136.4844 C1307.0313,1136.4844 1308.1875,1136.1875 1308.9375,1135.6406 C1309.5156,1135.2344 1309.8438,1134.7813 1309.8438,1134.3906 C1309.8438,1133.9375 1309.4531,1133.5469 1308.9844,1133.5469 C1308.7656,1133.5469 1308.5625,1133.625 1308.375,1133.8125 C1307.9219,1134.2969 1307.9219,1134.2969 1307.7344,1134.3906 C1307.3125,1134.6563 1306.625,1134.7813 1305.8594,1134.7813 C1303.8125,1134.7813 1302.5156,1133.6875 1302.5156,1131.9844 L1302.5156,1130.8906 C1302.5156,1129.1094 1303.7656,1127.7969 1305.5,1127.7969 C1306.0781,1127.7969 1306.6875,1127.9531 1307.1563,1128.2031 C1307.6406,1128.4844 1307.8125,1128.7031 1307.9063,1129.1094 C1307.9688,1129.5156 1308,1129.6406 1308.1406,1129.7656 C1308.2813,1129.9063 1308.5156,1130.0156 1308.7344,1130.0156 C1309,1130.0156 1309.2656,1129.875 1309.4375,1129.6563 C1309.5469,1129.5 1309.5781,1129.3125 1309.5781,1128.8906 L1309.5781,1127.4688 C1309.5781,1127.0313 1309.5625,1126.9063 1309.4688,1126.75 C1309.3125,1126.4844 1309.0313,1126.3438 1308.7344,1126.3438 C1308.4375,1126.3438 1308.2344,1126.4375 1308.0156,1126.75 L1307.8438,1126.6719 Z " fill="#000000"/><text fill="#000000" font-family="sans-serif" font-size="14" lengthAdjust="spacing" textLength="81" x="1319.5" y="1135.8467">ClientMove</text><line style="stroke:#A80036;stroke-width:1.0;" x1="1291.5" x2="1402.5" y1="1147" y2="1147"/><line style="stroke:#A80036;stroke-width:1.0;" x1="1291.5" x2="1402.5" y1="1155" y2="1155"/></g><!--class ClientObjectCardType--><g id="elem_ClientObjectCardType"><rect codeLine="30" fill="#FEFECE" filter="url(#fszz7oqi9thd3)" height="145.7813" id="ClientObjectCardType" style="stroke:#A80036;stroke-width:1.0;" width="193" x="2783.5" y="1066"/><ellipse cx="2798.5" cy="1082" fill="#EB937F" rx="11" ry="11" style="stroke:#A80036;stroke-width:1.0;"/><path d="M2797.2969,1082.875 L2798.75,1082.875 L2798.75,1082.9844 C2798.75,1083.3906 2798.7813,1083.5469 2798.8594,1083.7031 C2799.0156,1083.9531 2799.2969,1084.1094 2799.5938,1084.1094 C2799.8438,1084.1094 2800.1094,1083.9688 2800.2656,1083.75 C2800.3906,1083.5938 2800.4219,1083.4375 2800.4219,1082.9844 L2800.4219,1081.0625 C2800.4219,1080.9063 2800.4219,1080.8594 2800.4063,1080.7031 C2800.3438,1080.2344 2800.0313,1079.9219 2799.5781,1079.9219 C2799.3281,1079.9219 2799.0625,1080.0625 2798.8906,1080.2813 C2798.7813,1080.4531 2798.75,1080.6094 2798.75,1081.0625 L2798.75,1081.1875 L2797.2969,1081.1875 L2797.2969,1078.7813 L2801.2813,1078.7813 L2801.2813,1079.6406 C2801.2813,1080.0469 2801.3125,1080.2188 2801.3906,1080.375 C2801.5625,1080.625 2801.8438,1080.7813 2802.125,1080.7813 C2802.3906,1080.7813 2802.6563,1080.6406 2802.8281,1080.4219 C2802.9375,1080.25 2802.9688,1080.1094 2802.9688,1079.6406 L2802.9688,1077.0938 L2795.3438,1077.0938 C2794.9063,1077.0938 2794.7813,1077.1094 2794.625,1077.2031 C2794.375,1077.3594 2794.2188,1077.6563 2794.2188,1077.9375 C2794.2188,1078.2188 2794.3594,1078.4688 2794.5781,1078.6406 C2794.7344,1078.75 2794.9219,1078.7813 2795.3438,1078.7813 L2795.5938,1078.7813 L2795.5938,1085.2969 L2795.3438,1085.2969 C2794.9375,1085.2969 2794.7813,1085.3125 2794.625,1085.4219 C2794.375,1085.5938 2794.2188,1085.8594 2794.2188,1086.1563 C2794.2188,1086.4219 2794.3594,1086.6719 2794.5781,1086.8281 C2794.7188,1086.9531 2794.9531,1087 2795.3438,1087 L2803.3438,1087 L2803.3438,1084.4219 C2803.3438,1083.9844 2803.3125,1083.8438 2803.2344,1083.6875 C2803.0625,1083.4375 2802.7813,1083.2813 2802.5,1083.2813 C2802.2344,1083.2813 2801.9688,1083.3906 2801.7969,1083.6406 C2801.6875,1083.7969 2801.6563,1083.9375 2801.6563,1084.4219 L2801.6563,1085.2969 L2797.2969,1085.2969 L2797.2969,1082.875 Z " fill="#000000"/><text fill="#000000" font-family="sans-serif" font-size="14" lengthAdjust="spacing" textLength="161" x="2812.5" y="1086.8467">ClientObjectCardType</text><line style="stroke:#A80036;stroke-width:1.0;" x1="2784.5" x2="2975.5" y1="1098" y2="1098"/><ellipse cx="2794.5" cy="1111.6484" fill="none" rx="3" ry="3" style="stroke:#038048;stroke-width:1.0;"/><text fill="#000000" font-family="sans-serif" font-size="14" lengthAdjust="spacing" textLength="38" x="2803.5" y="1114.9951">CATS</text><ellipse cx="2794.5" cy="1127.9453" fill="none" rx="3" ry="3" style="stroke:#038048;stroke-width:1.0;"/><text fill="#000000" font-family="sans-serif" font-size="14" lengthAdjust="spacing" textLength="51" x="2803.5" y="1131.292">BOOKS</text><ellipse cx="2794.5" cy="1144.2422" fill="none" rx="3" ry="3" style="stroke:#038048;stroke-width:1.0;"/><text fill="#000000" font-family="sans-serif" font-size="14" lengthAdjust="spacing" textLength="51" x="2803.5" y="1147.5889">GAMES</text><ellipse cx="2794.5" cy="1160.5391" fill="none" rx="3" ry="3" style="stroke:#038048;stroke-width:1.0;"/><text fill="#000000" font-family="sans-serif" font-size="14" lengthAdjust="spacing" textLength="58" x="2803.5" y="1163.8857">FRAMES</text><ellipse cx="2794.5" cy="1176.8359" fill="none" rx="3" ry="3" style="stroke:#038048;stroke-width:1.0;"/><text fill="#000000" font-family="sans-serif" font-size="14" lengthAdjust="spacing" textLength="71" x="2803.5" y="1180.1826">TROPHIES</text><ellipse cx="2794.5" cy="1193.1328" fill="none" rx="3" ry="3" style="stroke:#038048;stroke-width:1.0;"/><text fill="#000000" font-family="sans-serif" font-size="14" lengthAdjust="spacing" textLength="55" x="2803.5" y="1196.4795">PLANTS</text><line style="stroke:#A80036;stroke-width:1.0;" x1="2784.5" x2="2975.5" y1="1203.7813" y2="1203.7813"/></g><!--class ClientScoreCard--><g id="elem_ClientScoreCard"><rect codeLine="46" fill="#FEFECE" filter="url(#fszz7oqi9thd3)" height="48" id="ClientScoreCard" style="stroke:#A80036;stroke-width:1.0;" width="149" x="1438.5" y="1115"/><ellipse cx="1453.5" cy="1131" fill="#ADD1B2" rx="11" ry="11" style="stroke:#A80036;stroke-width:1.0;"/><path d="M1455.8438,1126.6719 C1454.9063,1126.2344 1454.3125,1126.0938 1453.4375,1126.0938 C1450.8125,1126.0938 1448.8125,1128.1719 1448.8125,1130.8906 L1448.8125,1132.0156 C1448.8125,1134.5938 1450.9219,1136.4844 1453.8125,1136.4844 C1455.0313,1136.4844 1456.1875,1136.1875 1456.9375,1135.6406 C1457.5156,1135.2344 1457.8438,1134.7813 1457.8438,1134.3906 C1457.8438,1133.9375 1457.4531,1133.5469 1456.9844,1133.5469 C1456.7656,1133.5469 1456.5625,1133.625 1456.375,1133.8125 C1455.9219,1134.2969 1455.9219,1134.2969 1455.7344,1134.3906 C1455.3125,1134.6563 1454.625,1134.7813 1453.8594,1134.7813 C1451.8125,1134.7813 1450.5156,1133.6875 1450.5156,1131.9844 L1450.5156,1130.8906 C1450.5156,1129.1094 1451.7656,1127.7969 1453.5,1127.7969 C1454.0781,1127.7969 1454.6875,1127.9531 1455.1563,1128.2031 C1455.6406,1128.4844 1455.8125,1128.7031 1455.9063,1129.1094 C1455.9688,1129.5156 1456,1129.6406 1456.1406,1129.7656 C1456.2813,1129.9063 1456.5156,1130.0156 1456.7344,1130.0156 C1457,1130.0156 1457.2656,1129.875 1457.4375,1129.6563 C1457.5469,1129.5 1457.5781,1129.3125 1457.5781,1128.8906 L1457.5781,1127.4688 C1457.5781,1127.0313 1457.5625,1126.9063 1457.4688,1126.75 C1457.3125,1126.4844 1457.0313,1126.3438 1456.7344,1126.3438 C1456.4375,1126.3438 1456.2344,1126.4375 1456.0156,1126.75 L1455.8438,1126.6719 Z " fill="#000000"/><text fill="#000000" font-family="sans-serif" font-size="14" lengthAdjust="spacing" textLength="117" x="1467.5" y="1135.8467">ClientScoreCard</text><line style="stroke:#A80036;stroke-width:1.0;" x1="1439.5" x2="1586.5" y1="1147" y2="1147"/><line style="stroke:#A80036;stroke-width:1.0;" x1="1439.5" x2="1586.5" y1="1155" y2="1155"/></g><!--class ClientObjectCard--><g id="elem_ClientObjectCard"><rect codeLine="56" fill="#FEFECE" filter="url(#fszz7oqi9thd3)" height="48" id="ClientObjectCard" style="stroke:#A80036;stroke-width:1.0;" width="157" x="2591.5" y="1115"/><ellipse cx="2606.5" cy="1131" fill="#ADD1B2" rx="11" ry="11" style="stroke:#A80036;stroke-width:1.0;"/><path d="M2608.8438,1126.6719 C2607.9063,1126.2344 2607.3125,1126.0938 2606.4375,1126.0938 C2603.8125,1126.0938 2601.8125,1128.1719 2601.8125,1130.8906 L2601.8125,1132.0156 C2601.8125,1134.5938 2603.9219,1136.4844 2606.8125,1136.4844 C2608.0313,1136.4844 2609.1875,1136.1875 2609.9375,1135.6406 C2610.5156,1135.2344 2610.8438,1134.7813 2610.8438,1134.3906 C2610.8438,1133.9375 2610.4531,1133.5469 2609.9844,1133.5469 C2609.7656,1133.5469 2609.5625,1133.625 2609.375,1133.8125 C2608.9219,1134.2969 2608.9219,1134.2969 2608.7344,1134.3906 C2608.3125,1134.6563 2607.625,1134.7813 2606.8594,1134.7813 C2604.8125,1134.7813 2603.5156,1133.6875 2603.5156,1131.9844 L2603.5156,1130.8906 C2603.5156,1129.1094 2604.7656,1127.7969 2606.5,1127.7969 C2607.0781,1127.7969 2607.6875,1127.9531 2608.1563,1128.2031 C2608.6406,1128.4844 2608.8125,1128.7031 2608.9063,1129.1094 C2608.9688,1129.5156 2609,1129.6406 2609.1406,1129.7656 C2609.2813,1129.9063 2609.5156,1130.0156 2609.7344,1130.0156 C2610,1130.0156 2610.2656,1129.875 2610.4375,1129.6563 C2610.5469,1129.5 2610.5781,1129.3125 2610.5781,1128.8906 L2610.5781,1127.4688 C2610.5781,1127.0313 2610.5625,1126.9063 2610.4688,1126.75 C2610.3125,1126.4844 2610.0313,1126.3438 2609.7344,1126.3438 C2609.4375,1126.3438 2609.2344,1126.4375 2609.0156,1126.75 L2608.8438,1126.6719 Z " fill="#000000"/><text fill="#000000" font-family="sans-serif" font-size="14" lengthAdjust="spacing" textLength="125" x="2620.5" y="1135.8467">ClientObjectCard</text><line style="stroke:#A80036;stroke-width:1.0;" x1="2592.5" x2="2747.5" y1="1147" y2="1147"/><line style="stroke:#A80036;stroke-width:1.0;" x1="2592.5" x2="2747.5" y1="1155" y2="1155"/></g><!--class ClientShelf--><g id="elem_ClientShelf"><rect codeLine="58" fill="#FEFECE" filter="url(#fszz7oqi9thd3)" height="48" id="ClientShelf" style="stroke:#A80036;stroke-width:1.0;" width="112" x="2015" y="1115"/><ellipse cx="2030" cy="1131" fill="#ADD1B2" rx="11" ry="11" style="stroke:#A80036;stroke-width:1.0;"/><path d="M2032.3438,1126.6719 C2031.4063,1126.2344 2030.8125,1126.0938 2029.9375,1126.0938 C2027.3125,1126.0938 2025.3125,1128.1719 2025.3125,1130.8906 L2025.3125,1132.0156 C2025.3125,1134.5938 2027.4219,1136.4844 2030.3125,1136.4844 C2031.5313,1136.4844 2032.6875,1136.1875 2033.4375,1135.6406 C2034.0156,1135.2344 2034.3438,1134.7813 2034.3438,1134.3906 C2034.3438,1133.9375 2033.9531,1133.5469 2033.4844,1133.5469 C2033.2656,1133.5469 2033.0625,1133.625 2032.875,1133.8125 C2032.4219,1134.2969 2032.4219,1134.2969 2032.2344,1134.3906 C2031.8125,1134.6563 2031.125,1134.7813 2030.3594,1134.7813 C2028.3125,1134.7813 2027.0156,1133.6875 2027.0156,1131.9844 L2027.0156,1130.8906 C2027.0156,1129.1094 2028.2656,1127.7969 2030,1127.7969 C2030.5781,1127.7969 2031.1875,1127.9531 2031.6563,1128.2031 C2032.1406,1128.4844 2032.3125,1128.7031 2032.4063,1129.1094 C2032.4688,1129.5156 2032.5,1129.6406 2032.6406,1129.7656 C2032.7813,1129.9063 2033.0156,1130.0156 2033.2344,1130.0156 C2033.5,1130.0156 2033.7656,1129.875 2033.9375,1129.6563 C2034.0469,1129.5 2034.0781,1129.3125 2034.0781,1128.8906 L2034.0781,1127.4688 C2034.0781,1127.0313 2034.0625,1126.9063 2033.9688,1126.75 C2033.8125,1126.4844 2033.5313,1126.3438 2033.2344,1126.3438 C2032.9375,1126.3438 2032.7344,1126.4375 2032.5156,1126.75 L2032.3438,1126.6719 Z " fill="#000000"/><text fill="#000000" font-family="sans-serif" font-size="14" lengthAdjust="spacing" textLength="80" x="2044" y="1135.8467">ClientShelf</text><line style="stroke:#A80036;stroke-width:1.0;" x1="2016" x2="2126" y1="1147" y2="1147"/><line style="stroke:#A80036;stroke-width:1.0;" x1="2016" x2="2126" y1="1155" y2="1155"/></g><!--class ClientPersonalGoalCard--><g id="elem_ClientPersonalGoalCard"><rect codeLine="60" fill="#FEFECE" filter="url(#fszz7oqi9thd3)" height="48" id="ClientPersonalGoalCard" style="stroke:#A80036;stroke-width:1.0;" width="201" x="2355.5" y="1115"/><ellipse cx="2370.5" cy="1131" fill="#ADD1B2" rx="11" ry="11" style="stroke:#A80036;stroke-width:1.0;"/><path d="M2372.8438,1126.6719 C2371.9063,1126.2344 2371.3125,1126.0938 2370.4375,1126.0938 C2367.8125,1126.0938 2365.8125,1128.1719 2365.8125,1130.8906 L2365.8125,1132.0156 C2365.8125,1134.5938 2367.9219,1136.4844 2370.8125,1136.4844 C2372.0313,1136.4844 2373.1875,1136.1875 2373.9375,1135.6406 C2374.5156,1135.2344 2374.8438,1134.7813 2374.8438,1134.3906 C2374.8438,1133.9375 2374.4531,1133.5469 2373.9844,1133.5469 C2373.7656,1133.5469 2373.5625,1133.625 2373.375,1133.8125 C2372.9219,1134.2969 2372.9219,1134.2969 2372.7344,1134.3906 C2372.3125,1134.6563 2371.625,1134.7813 2370.8594,1134.7813 C2368.8125,1134.7813 2367.5156,1133.6875 2367.5156,1131.9844 L2367.5156,1130.8906 C2367.5156,1129.1094 2368.7656,1127.7969 2370.5,1127.7969 C2371.0781,1127.7969 2371.6875,1127.9531 2372.1563,1128.2031 C2372.6406,1128.4844 2372.8125,1128.7031 2372.9063,1129.1094 C2372.9688,1129.5156 2373,1129.6406 2373.1406,1129.7656 C2373.2813,1129.9063 2373.5156,1130.0156 2373.7344,1130.0156 C2374,1130.0156 2374.2656,1129.875 2374.4375,1129.6563 C2374.5469,1129.5 2374.5781,1129.3125 2374.5781,1128.8906 L2374.5781,1127.4688 C2374.5781,1127.0313 2374.5625,1126.9063 2374.4688,1126.75 C2374.3125,1126.4844 2374.0313,1126.3438 2373.7344,1126.3438 C2373.4375,1126.3438 2373.2344,1126.4375 2373.0156,1126.75 L2372.8438,1126.6719 Z " fill="#000000"/><text fill="#000000" font-family="sans-serif" font-size="14" lengthAdjust="spacing" textLength="169" x="2384.5" y="1135.8467">ClientPersonalGoalCard</text><line style="stroke:#A80036;stroke-width:1.0;" x1="2356.5" x2="2555.5" y1="1147" y2="1147"/><line style="stroke:#A80036;stroke-width:1.0;" x1="2356.5" x2="2555.5" y1="1155" y2="1155"/></g><!--class ClientBoardSpace--><g id="elem_ClientBoardSpace"><rect codeLine="62" fill="#FEFECE" filter="url(#fszz7oqi9thd3)" height="48" id="ClientBoardSpace" style="stroke:#A80036;stroke-width:1.0;" width="161" x="1290.5" y="1272"/><ellipse cx="1305.5" cy="1288" fill="#ADD1B2" rx="11" ry="11" style="stroke:#A80036;stroke-width:1.0;"/><path d="M1307.8438,1283.6719 C1306.9063,1283.2344 1306.3125,1283.0938 1305.4375,1283.0938 C1302.8125,1283.0938 1300.8125,1285.1719 1300.8125,1287.8906 L1300.8125,1289.0156 C1300.8125,1291.5938 1302.9219,1293.4844 1305.8125,1293.4844 C1307.0313,1293.4844 1308.1875,1293.1875 1308.9375,1292.6406 C1309.5156,1292.2344 1309.8438,1291.7813 1309.8438,1291.3906 C1309.8438,1290.9375 1309.4531,1290.5469 1308.9844,1290.5469 C1308.7656,1290.5469 1308.5625,1290.625 1308.375,1290.8125 C1307.9219,1291.2969 1307.9219,1291.2969 1307.7344,1291.3906 C1307.3125,1291.6563 1306.625,1291.7813 1305.8594,1291.7813 C1303.8125,1291.7813 1302.5156,1290.6875 1302.5156,1288.9844 L1302.5156,1287.8906 C1302.5156,1286.1094 1303.7656,1284.7969 1305.5,1284.7969 C1306.0781,1284.7969 1306.6875,1284.9531 1307.1563,1285.2031 C1307.6406,1285.4844 1307.8125,1285.7031 1307.9063,1286.1094 C1307.9688,1286.5156 1308,1286.6406 1308.1406,1286.7656 C1308.2813,1286.9063 1308.5156,1287.0156 1308.7344,1287.0156 C1309,1287.0156 1309.2656,1286.875 1309.4375,1286.6563 C1309.5469,1286.5 1309.5781,1286.3125 1309.5781,1285.8906 L1309.5781,1284.4688 C1309.5781,1284.0313 1309.5625,1283.9063 1309.4688,1283.75 C1309.3125,1283.4844 1309.0313,1283.3438 1308.7344,1283.3438 C1308.4375,1283.3438 1308.2344,1283.4375 1308.0156,1283.75 L1307.8438,1283.6719 Z " fill="#000000"/><text fill="#000000" font-family="sans-serif" font-size="14" lengthAdjust="spacing" textLength="129" x="1319.5" y="1292.8467">ClientBoardSpace</text><line style="stroke:#A80036;stroke-width:1.0;" x1="1291.5" x2="1450.5" y1="1304" y2="1304"/><line style="stroke:#A80036;stroke-width:1.0;" x1="1291.5" x2="1450.5" y1="1312" y2="1312"/></g><!--class ClientScoreboard--><g id="elem_ClientScoreboard"><rect codeLine="64" fill="#FEFECE" filter="url(#fszz7oqi9thd3)" height="48" id="ClientScoreboard" style="stroke:#A80036;stroke-width:1.0;" width="158" x="2162" y="1115"/><ellipse cx="2177" cy="1131" fill="#ADD1B2" rx="11" ry="11" style="stroke:#A80036;stroke-width:1.0;"/><path d="M2179.3438,1126.6719 C2178.4063,1126.2344 2177.8125,1126.0938 2176.9375,1126.0938 C2174.3125,1126.0938 2172.3125,1128.1719 2172.3125,1130.8906 L2172.3125,1132.0156 C2172.3125,1134.5938 2174.4219,1136.4844 2177.3125,1136.4844 C2178.5313,1136.4844 2179.6875,1136.1875 2180.4375,1135.6406 C2181.0156,1135.2344 2181.3438,1134.7813 2181.3438,1134.3906 C2181.3438,1133.9375 2180.9531,1133.5469 2180.4844,1133.5469 C2180.2656,1133.5469 2180.0625,1133.625 2179.875,1133.8125 C2179.4219,1134.2969 2179.4219,1134.2969 2179.2344,1134.3906 C2178.8125,1134.6563 2178.125,1134.7813 2177.3594,1134.7813 C2175.3125,1134.7813 2174.0156,1133.6875 2174.0156,1131.9844 L2174.0156,1130.8906 C2174.0156,1129.1094 2175.2656,1127.7969 2177,1127.7969 C2177.5781,1127.7969 2178.1875,1127.9531 2178.6563,1128.2031 C2179.1406,1128.4844 2179.3125,1128.7031 2179.4063,1129.1094 C2179.4688,1129.5156 2179.5,1129.6406 2179.6406,1129.7656 C2179.7813,1129.9063 2180.0156,1130.0156 2180.2344,1130.0156 C2180.5,1130.0156 2180.7656,1129.875 2180.9375,1129.6563 C2181.0469,1129.5 2181.0781,1129.3125 2181.0781,1128.8906 L2181.0781,1127.4688 C2181.0781,1127.0313 2181.0625,1126.9063 2180.9688,1126.75 C2180.8125,1126.4844 2180.5313,1126.3438 2180.2344,1126.3438 C2179.9375,1126.3438 2179.7344,1126.4375 2179.5156,1126.75 L2179.3438,1126.6719 Z " fill="#000000"/><text fill="#000000" font-family="sans-serif" font-size="14" lengthAdjust="spacing" textLength="126" x="2191" y="1135.8467">ClientScoreboard</text><line style="stroke:#A80036;stroke-width:1.0;" x1="2163" x2="2319" y1="1147" y2="1147"/><line style="stroke:#A80036;stroke-width:1.0;" x1="2163" x2="2319" y1="1155" y2="1155"/></g><!--class ClientStatusInterface--><g id="elem_ClientStatusInterface"><rect fill="#FEFECE" filter="url(#fszz7oqi9thd3)" height="48" id="ClientStatusInterface" style="stroke:#A80036;stroke-width:1.0;" width="187" x="3011.5" y="1115"/><ellipse cx="3026.5" cy="1131" fill="#ADD1B2" rx="11" ry="11" style="stroke:#A80036;stroke-width:1.0;"/><path d="M3028.8438,1126.6719 C3027.9063,1126.2344 3027.3125,1126.0938 3026.4375,1126.0938 C3023.8125,1126.0938 3021.8125,1128.1719 3021.8125,1130.8906 L3021.8125,1132.0156 C3021.8125,1134.5938 3023.9219,1136.4844 3026.8125,1136.4844 C3028.0313,1136.4844 3029.1875,1136.1875 3029.9375,1135.6406 C3030.5156,1135.2344 3030.8438,1134.7813 3030.8438,1134.3906 C3030.8438,1133.9375 3030.4531,1133.5469 3029.9844,1133.5469 C3029.7656,1133.5469 3029.5625,1133.625 3029.375,1133.8125 C3028.9219,1134.2969 3028.9219,1134.2969 3028.7344,1134.3906 C3028.3125,1134.6563 3027.625,1134.7813 3026.8594,1134.7813 C3024.8125,1134.7813 3023.5156,1133.6875 3023.5156,1131.9844 L3023.5156,1130.8906 C3023.5156,1129.1094 3024.7656,1127.7969 3026.5,1127.7969 C3027.0781,1127.7969 3027.6875,1127.9531 3028.1563,1128.2031 C3028.6406,1128.4844 3028.8125,1128.7031 3028.9063,1129.1094 C3028.9688,1129.5156 3029,1129.6406 3029.1406,1129.7656 C3029.2813,1129.9063 3029.5156,1130.0156 3029.7344,1130.0156 C3030,1130.0156 3030.2656,1129.875 3030.4375,1129.6563 C3030.5469,1129.5 3030.5781,1129.3125 3030.5781,1128.8906 L3030.5781,1127.4688 C3030.5781,1127.0313 3030.5625,1126.9063 3030.4688,1126.75 C3030.3125,1126.4844 3030.0313,1126.3438 3029.7344,1126.3438 C3029.4375,1126.3438 3029.2344,1126.4375 3029.0156,1126.75 L3028.8438,1126.6719 Z " fill="#000000"/><text fill="#000000" font-family="sans-serif" font-size="14" lengthAdjust="spacing" textLength="155" x="3040.5" y="1135.8467">ClientStatusInterface</text><line style="stroke:#A80036;stroke-width:1.0;" x1="3012.5" x2="3197.5" y1="1147" y2="1147"/><line style="stroke:#A80036;stroke-width:1.0;" x1="3012.5" x2="3197.5" y1="1155" y2="1155"/></g><!--class MultipleView--><g id="elem_MultipleView"><rect codeLine="20" fill="#FEFECE" filter="url(#fszz7oqi9thd3)" height="48" id="MultipleView" style="stroke:#A80036;stroke-width:1.0;" width="124" x="1110" y="1115"/><ellipse cx="1125" cy="1131" fill="#ADD1B2" rx="11" ry="11" style="stroke:#A80036;stroke-width:1.0;"/><path d="M1127.3438,1126.6719 C1126.4063,1126.2344 1125.8125,1126.0938 1124.9375,1126.0938 C1122.3125,1126.0938 1120.3125,1128.1719 1120.3125,1130.8906 L1120.3125,1132.0156 C1120.3125,1134.5938 1122.4219,1136.4844 1125.3125,1136.4844 C1126.5313,1136.4844 1127.6875,1136.1875 1128.4375,1135.6406 C1129.0156,1135.2344 1129.3438,1134.7813 1129.3438,1134.3906 C1129.3438,1133.9375 1128.9531,1133.5469 1128.4844,1133.5469 C1128.2656,1133.5469 1128.0625,1133.625 1127.875,1133.8125 C1127.4219,1134.2969 1127.4219,1134.2969 1127.2344,1134.3906 C1126.8125,1134.6563 1126.125,1134.7813 1125.3594,1134.7813 C1123.3125,1134.7813 1122.0156,1133.6875 1122.0156,1131.9844 L1122.0156,1130.8906 C1122.0156,1129.1094 1123.2656,1127.7969 1125,1127.7969 C1125.5781,1127.7969 1126.1875,1127.9531 1126.6563,1128.2031 C1127.1406,1128.4844 1127.3125,1128.7031 1127.4063,1129.1094 C1127.4688,1129.5156 1127.5,1129.6406 1127.6406,1129.7656 C1127.7813,1129.9063 1128.0156,1130.0156 1128.2344,1130.0156 C1128.5,1130.0156 1128.7656,1129.875 1128.9375,1129.6563 C1129.0469,1129.5 1129.0781,1129.3125 1129.0781,1128.8906 L1129.0781,1127.4688 C1129.0781,1127.0313 1129.0625,1126.9063 1128.9688,1126.75 C1128.8125,1126.4844 1128.5313,1126.3438 1128.2344,1126.3438 C1127.9375,1126.3438 1127.7344,1126.4375 1127.5156,1126.75 L1127.3438,1126.6719 Z " fill="#000000"/><text fill="#000000" font-family="sans-serif" font-size="14" lengthAdjust="spacing" textLength="92" x="1139" y="1135.8467">MultipleView</text><line style="stroke:#A80036;stroke-width:1.0;" x1="1111" x2="1233" y1="1147" y2="1147"/><line style="stroke:#A80036;stroke-width:1.0;" x1="1111" x2="1233" y1="1155" y2="1155"/></g><!--class ShelfInterface--><g id="elem_ShelfInterface"><rect codeLine="8" fill="#FEFECE" filter="url(#fszz7oqi9thd3)" height="48" id="ShelfInterface" style="stroke:#A80036;stroke-width:1.0;" width="132" x="1994" y="663.5"/><ellipse cx="2009" cy="679.5" fill="#B4A7E5" rx="11" ry="11" style="stroke:#A80036;stroke-width:1.0;"/><path d="M2009.9531,676.2813 L2011.6719,676.2813 C2012.0625,676.2813 2012.25,676.25 2012.375,676.1719 C2012.6406,676.0156 2012.7813,675.7344 2012.7813,675.4375 C2012.7813,675.1719 2012.6719,674.9063 2012.4375,674.7344 C2012.2656,674.625 2012.125,674.5938 2011.6719,674.5938 L2006.5313,674.5938 C2006.0938,674.5938 2005.9688,674.6094 2005.8125,674.7031 C2005.5625,674.8594 2005.4063,675.1563 2005.4063,675.4375 C2005.4063,675.7188 2005.5469,675.9688 2005.7656,676.1406 C2005.9219,676.25 2006.1094,676.2813 2006.5313,676.2813 L2008.25,676.2813 L2008.25,682.7969 L2006.5313,682.7969 C2006.0938,682.7969 2005.9688,682.8125 2005.8125,682.9219 C2005.5625,683.0781 2005.4063,683.3594 2005.4063,683.6563 C2005.4063,683.9063 2005.5469,684.1719 2005.7656,684.3281 C2005.9219,684.4531 2006.125,684.5 2006.5313,684.5 L2011.6719,684.5 C2012.4219,684.5 2012.7813,684.2188 2012.7813,683.6563 C2012.7813,683.375 2012.6719,683.125 2012.4375,682.9531 C2012.2656,682.8281 2012.125,682.7969 2011.6719,682.7969 L2009.9531,682.7969 L2009.9531,676.2813 Z " fill="#000000"/><text fill="#000000" font-family="sans-serif" font-size="14" font-style="italic" lengthAdjust="spacing" textLength="100" x="2023" y="684.3467">ShelfInterface</text><line style="stroke:#A80036;stroke-width:1.0;" x1="1995" x2="2125" y1="695.5" y2="695.5"/><line style="stroke:#A80036;stroke-width:1.0;" x1="1995" x2="2125" y1="703.5" y2="703.5"/></g><!--class ScoreBoardInterface--><g id="elem_ScoreBoardInterface"><rect codeLine="10" fill="#FEFECE" filter="url(#fszz7oqi9thd3)" height="48" id="ScoreBoardInterface" style="stroke:#A80036;stroke-width:1.0;" width="180" x="2161" y="663.5"/><ellipse cx="2176" cy="679.5" fill="#B4A7E5" rx="11" ry="11" style="stroke:#A80036;stroke-width:1.0;"/><path d="M2176.9531,676.2813 L2178.6719,676.2813 C2179.0625,676.2813 2179.25,676.25 2179.375,676.1719 C2179.6406,676.0156 2179.7813,675.7344 2179.7813,675.4375 C2179.7813,675.1719 2179.6719,674.9063 2179.4375,674.7344 C2179.2656,674.625 2179.125,674.5938 2178.6719,674.5938 L2173.5313,674.5938 C2173.0938,674.5938 2172.9688,674.6094 2172.8125,674.7031 C2172.5625,674.8594 2172.4063,675.1563 2172.4063,675.4375 C2172.4063,675.7188 2172.5469,675.9688 2172.7656,676.1406 C2172.9219,676.25 2173.1094,676.2813 2173.5313,676.2813 L2175.25,676.2813 L2175.25,682.7969 L2173.5313,682.7969 C2173.0938,682.7969 2172.9688,682.8125 2172.8125,682.9219 C2172.5625,683.0781 2172.4063,683.3594 2172.4063,683.6563 C2172.4063,683.9063 2172.5469,684.1719 2172.7656,684.3281 C2172.9219,684.4531 2173.125,684.5 2173.5313,684.5 L2178.6719,684.5 C2179.4219,684.5 2179.7813,684.2188 2179.7813,683.6563 C2179.7813,683.375 2179.6719,683.125 2179.4375,682.9531 C2179.2656,682.8281 2179.125,682.7969 2178.6719,682.7969 L2176.9531,682.7969 L2176.9531,676.2813 Z " fill="#000000"/><text fill="#000000" font-family="sans-serif" font-size="14" font-style="italic" lengthAdjust="spacing" textLength="148" x="2190" y="684.3467">ScoreBoardInterface</text><line style="stroke:#A80036;stroke-width:1.0;" x1="2162" x2="2340" y1="695.5" y2="695.5"/><line style="stroke:#A80036;stroke-width:1.0;" x1="2162" x2="2340" y1="703.5" y2="703.5"/></g><!--class RMIControllerInterface--><g id="elem_RMIControllerInterface"><rect codeLine="12" fill="#FEFECE" filter="url(#fszz7oqi9thd3)" height="48" id="RMIControllerInterface" style="stroke:#A80036;stroke-width:1.0;" width="193" x="859.5" y="663.5"/><ellipse cx="874.5" cy="679.5" fill="#B4A7E5" rx="11" ry="11" style="stroke:#A80036;stroke-width:1.0;"/><path d="M875.4531,676.2813 L877.1719,676.2813 C877.5625,676.2813 877.75,676.25 877.875,676.1719 C878.1406,676.0156 878.2813,675.7344 878.2813,675.4375 C878.2813,675.1719 878.1719,674.9063 877.9375,674.7344 C877.7656,674.625 877.625,674.5938 877.1719,674.5938 L872.0313,674.5938 C871.5938,674.5938 871.4688,674.6094 871.3125,674.7031 C871.0625,674.8594 870.9063,675.1563 870.9063,675.4375 C870.9063,675.7188 871.0469,675.9688 871.2656,676.1406 C871.4219,676.25 871.6094,676.2813 872.0313,676.2813 L873.75,676.2813 L873.75,682.7969 L872.0313,682.7969 C871.5938,682.7969 871.4688,682.8125 871.3125,682.9219 C871.0625,683.0781 870.9063,683.3594 870.9063,683.6563 C870.9063,683.9063 871.0469,684.1719 871.2656,684.3281 C871.4219,684.4531 871.625,684.5 872.0313,684.5 L877.1719,684.5 C877.9219,684.5 878.2813,684.2188 878.2813,683.6563 C878.2813,683.375 878.1719,683.125 877.9375,682.9531 C877.7656,682.8281 877.625,682.7969 877.1719,682.7969 L875.4531,682.7969 L875.4531,676.2813 Z " fill="#000000"/><text fill="#000000" font-family="sans-serif" font-size="14" font-style="italic" lengthAdjust="spacing" textLength="161" x="888.5" y="684.3467">RMIControllerInterface</text><line style="stroke:#A80036;stroke-width:1.0;" x1="860.5" x2="1051.5" y1="695.5" y2="695.5"/><line style="stroke:#A80036;stroke-width:1.0;" x1="860.5" x2="1051.5" y1="703.5" y2="703.5"/></g><!--class ClientStatusInterface--><g id="elem_ClientStatusInterface"><rect codeLine="14" fill="#FEFECE" filter="url(#fszz7oqi9thd3)" height="48" id="ClientStatusInterface" style="stroke:#A80036;stroke-width:1.0;" width="181" x="643.5" y="663.5"/><ellipse cx="658.5" cy="679.5" fill="#B4A7E5" rx="11" ry="11" style="stroke:#A80036;stroke-width:1.0;"/><path d="M659.4531,676.2813 L661.1719,676.2813 C661.5625,676.2813 661.75,676.25 661.875,676.1719 C662.1406,676.0156 662.2813,675.7344 662.2813,675.4375 C662.2813,675.1719 662.1719,674.9063 661.9375,674.7344 C661.7656,674.625 661.625,674.5938 661.1719,674.5938 L656.0313,674.5938 C655.5938,674.5938 655.4688,674.6094 655.3125,674.7031 C655.0625,674.8594 654.9063,675.1563 654.9063,675.4375 C654.9063,675.7188 655.0469,675.9688 655.2656,676.1406 C655.4219,676.25 655.6094,676.2813 656.0313,676.2813 L657.75,676.2813 L657.75,682.7969 L656.0313,682.7969 C655.5938,682.7969 655.4688,682.8125 655.3125,682.9219 C655.0625,683.0781 654.9063,683.3594 654.9063,683.6563 C654.9063,683.9063 655.0469,684.1719 655.2656,684.3281 C655.4219,684.4531 655.625,684.5 656.0313,684.5 L661.1719,684.5 C661.9219,684.5 662.2813,684.2188 662.2813,683.6563 C662.2813,683.375 662.1719,683.125 661.9375,682.9531 C661.7656,682.8281 661.625,682.7969 661.1719,682.7969 L659.4531,682.7969 L659.4531,676.2813 Z " fill="#000000"/><text fill="#000000" font-family="sans-serif" font-size="14" font-style="italic" lengthAdjust="spacing" textLength="149" x="672.5" y="684.3467">ClientStatusInterface</text><line style="stroke:#A80036;stroke-width:1.0;" x1="644.5" x2="823.5" y1="695.5" y2="695.5"/><line style="stroke:#A80036;stroke-width:1.0;" x1="644.5" x2="823.5" y1="703.5" y2="703.5"/></g><!--class ObjectCardInterface--><g id="elem_ObjectCardInterface"><rect codeLine="24" fill="#FEFECE" filter="url(#fszz7oqi9thd3)" height="48" id="ObjectCardInterface" style="stroke:#A80036;stroke-width:1.0;" width="176" x="2902" y="663.5"/><ellipse cx="2917" cy="679.5" fill="#B4A7E5" rx="11" ry="11" style="stroke:#A80036;stroke-width:1.0;"/><path d="M2917.9531,676.2813 L2919.6719,676.2813 C2920.0625,676.2813 2920.25,676.25 2920.375,676.1719 C2920.6406,676.0156 2920.7813,675.7344 2920.7813,675.4375 C2920.7813,675.1719 2920.6719,674.9063 2920.4375,674.7344 C2920.2656,674.625 2920.125,674.5938 2919.6719,674.5938 L2914.5313,674.5938 C2914.0938,674.5938 2913.9688,674.6094 2913.8125,674.7031 C2913.5625,674.8594 2913.4063,675.1563 2913.4063,675.4375 C2913.4063,675.7188 2913.5469,675.9688 2913.7656,676.1406 C2913.9219,676.25 2914.1094,676.2813 2914.5313,676.2813 L2916.25,676.2813 L2916.25,682.7969 L2914.5313,682.7969 C2914.0938,682.7969 2913.9688,682.8125 2913.8125,682.9219 C2913.5625,683.0781 2913.4063,683.3594 2913.4063,683.6563 C2913.4063,683.9063 2913.5469,684.1719 2913.7656,684.3281 C2913.9219,684.4531 2914.125,684.5 2914.5313,684.5 L2919.6719,684.5 C2920.4219,684.5 2920.7813,684.2188 2920.7813,683.6563 C2920.7813,683.375 2920.6719,683.125 2920.4375,682.9531 C2920.2656,682.8281 2920.125,682.7969 2919.6719,682.7969 L2917.9531,682.7969 L2917.9531,676.2813 Z " fill="#000000"/><text fill="#000000" font-family="sans-serif" font-size="14" font-style="italic" lengthAdjust="spacing" textLength="144" x="2931" y="684.3467">ObjectCardInterface</text><line style="stroke:#A80036;stroke-width:1.0;" x1="2903" x2="3077" y1="695.5" y2="695.5"/><line style="stroke:#A80036;stroke-width:1.0;" x1="2903" x2="3077" y1="703.5" y2="703.5"/></g><!--class StatusIntermediateInterface--><g id="elem_StatusIntermediateInterface"><rect codeLine="40" fill="#FEFECE" filter="url(#fszz7oqi9thd3)" height="48" id="StatusIntermediateInterface" style="stroke:#A80036;stroke-width:1.0;" width="232" x="2635" y="663.5"/><ellipse cx="2650" cy="679.5" fill="#B4A7E5" rx="11" ry="11" style="stroke:#A80036;stroke-width:1.0;"/><path d="M2650.9531,676.2813 L2652.6719,676.2813 C2653.0625,676.2813 2653.25,676.25 2653.375,676.1719 C2653.6406,676.0156 2653.7813,675.7344 2653.7813,675.4375 C2653.7813,675.1719 2653.6719,674.9063 2653.4375,674.7344 C2653.2656,674.625 2653.125,674.5938 2652.6719,674.5938 L2647.5313,674.5938 C2647.0938,674.5938 2646.9688,674.6094 2646.8125,674.7031 C2646.5625,674.8594 2646.4063,675.1563 2646.4063,675.4375 C2646.4063,675.7188 2646.5469,675.9688 2646.7656,676.1406 C2646.9219,676.25 2647.1094,676.2813 2647.5313,676.2813 L2649.25,676.2813 L2649.25,682.7969 L2647.5313,682.7969 C2647.0938,682.7969 2646.9688,682.8125 2646.8125,682.9219 C2646.5625,683.0781 2646.4063,683.3594 2646.4063,683.6563 C2646.4063,683.9063 2646.5469,684.1719 2646.7656,684.3281 C2646.9219,684.4531 2647.125,684.5 2647.5313,684.5 L2652.6719,684.5 C2653.4219,684.5 2653.7813,684.2188 2653.7813,683.6563 C2653.7813,683.375 2653.6719,683.125 2653.4375,682.9531 C2653.2656,682.8281 2653.125,682.7969 2652.6719,682.7969 L2650.9531,682.7969 L2650.9531,676.2813 Z " fill="#000000"/><text fill="#000000" font-family="sans-serif" font-size="14" font-style="italic" lengthAdjust="spacing" textLength="200" x="2664" y="684.3467">StatusIntermediateInterface</text><line style="stroke:#A80036;stroke-width:1.0;" x1="2636" x2="2866" y1="695.5" y2="695.5"/><line style="stroke:#A80036;stroke-width:1.0;" x1="2636" x2="2866" y1="703.5" y2="703.5"/></g><!--class MoveIntermediateInterface--><g id="elem_MoveIntermediateInterface"><rect codeLine="42" fill="#FEFECE" filter="url(#fszz7oqi9thd3)" height="48" id="MoveIntermediateInterface" style="stroke:#A80036;stroke-width:1.0;" width="226" x="1088" y="663.5"/><ellipse cx="1103" cy="679.5" fill="#B4A7E5" rx="11" ry="11" style="stroke:#A80036;stroke-width:1.0;"/><path d="M1103.9531,676.2813 L1105.6719,676.2813 C1106.0625,676.2813 1106.25,676.25 1106.375,676.1719 C1106.6406,676.0156 1106.7813,675.7344 1106.7813,675.4375 C1106.7813,675.1719 1106.6719,674.9063 1106.4375,674.7344 C1106.2656,674.625 1106.125,674.5938 1105.6719,674.5938 L1100.5313,674.5938 C1100.0938,674.5938 1099.9688,674.6094 1099.8125,674.7031 C1099.5625,674.8594 1099.4063,675.1563 1099.4063,675.4375 C1099.4063,675.7188 1099.5469,675.9688 1099.7656,676.1406 C1099.9219,676.25 1100.1094,676.2813 1100.5313,676.2813 L1102.25,676.2813 L1102.25,682.7969 L1100.5313,682.7969 C1100.0938,682.7969 1099.9688,682.8125 1099.8125,682.9219 C1099.5625,683.0781 1099.4063,683.3594 1099.4063,683.6563 C1099.4063,683.9063 1099.5469,684.1719 1099.7656,684.3281 C1099.9219,684.4531 1100.125,684.5 1100.5313,684.5 L1105.6719,684.5 C1106.4219,684.5 1106.7813,684.2188 1106.7813,683.6563 C1106.7813,683.375 1106.6719,683.125 1106.4375,682.9531 C1106.2656,682.8281 1106.125,682.7969 1105.6719,682.7969 L1103.9531,682.7969 L1103.9531,676.2813 Z " fill="#000000"/><text fill="#000000" font-family="sans-serif" font-size="14" font-style="italic" lengthAdjust="spacing" textLength="194" x="1117" y="684.3467">MoveIntermediateInterface</text><line style="stroke:#A80036;stroke-width:1.0;" x1="1089" x2="1313" y1="695.5" y2="695.5"/><line style="stroke:#A80036;stroke-width:1.0;" x1="1089" x2="1313" y1="703.5" y2="703.5"/></g><!--class CommonGoalCardInterface--><g id="elem_CommonGoalCardInterface"><rect codeLine="44" fill="#FEFECE" filter="url(#fszz7oqi9thd3)" height="48" id="CommonGoalCardInterface" style="stroke:#A80036;stroke-width:1.0;" width="228" x="1556" y="663.5"/><ellipse cx="1571" cy="679.5" fill="#B4A7E5" rx="11" ry="11" style="stroke:#A80036;stroke-width:1.0;"/><path d="M1571.9531,676.2813 L1573.6719,676.2813 C1574.0625,676.2813 1574.25,676.25 1574.375,676.1719 C1574.6406,676.0156 1574.7813,675.7344 1574.7813,675.4375 C1574.7813,675.1719 1574.6719,674.9063 1574.4375,674.7344 C1574.2656,674.625 1574.125,674.5938 1573.6719,674.5938 L1568.5313,674.5938 C1568.0938,674.5938 1567.9688,674.6094 1567.8125,674.7031 C1567.5625,674.8594 1567.4063,675.1563 1567.4063,675.4375 C1567.4063,675.7188 1567.5469,675.9688 1567.7656,676.1406 C1567.9219,676.25 1568.1094,676.2813 1568.5313,676.2813 L1570.25,676.2813 L1570.25,682.7969 L1568.5313,682.7969 C1568.0938,682.7969 1567.9688,682.8125 1567.8125,682.9219 C1567.5625,683.0781 1567.4063,683.3594 1567.4063,683.6563 C1567.4063,683.9063 1567.5469,684.1719 1567.7656,684.3281 C1567.9219,684.4531 1568.125,684.5 1568.5313,684.5 L1573.6719,684.5 C1574.4219,684.5 1574.7813,684.2188 1574.7813,683.6563 C1574.7813,683.375 1574.6719,683.125 1574.4375,682.9531 C1574.2656,682.8281 1574.125,682.7969 1573.6719,682.7969 L1571.9531,682.7969 L1571.9531,676.2813 Z " fill="#000000"/><text fill="#000000" font-family="sans-serif" font-size="14" font-style="italic" lengthAdjust="spacing" textLength="196" x="1585" y="684.3467">CommonGoalCardInterface</text><line style="stroke:#A80036;stroke-width:1.0;" x1="1557" x2="1783" y1="695.5" y2="695.5"/><line style="stroke:#A80036;stroke-width:1.0;" x1="1557" x2="1783" y1="703.5" y2="703.5"/></g><!--class ScoreCardInterface--><g id="elem_ScoreCardInterface"><rect codeLine="54" fill="#FEFECE" filter="url(#fszz7oqi9thd3)" height="48" id="ScoreCardInterface" style="stroke:#A80036;stroke-width:1.0;" width="171" x="1349.5" y="663.5"/><ellipse cx="1364.5" cy="679.5" fill="#B4A7E5" rx="11" ry="11" style="stroke:#A80036;stroke-width:1.0;"/><path d="M1365.4531,676.2813 L1367.1719,676.2813 C1367.5625,676.2813 1367.75,676.25 1367.875,676.1719 C1368.1406,676.0156 1368.2813,675.7344 1368.2813,675.4375 C1368.2813,675.1719 1368.1719,674.9063 1367.9375,674.7344 C1367.7656,674.625 1367.625,674.5938 1367.1719,674.5938 L1362.0313,674.5938 C1361.5938,674.5938 1361.4688,674.6094 1361.3125,674.7031 C1361.0625,674.8594 1360.9063,675.1563 1360.9063,675.4375 C1360.9063,675.7188 1361.0469,675.9688 1361.2656,676.1406 C1361.4219,676.25 1361.6094,676.2813 1362.0313,676.2813 L1363.75,676.2813 L1363.75,682.7969 L1362.0313,682.7969 C1361.5938,682.7969 1361.4688,682.8125 1361.3125,682.9219 C1361.0625,683.0781 1360.9063,683.3594 1360.9063,683.6563 C1360.9063,683.9063 1361.0469,684.1719 1361.2656,684.3281 C1361.4219,684.4531 1361.625,684.5 1362.0313,684.5 L1367.1719,684.5 C1367.9219,684.5 1368.2813,684.2188 1368.2813,683.6563 C1368.2813,683.375 1368.1719,683.125 1367.9375,682.9531 C1367.7656,682.8281 1367.625,682.7969 1367.1719,682.7969 L1365.4531,682.7969 L1365.4531,676.2813 Z " fill="#000000"/><text fill="#000000" font-family="sans-serif" font-size="14" font-style="italic" lengthAdjust="spacing" textLength="139" x="1378.5" y="684.3467">ScoreCardInterface</text><line style="stroke:#A80036;stroke-width:1.0;" x1="1350.5" x2="1519.5" y1="695.5" y2="695.5"/><line style="stroke:#A80036;stroke-width:1.0;" x1="1350.5" x2="1519.5" y1="703.5" y2="703.5"/></g><!--class BoardInterface--><g id="elem_BoardInterface"><rect codeLine="66" fill="#FEFECE" filter="url(#fszz7oqi9thd3)" height="48" id="BoardInterface" style="stroke:#A80036;stroke-width:1.0;" width="139" x="1819.5" y="663.5"/><ellipse cx="1834.5" cy="679.5" fill="#B4A7E5" rx="11" ry="11" style="stroke:#A80036;stroke-width:1.0;"/><path d="M1835.4531,676.2813 L1837.1719,676.2813 C1837.5625,676.2813 1837.75,676.25 1837.875,676.1719 C1838.1406,676.0156 1838.2813,675.7344 1838.2813,675.4375 C1838.2813,675.1719 1838.1719,674.9063 1837.9375,674.7344 C1837.7656,674.625 1837.625,674.5938 1837.1719,674.5938 L1832.0313,674.5938 C1831.5938,674.5938 1831.4688,674.6094 1831.3125,674.7031 C1831.0625,674.8594 1830.9063,675.1563 1830.9063,675.4375 C1830.9063,675.7188 1831.0469,675.9688 1831.2656,676.1406 C1831.4219,676.25 1831.6094,676.2813 1832.0313,676.2813 L1833.75,676.2813 L1833.75,682.7969 L1832.0313,682.7969 C1831.5938,682.7969 1831.4688,682.8125 1831.3125,682.9219 C1831.0625,683.0781 1830.9063,683.3594 1830.9063,683.6563 C1830.9063,683.9063 1831.0469,684.1719 1831.2656,684.3281 C1831.4219,684.4531 1831.625,684.5 1832.0313,684.5 L1837.1719,684.5 C1837.9219,684.5 1838.2813,684.2188 1838.2813,683.6563 C1838.2813,683.375 1838.1719,683.125 1837.9375,682.9531 C1837.7656,682.8281 1837.625,682.7969 1837.1719,682.7969 L1835.4531,682.7969 L1835.4531,676.2813 Z " fill="#000000"/><text fill="#000000" font-family="sans-serif" font-size="14" font-style="italic" lengthAdjust="spacing" textLength="107" x="1848.5" y="684.3467">BoardInterface</text><line style="stroke:#A80036;stroke-width:1.0;" x1="1820.5" x2="1957.5" y1="695.5" y2="695.5"/><line style="stroke:#A80036;stroke-width:1.0;" x1="1820.5" x2="1957.5" y1="703.5" y2="703.5"/></g><!--class PersonalGoalCardInterface--><g id="elem_PersonalGoalCardInterface"><rect codeLine="68" fill="#FEFECE" filter="url(#fszz7oqi9thd3)" height="48" id="PersonalGoalCardInterface" style="stroke:#A80036;stroke-width:1.0;" width="224" x="2376" y="663.5"/><ellipse cx="2391" cy="679.5" fill="#B4A7E5" rx="11" ry="11" style="stroke:#A80036;stroke-width:1.0;"/><path d="M2391.9531,676.2813 L2393.6719,676.2813 C2394.0625,676.2813 2394.25,676.25 2394.375,676.1719 C2394.6406,676.0156 2394.7813,675.7344 2394.7813,675.4375 C2394.7813,675.1719 2394.6719,674.9063 2394.4375,674.7344 C2394.2656,674.625 2394.125,674.5938 2393.6719,674.5938 L2388.5313,674.5938 C2388.0938,674.5938 2387.9688,674.6094 2387.8125,674.7031 C2387.5625,674.8594 2387.4063,675.1563 2387.4063,675.4375 C2387.4063,675.7188 2387.5469,675.9688 2387.7656,676.1406 C2387.9219,676.25 2388.1094,676.2813 2388.5313,676.2813 L2390.25,676.2813 L2390.25,682.7969 L2388.5313,682.7969 C2388.0938,682.7969 2387.9688,682.8125 2387.8125,682.9219 C2387.5625,683.0781 2387.4063,683.3594 2387.4063,683.6563 C2387.4063,683.9063 2387.5469,684.1719 2387.7656,684.3281 C2387.9219,684.4531 2388.125,684.5 2388.5313,684.5 L2393.6719,684.5 C2394.4219,684.5 2394.7813,684.2188 2394.7813,683.6563 C2394.7813,683.375 2394.6719,683.125 2394.4375,682.9531 C2394.2656,682.8281 2394.125,682.7969 2393.6719,682.7969 L2391.9531,682.7969 L2391.9531,676.2813 Z " fill="#000000"/><text fill="#000000" font-family="sans-serif" font-size="14" font-style="italic" lengthAdjust="spacing" textLength="192" x="2405" y="684.3467">PersonalGoalCardInterface</text><line style="stroke:#A80036;stroke-width:1.0;" x1="2377" x2="2599" y1="695.5" y2="695.5"/><line style="stroke:#A80036;stroke-width:1.0;" x1="2377" x2="2599" y1="703.5" y2="703.5"/></g><!--class Status--><g id="elem_Status"><rect codeLine="70" fill="#FEFECE" filter="url(#fszz7oqi9thd3)" height="520.6094" id="Status" style="stroke:#A80036;stroke-width:1.0;" width="309" x="299.5" y="427"/><ellipse cx="426.75" cy="443" fill="#EB937F" rx="11" ry="11" style="stroke:#A80036;stroke-width:1.0;"/><path d="M425.5469,443.875 L427,443.875 L427,443.9844 C427,444.3906 427.0313,444.5469 427.1094,444.7031 C427.2656,444.9531 427.5469,445.1094 427.8438,445.1094 C428.0938,445.1094 428.3594,444.9688 428.5156,444.75 C428.6406,444.5938 428.6719,444.4375 428.6719,443.9844 L428.6719,442.0625 C428.6719,441.9063 428.6719,441.8594 428.6563,441.7031 C428.5938,441.2344 428.2813,440.9219 427.8281,440.9219 C427.5781,440.9219 427.3125,441.0625 427.1406,441.2813 C427.0313,441.4531 427,441.6094 427,442.0625 L427,442.1875 L425.5469,442.1875 L425.5469,439.7813 L429.5313,439.7813 L429.5313,440.6406 C429.5313,441.0469 429.5625,441.2188 429.6406,441.375 C429.8125,441.625 430.0938,441.7813 430.375,441.7813 C430.6406,441.7813 430.9063,441.6406 431.0781,441.4219 C431.1875,441.25 431.2188,441.1094 431.2188,440.6406 L431.2188,438.0938 L423.5938,438.0938 C423.1563,438.0938 423.0313,438.1094 422.875,438.2031 C422.625,438.3594 422.4688,438.6563 422.4688,438.9375 C422.4688,439.2188 422.6094,439.4688 422.8281,439.6406 C422.9844,439.75 423.1719,439.7813 423.5938,439.7813 L423.8438,439.7813 L423.8438,446.2969 L423.5938,446.2969 C423.1875,446.2969 423.0313,446.3125 422.875,446.4219 C422.625,446.5938 422.4688,446.8594 422.4688,447.1563 C422.4688,447.4219 422.6094,447.6719 422.8281,447.8281 C422.9688,447.9531 423.2031,448 423.5938,448 L431.5938,448 L431.5938,445.4219 C431.5938,444.9844 431.5625,444.8438 431.4844,444.6875 C431.3125,444.4375 431.0313,444.2813 430.75,444.2813 C430.4844,444.2813 430.2188,444.3906 430.0469,444.6406 C429.9375,444.7969 429.9063,444.9375 429.9063,445.4219 L429.9063,446.2969 L425.5469,446.2969 L425.5469,443.875 Z " fill="#000000"/><text fill="#000000" font-family="sans-serif" font-size="14" lengthAdjust="spacing" textLength="46" x="447.25" y="447.8467">Status</text><line style="stroke:#A80036;stroke-width:1.0;" x1="300.5" x2="607.5" y1="459" y2="459"/><ellipse cx="310.5" cy="472.6484" fill="none" rx="3" ry="3" style="stroke:#038048;stroke-width:1.0;"/><text fill="#000000" font-family="sans-serif" font-size="14" lengthAdjust="spacing" textLength="29" x="319.5" y="475.9951">EOS</text><ellipse cx="310.5" cy="488.9453" fill="none" rx="3" ry="3" style="stroke:#038048;stroke-width:1.0;"/><text fill="#000000" font-family="sans-serif" font-size="14" lengthAdjust="spacing" textLength="132" x="319.5" y="492.292">Sending_Identifier</text><ellipse cx="310.5" cy="505.2422" fill="none" rx="3" ry="3" style="stroke:#038048;stroke-width:1.0;"/><text fill="#000000" font-family="sans-serif" font-size="14" lengthAdjust="spacing" textLength="191" x="319.5" y="508.5889">Request_NumberOfPlayers</text><ellipse cx="310.5" cy="521.5391" fill="none" rx="3" ry="3" style="stroke:#038048;stroke-width:1.0;"/><text fill="#000000" font-family="sans-serif" font-size="14" lengthAdjust="spacing" textLength="202" x="319.5" y="524.8857">Response_NumberOfPlayers</text><ellipse cx="310.5" cy="537.8359" fill="none" rx="3" ry="3" style="stroke:#038048;stroke-width:1.0;"/><text fill="#000000" font-family="sans-serif" font-size="14" lengthAdjust="spacing" textLength="137" x="319.5" y="541.1826">Request_Nickname</text><ellipse cx="310.5" cy="554.1328" fill="none" rx="3" ry="3" style="stroke:#038048;stroke-width:1.0;"/><text fill="#000000" font-family="sans-serif" font-size="14" lengthAdjust="spacing" textLength="148" x="319.5" y="557.4795">Response_Nickname</text><ellipse cx="310.5" cy="570.4297" fill="none" rx="3" ry="3" style="stroke:#038048;stroke-width:1.0;"/><text fill="#000000" font-family="sans-serif" font-size="14" lengthAdjust="spacing" textLength="136" x="319.5" y="573.7764">Accepted_Request</text><ellipse cx="310.5" cy="586.7266" fill="none" rx="3" ry="3" style="stroke:#038048;stroke-width:1.0;"/><text fill="#000000" font-family="sans-serif" font-size="14" lengthAdjust="spacing" textLength="117" x="319.5" y="590.0732">Denied_Request</text><ellipse cx="310.5" cy="603.0234" fill="none" rx="3" ry="3" style="stroke:#038048;stroke-width:1.0;"/><text fill="#000000" font-family="sans-serif" font-size="14" lengthAdjust="spacing" textLength="90" x="319.5" y="606.3701">NotYourTurn</text><ellipse cx="310.5" cy="619.3203" fill="none" rx="3" ry="3" style="stroke:#038048;stroke-width:1.0;"/><text fill="#000000" font-family="sans-serif" font-size="14" lengthAdjust="spacing" textLength="64" x="319.5" y="622.667">YourTurn</text><ellipse cx="310.5" cy="635.6172" fill="none" rx="3" ry="3" style="stroke:#038048;stroke-width:1.0;"/><text fill="#000000" font-family="sans-serif" font-size="14" lengthAdjust="spacing" textLength="104" x="319.5" y="638.9639">Move_Request</text><ellipse cx="310.5" cy="651.9141" fill="none" rx="3" ry="3" style="stroke:#038048;stroke-width:1.0;"/><text fill="#000000" font-family="sans-serif" font-size="14" lengthAdjust="spacing" textLength="112" x="319.5" y="655.2607">SuccessfulMove</text><ellipse cx="310.5" cy="668.2109" fill="none" rx="3" ry="3" style="stroke:#038048;stroke-width:1.0;"/><text fill="#000000" font-family="sans-serif" font-size="14" lengthAdjust="spacing" textLength="80" x="319.5" y="671.5576">FailedMove</text><ellipse cx="310.5" cy="684.5078" fill="none" rx="3" ry="3" style="stroke:#038048;stroke-width:1.0;"/><text fill="#000000" font-family="sans-serif" font-size="14" lengthAdjust="spacing" textLength="100" x="319.5" y="687.8545">SendingBoard</text><ellipse cx="310.5" cy="700.8047" fill="none" rx="3" ry="3" style="stroke:#038048;stroke-width:1.0;"/><text fill="#000000" font-family="sans-serif" font-size="14" lengthAdjust="spacing" textLength="95" x="319.5" y="704.1514">SendingShelf</text><ellipse cx="310.5" cy="717.1016" fill="none" rx="3" ry="3" style="stroke:#038048;stroke-width:1.0;"/><text fill="#000000" font-family="sans-serif" font-size="14" lengthAdjust="spacing" textLength="184" x="319.5" y="720.4482">SendingPersonalGoalCard</text><ellipse cx="310.5" cy="733.3984" fill="none" rx="3" ry="3" style="stroke:#038048;stroke-width:1.0;"/><text fill="#000000" font-family="sans-serif" font-size="14" lengthAdjust="spacing" textLength="283" x="319.5" y="736.7451">SendingCommonGoalCardSpecification</text><ellipse cx="310.5" cy="749.6953" fill="none" rx="3" ry="3" style="stroke:#038048;stroke-width:1.0;"/><text fill="#000000" font-family="sans-serif" font-size="14" lengthAdjust="spacing" textLength="148" x="319.5" y="753.042">AchievementUpdate</text><ellipse cx="310.5" cy="765.9922" fill="none" rx="3" ry="3" style="stroke:#038048;stroke-width:1.0;"/><text fill="#000000" font-family="sans-serif" font-size="14" lengthAdjust="spacing" textLength="125" x="319.5" y="769.3389">PlayerScoreCards</text><ellipse cx="310.5" cy="782.2891" fill="none" rx="3" ry="3" style="stroke:#038048;stroke-width:1.0;"/><text fill="#000000" font-family="sans-serif" font-size="14" lengthAdjust="spacing" textLength="62" x="319.5" y="785.6357">LastTurn</text><ellipse cx="310.5" cy="798.5859" fill="none" rx="3" ry="3" style="stroke:#038048;stroke-width:1.0;"/><text fill="#000000" font-family="sans-serif" font-size="14" lengthAdjust="spacing" textLength="94" x="319.5" y="801.9326">MoveAllowed</text><ellipse cx="310.5" cy="814.8828" fill="none" rx="3" ry="3" style="stroke:#038048;stroke-width:1.0;"/><text fill="#000000" font-family="sans-serif" font-size="14" lengthAdjust="spacing" textLength="120" x="319.5" y="818.2295">MoveNotAllowed</text><ellipse cx="310.5" cy="831.1797" fill="none" rx="3" ry="3" style="stroke:#038048;stroke-width:1.0;"/><text fill="#000000" font-family="sans-serif" font-size="14" lengthAdjust="spacing" textLength="87" x="319.5" y="834.5264">GameEnded</text><ellipse cx="310.5" cy="847.4766" fill="none" rx="3" ry="3" style="stroke:#038048;stroke-width:1.0;"/><text fill="#000000" font-family="sans-serif" font-size="14" lengthAdjust="spacing" textLength="116" x="319.5" y="850.8232">FinalScoreboard</text><ellipse cx="310.5" cy="863.7734" fill="none" rx="3" ry="3" style="stroke:#038048;stroke-width:1.0;"/><text fill="#000000" font-family="sans-serif" font-size="14" lengthAdjust="spacing" textLength="118" x="319.5" y="867.1201">ForcedGameEnd</text><ellipse cx="310.5" cy="880.0703" fill="none" rx="3" ry="3" style="stroke:#038048;stroke-width:1.0;"/><text fill="#000000" font-family="sans-serif" font-size="14" lengthAdjust="spacing" textLength="73" x="319.5" y="883.417">KeepAlive</text><ellipse cx="310.5" cy="896.3672" fill="none" rx="3" ry="3" style="stroke:#038048;stroke-width:1.0;"/><text fill="#000000" font-family="sans-serif" font-size="14" lengthAdjust="spacing" textLength="80" x="319.5" y="899.7139">KATimeout</text><ellipse cx="310.5" cy="912.6641" fill="none" rx="3" ry="3" style="stroke:#038048;stroke-width:1.0;"/><text fill="#000000" font-family="sans-serif" font-size="14" lengthAdjust="spacing" textLength="92" x="319.5" y="916.0107">InvalidStatus</text><ellipse cx="310.5" cy="928.9609" fill="none" rx="3" ry="3" style="stroke:#038048;stroke-width:1.0;"/><text fill="#000000" font-family="sans-serif" font-size="14" lengthAdjust="spacing" textLength="36" x="319.5" y="932.3076">Error</text><line style="stroke:#A80036;stroke-width:1.0;" x1="300.5" x2="607.5" y1="939.6094" y2="939.6094"/></g><!--class SocketServer--><g id="elem_SocketServer"><rect codeLine="18" fill="#FEFECE" filter="url(#fszz7oqi9thd3)" height="48" id="SocketServer" style="stroke:#A80036;stroke-width:1.0;" width="130" x="104" y="1115"/><ellipse cx="119" cy="1131" fill="#ADD1B2" rx="11" ry="11" style="stroke:#A80036;stroke-width:1.0;"/><path d="M121.3438,1126.6719 C120.4063,1126.2344 119.8125,1126.0938 118.9375,1126.0938 C116.3125,1126.0938 114.3125,1128.1719 114.3125,1130.8906 L114.3125,1132.0156 C114.3125,1134.5938 116.4219,1136.4844 119.3125,1136.4844 C120.5313,1136.4844 121.6875,1136.1875 122.4375,1135.6406 C123.0156,1135.2344 123.3438,1134.7813 123.3438,1134.3906 C123.3438,1133.9375 122.9531,1133.5469 122.4844,1133.5469 C122.2656,1133.5469 122.0625,1133.625 121.875,1133.8125 C121.4219,1134.2969 121.4219,1134.2969 121.2344,1134.3906 C120.8125,1134.6563 120.125,1134.7813 119.3594,1134.7813 C117.3125,1134.7813 116.0156,1133.6875 116.0156,1131.9844 L116.0156,1130.8906 C116.0156,1129.1094 117.2656,1127.7969 119,1127.7969 C119.5781,1127.7969 120.1875,1127.9531 120.6563,1128.2031 C121.1406,1128.4844 121.3125,1128.7031 121.4063,1129.1094 C121.4688,1129.5156 121.5,1129.6406 121.6406,1129.7656 C121.7813,1129.9063 122.0156,1130.0156 122.2344,1130.0156 C122.5,1130.0156 122.7656,1129.875 122.9375,1129.6563 C123.0469,1129.5 123.0781,1129.3125 123.0781,1128.8906 L123.0781,1127.4688 C123.0781,1127.0313 123.0625,1126.9063 122.9688,1126.75 C122.8125,1126.4844 122.5313,1126.3438 122.2344,1126.3438 C121.9375,1126.3438 121.7344,1126.4375 121.5156,1126.75 L121.3438,1126.6719 Z " fill="#000000"/><text fill="#000000" font-family="sans-serif" font-size="14" lengthAdjust="spacing" textLength="98" x="133" y="1135.8467">SocketServer</text><line style="stroke:#A80036;stroke-width:1.0;" x1="105" x2="233" y1="1147" y2="1147"/><line style="stroke:#A80036;stroke-width:1.0;" x1="105" x2="233" y1="1155" y2="1155"/></g><!--class RMIServer--><g id="elem_RMIServer"><rect codeLine="22" fill="#FEFECE" filter="url(#fszz7oqi9thd3)" height="48" id="RMIServer" style="stroke:#A80036;stroke-width:1.0;" width="105" x="269.5" y="1115"/><ellipse cx="284.5" cy="1131" fill="#ADD1B2" rx="11" ry="11" style="stroke:#A80036;stroke-width:1.0;"/><path d="M286.8438,1126.6719 C285.9063,1126.2344 285.3125,1126.0938 284.4375,1126.0938 C281.8125,1126.0938 279.8125,1128.1719 279.8125,1130.8906 L279.8125,1132.0156 C279.8125,1134.5938 281.9219,1136.4844 284.8125,1136.4844 C286.0313,1136.4844 287.1875,1136.1875 287.9375,1135.6406 C288.5156,1135.2344 288.8438,1134.7813 288.8438,1134.3906 C288.8438,1133.9375 288.4531,1133.5469 287.9844,1133.5469 C287.7656,1133.5469 287.5625,1133.625 287.375,1133.8125 C286.9219,1134.2969 286.9219,1134.2969 286.7344,1134.3906 C286.3125,1134.6563 285.625,1134.7813 284.8594,1134.7813 C282.8125,1134.7813 281.5156,1133.6875 281.5156,1131.9844 L281.5156,1130.8906 C281.5156,1129.1094 282.7656,1127.7969 284.5,1127.7969 C285.0781,1127.7969 285.6875,1127.9531 286.1563,1128.2031 C286.6406,1128.4844 286.8125,1128.7031 286.9063,1129.1094 C286.9688,1129.5156 287,1129.6406 287.1406,1129.7656 C287.2813,1129.9063 287.5156,1130.0156 287.7344,1130.0156 C288,1130.0156 288.2656,1129.875 288.4375,1129.6563 C288.5469,1129.5 288.5781,1129.3125 288.5781,1128.8906 L288.5781,1127.4688 C288.5781,1127.0313 288.5625,1126.9063 288.4688,1126.75 C288.3125,1126.4844 288.0313,1126.3438 287.7344,1126.3438 C287.4375,1126.3438 287.2344,1126.4375 287.0156,1126.75 L286.8438,1126.6719 Z " fill="#000000"/><text fill="#000000" font-family="sans-serif" font-size="14" lengthAdjust="spacing" textLength="73" x="298.5" y="1135.8467">RMIServer</text><line style="stroke:#A80036;stroke-width:1.0;" x1="270.5" x2="373.5" y1="1147" y2="1147"/><line style="stroke:#A80036;stroke-width:1.0;" x1="270.5" x2="373.5" y1="1155" y2="1155"/></g><!--class ServerManager--><g id="elem_ServerManager"><rect codeLine="48" fill="#FEFECE" filter="url(#fszz7oqi9thd3)" height="48" id="ServerManager" style="stroke:#A80036;stroke-width:1.0;" width="140" x="104" y="1272"/><ellipse cx="119" cy="1288" fill="#ADD1B2" rx="11" ry="11" style="stroke:#A80036;stroke-width:1.0;"/><path d="M121.3438,1283.6719 C120.4063,1283.2344 119.8125,1283.0938 118.9375,1283.0938 C116.3125,1283.0938 114.3125,1285.1719 114.3125,1287.8906 L114.3125,1289.0156 C114.3125,1291.5938 116.4219,1293.4844 119.3125,1293.4844 C120.5313,1293.4844 121.6875,1293.1875 122.4375,1292.6406 C123.0156,1292.2344 123.3438,1291.7813 123.3438,1291.3906 C123.3438,1290.9375 122.9531,1290.5469 122.4844,1290.5469 C122.2656,1290.5469 122.0625,1290.625 121.875,1290.8125 C121.4219,1291.2969 121.4219,1291.2969 121.2344,1291.3906 C120.8125,1291.6563 120.125,1291.7813 119.3594,1291.7813 C117.3125,1291.7813 116.0156,1290.6875 116.0156,1288.9844 L116.0156,1287.8906 C116.0156,1286.1094 117.2656,1284.7969 119,1284.7969 C119.5781,1284.7969 120.1875,1284.9531 120.6563,1285.2031 C121.1406,1285.4844 121.3125,1285.7031 121.4063,1286.1094 C121.4688,1286.5156 121.5,1286.6406 121.6406,1286.7656 C121.7813,1286.9063 122.0156,1287.0156 122.2344,1287.0156 C122.5,1287.0156 122.7656,1286.875 122.9375,1286.6563 C123.0469,1286.5 123.0781,1286.3125 123.0781,1285.8906 L123.0781,1284.4688 C123.0781,1284.0313 123.0625,1283.9063 122.9688,1283.75 C122.8125,1283.4844 122.5313,1283.3438 122.2344,1283.3438 C121.9375,1283.3438 121.7344,1283.4375 121.5156,1283.75 L121.3438,1283.6719 Z " fill="#000000"/><text fill="#000000" font-family="sans-serif" font-size="14" lengthAdjust="spacing" textLength="108" x="133" y="1292.8467">ServerManager</text><line style="stroke:#A80036;stroke-width:1.0;" x1="105" x2="243" y1="1304" y2="1304"/><line style="stroke:#A80036;stroke-width:1.0;" x1="105" x2="243" y1="1312" y2="1312"/></g><!--class MoveIntermediate--><g id="elem_MoveIntermediate"><rect codeLine="52" fill="#FEFECE" filter="url(#fszz7oqi9thd3)" height="48" id="MoveIntermediate" style="stroke:#A80036;stroke-width:1.0;" width="165" x="409.5" y="1115"/><ellipse cx="424.5" cy="1131" fill="#ADD1B2" rx="11" ry="11" style="stroke:#A80036;stroke-width:1.0;"/><path d="M426.8438,1126.6719 C425.9063,1126.2344 425.3125,1126.0938 424.4375,1126.0938 C421.8125,1126.0938 419.8125,1128.1719 419.8125,1130.8906 L419.8125,1132.0156 C419.8125,1134.5938 421.9219,1136.4844 424.8125,1136.4844 C426.0313,1136.4844 427.1875,1136.1875 427.9375,1135.6406 C428.5156,1135.2344 428.8438,1134.7813 428.8438,1134.3906 C428.8438,1133.9375 428.4531,1133.5469 427.9844,1133.5469 C427.7656,1133.5469 427.5625,1133.625 427.375,1133.8125 C426.9219,1134.2969 426.9219,1134.2969 426.7344,1134.3906 C426.3125,1134.6563 425.625,1134.7813 424.8594,1134.7813 C422.8125,1134.7813 421.5156,1133.6875 421.5156,1131.9844 L421.5156,1130.8906 C421.5156,1129.1094 422.7656,1127.7969 424.5,1127.7969 C425.0781,1127.7969 425.6875,1127.9531 426.1563,1128.2031 C426.6406,1128.4844 426.8125,1128.7031 426.9063,1129.1094 C426.9688,1129.5156 427,1129.6406 427.1406,1129.7656 C427.2813,1129.9063 427.5156,1130.0156 427.7344,1130.0156 C428,1130.0156 428.2656,1129.875 428.4375,1129.6563 C428.5469,1129.5 428.5781,1129.3125 428.5781,1128.8906 L428.5781,1127.4688 C428.5781,1127.0313 428.5625,1126.9063 428.4688,1126.75 C428.3125,1126.4844 428.0313,1126.3438 427.7344,1126.3438 C427.4375,1126.3438 427.2344,1126.4375 427.0156,1126.75 L426.8438,1126.6719 Z " fill="#000000"/><text fill="#000000" font-family="sans-serif" font-size="14" lengthAdjust="spacing" textLength="133" x="438.5" y="1135.8467">MoveIntermediate</text><line style="stroke:#A80036;stroke-width:1.0;" x1="410.5" x2="573.5" y1="1147" y2="1147"/><line style="stroke:#A80036;stroke-width:1.0;" x1="410.5" x2="573.5" y1="1155" y2="1155"/></g><!--class Remote--><g id="elem_Remote"><rect fill="#FEFECE" filter="url(#fszz7oqi9thd3)" height="48" id="Remote" style="stroke:#A80036;stroke-width:1.0;" width="90" x="2015" y="127"/><ellipse cx="2030" cy="143" fill="#ADD1B2" rx="11" ry="11" style="stroke:#A80036;stroke-width:1.0;"/><path d="M2032.3438,138.6719 C2031.4063,138.2344 2030.8125,138.0938 2029.9375,138.0938 C2027.3125,138.0938 2025.3125,140.1719 2025.3125,142.8906 L2025.3125,144.0156 C2025.3125,146.5938 2027.4219,148.4844 2030.3125,148.4844 C2031.5313,148.4844 2032.6875,148.1875 2033.4375,147.6406 C2034.0156,147.2344 2034.3438,146.7813 2034.3438,146.3906 C2034.3438,145.9375 2033.9531,145.5469 2033.4844,145.5469 C2033.2656,145.5469 2033.0625,145.625 2032.875,145.8125 C2032.4219,146.2969 2032.4219,146.2969 2032.2344,146.3906 C2031.8125,146.6563 2031.125,146.7813 2030.3594,146.7813 C2028.3125,146.7813 2027.0156,145.6875 2027.0156,143.9844 L2027.0156,142.8906 C2027.0156,141.1094 2028.2656,139.7969 2030,139.7969 C2030.5781,139.7969 2031.1875,139.9531 2031.6563,140.2031 C2032.1406,140.4844 2032.3125,140.7031 2032.4063,141.1094 C2032.4688,141.5156 2032.5,141.6406 2032.6406,141.7656 C2032.7813,141.9063 2033.0156,142.0156 2033.2344,142.0156 C2033.5,142.0156 2033.7656,141.875 2033.9375,141.6563 C2034.0469,141.5 2034.0781,141.3125 2034.0781,140.8906 L2034.0781,139.4688 C2034.0781,139.0313 2034.0625,138.9063 2033.9688,138.75 C2033.8125,138.4844 2033.5313,138.3438 2033.2344,138.3438 C2032.9375,138.3438 2032.7344,138.4375 2032.5156,138.75 L2032.3438,138.6719 Z " fill="#000000"/><text fill="#000000" font-family="sans-serif" font-size="14" lengthAdjust="spacing" textLength="58" x="2044" y="147.8467">Remote</text><line style="stroke:#A80036;stroke-width:1.0;" x1="2016" x2="2104" y1="159" y2="159"/><line style="stroke:#A80036;stroke-width:1.0;" x1="2016" x2="2104" y1="167" y2="167"/></g><!--class UnicastRemoteObject--><g id="elem_UnicastRemoteObject"><rect fill="#FEFECE" filter="url(#fszz7oqi9thd3)" height="48" id="UnicastRemoteObject" style="stroke:#A80036;stroke-width:1.0;" width="191" x="2140.5" y="127"/><ellipse cx="2155.5" cy="143" fill="#ADD1B2" rx="11" ry="11" style="stroke:#A80036;stroke-width:1.0;"/><path d="M2157.8438,138.6719 C2156.9063,138.2344 2156.3125,138.0938 2155.4375,138.0938 C2152.8125,138.0938 2150.8125,140.1719 2150.8125,142.8906 L2150.8125,144.0156 C2150.8125,146.5938 2152.9219,148.4844 2155.8125,148.4844 C2157.0313,148.4844 2158.1875,148.1875 2158.9375,147.6406 C2159.5156,147.2344 2159.8438,146.7813 2159.8438,146.3906 C2159.8438,145.9375 2159.4531,145.5469 2158.9844,145.5469 C2158.7656,145.5469 2158.5625,145.625 2158.375,145.8125 C2157.9219,146.2969 2157.9219,146.2969 2157.7344,146.3906 C2157.3125,146.6563 2156.625,146.7813 2155.8594,146.7813 C2153.8125,146.7813 2152.5156,145.6875 2152.5156,143.9844 L2152.5156,142.8906 C2152.5156,141.1094 2153.7656,139.7969 2155.5,139.7969 C2156.0781,139.7969 2156.6875,139.9531 2157.1563,140.2031 C2157.6406,140.4844 2157.8125,140.7031 2157.9063,141.1094 C2157.9688,141.5156 2158,141.6406 2158.1406,141.7656 C2158.2813,141.9063 2158.5156,142.0156 2158.7344,142.0156 C2159,142.0156 2159.2656,141.875 2159.4375,141.6563 C2159.5469,141.5 2159.5781,141.3125 2159.5781,140.8906 L2159.5781,139.4688 C2159.5781,139.0313 2159.5625,138.9063 2159.4688,138.75 C2159.3125,138.4844 2159.0313,138.3438 2158.7344,138.3438 C2158.4375,138.3438 2158.2344,138.4375 2158.0156,138.75 L2157.8438,138.6719 Z " fill="#000000"/><text fill="#000000" font-family="sans-serif" font-size="14" lengthAdjust="spacing" textLength="159" x="2169.5" y="147.8467">UnicastRemoteObject</text><line style="stroke:#A80036;stroke-width:1.0;" x1="2141.5" x2="2330.5" y1="159" y2="159"/><line style="stroke:#A80036;stroke-width:1.0;" x1="2141.5" x2="2330.5" y1="167" y2="167"/></g><!--class Application--><g id="elem_Application"><rect fill="#FEFECE" filter="url(#fszz7oqi9thd3)" height="48" id="Application" style="stroke:#A80036;stroke-width:1.0;" width="115" x="3375.5" y="663.5"/><ellipse cx="3390.5" cy="679.5" fill="#ADD1B2" rx="11" ry="11" style="stroke:#A80036;stroke-width:1.0;"/><path d="M3392.8438,675.1719 C3391.9063,674.7344 3391.3125,674.5938 3390.4375,674.5938 C3387.8125,674.5938 3385.8125,676.6719 3385.8125,679.3906 L3385.8125,680.5156 C3385.8125,683.0938 3387.9219,684.9844 3390.8125,684.9844 C3392.0313,684.9844 3393.1875,684.6875 3393.9375,684.1406 C3394.5156,683.7344 3394.8438,683.2813 3394.8438,682.8906 C3394.8438,682.4375 3394.4531,682.0469 3393.9844,682.0469 C3393.7656,682.0469 3393.5625,682.125 3393.375,682.3125 C3392.9219,682.7969 3392.9219,682.7969 3392.7344,682.8906 C3392.3125,683.1563 3391.625,683.2813 3390.8594,683.2813 C3388.8125,683.2813 3387.5156,682.1875 3387.5156,680.4844 L3387.5156,679.3906 C3387.5156,677.6094 3388.7656,676.2969 3390.5,676.2969 C3391.0781,676.2969 3391.6875,676.4531 3392.1563,676.7031 C3392.6406,676.9844 3392.8125,677.2031 3392.9063,677.6094 C3392.9688,678.0156 3393,678.1406 3393.1406,678.2656 C3393.2813,678.4063 3393.5156,678.5156 3393.7344,678.5156 C3394,678.5156 3394.2656,678.375 3394.4375,678.1563 C3394.5469,678 3394.5781,677.8125 3394.5781,677.3906 L3394.5781,675.9688 C3394.5781,675.5313 3394.5625,675.4063 3394.4688,675.25 C3394.3125,674.9844 3394.0313,674.8438 3393.7344,674.8438 C3393.4375,674.8438 3393.2344,674.9375 3393.0156,675.25 L3392.8438,675.1719 Z " fill="#000000"/><text fill="#000000" font-family="sans-serif" font-size="14" lengthAdjust="spacing" textLength="83" x="3404.5" y="684.3467">Application</text><line style="stroke:#A80036;stroke-width:1.0;" x1="3376.5" x2="3489.5" y1="695.5" y2="695.5"/><line style="stroke:#A80036;stroke-width:1.0;" x1="3376.5" x2="3489.5" y1="703.5" y2="703.5"/></g><!--reverse link BoardInterface to ClientBoard--><g id="link_BoardInterface_ClientBoard"><path codeLine="103" d="M1892.09,731.938 C1898.76,825.534 1914.27,1043.534 1919.36,1114.918 " fill="none" id="BoardInterface-backto-ClientBoard" style="stroke:#A80036;stroke-width:1.0;stroke-dasharray:7.0,7.0;"/><polygon fill="none" points="1885.09,732.167,1890.65,711.721,1899.06,731.173,1885.09,732.167" style="stroke:#A80036;stroke-width:1.0;"/></g><!--reverse link CommonGoalCardInterface to ClientCommonGoalCard--><g id="link_CommonGoalCardInterface_ClientCommonGoalCard"><path codeLine="104" d="M1675.28,731.642 C1686.71,825.074 1713.43,1043.459 1722.18,1114.918 " fill="none" id="CommonGoalCardInterface-backto-ClientCommonGoalCard" style="stroke:#A80036;stroke-width:1.0;stroke-dasharray:7.0,7.0;"/><polygon fill="none" points="1668.32,732.423,1672.84,711.721,1682.22,730.722,1668.32,732.423" style="stroke:#A80036;stroke-width:1.0;"/></g><!--reverse link Remote to ShelfInterface--><g id="link_Remote_ShelfInterface"><path codeLine="105" d="M2060,195.36 C2060,303.3 2060,581.309 2060,663.368 " fill="none" id="Remote-backto-ShelfInterface" style="stroke:#A80036;stroke-width:1.0;"/><polygon fill="none" points="2053,195.31,2060,175.31,2067,195.31,2053,195.31" style="stroke:#A80036;stroke-width:1.0;"/></g><!--reverse link Remote to ScoreBoardInterface--><g id="link_Remote_ScoreBoardInterface"><path codeLine="106" d="M2080.39,192.83 C2091.27,211.33 2106.12,232.3 2124,247 C2131.08,252.82 2137.04,248.04 2143,255 C2249.44,379.14 2253.69,593.137 2251.98,663.407 " fill="none" id="Remote-backto-ScoreBoardInterface" style="stroke:#A80036;stroke-width:1.0;"/><polygon fill="none" points="2074.17,196.05,2070.7,175.14,2086.45,189.32,2074.17,196.05" style="stroke:#A80036;stroke-width:1.0;"/></g><!--reverse link Remote to RMIControllerInterface--><g id="link_Remote_RMIControllerInterface"><path codeLine="107" d="M1994.58,154.55 C1785.07,163.28 1140.24,194.86 1070,255 C944.487,362.46 948.976,590.31 953.975,663.41 " fill="none" id="Remote-backto-RMIControllerInterface" style="stroke:#A80036;stroke-width:1.0;"/><polygon fill="none" points="1994.6,147.54,2014.87,153.72,1995.17,161.53,1994.6,147.54" style="stroke:#A80036;stroke-width:1.0;"/></g><!--reverse link Remote to ClientStatusInterface--><g id="link_Remote_ClientStatusInterface"><path codeLine="108" d="M1994.63,153.15 C1754.47,157.98 930.253,179.91 842,255 C716.573,361.71 725.168,590.059 731.536,663.347 " fill="none" id="Remote-backto-ClientStatusInterface" style="stroke:#A80036;stroke-width:1.0;"/><polygon fill="none" points="1994.61,146.15,2014.74,152.76,1994.88,160.15,1994.61,146.15" style="stroke:#A80036;stroke-width:1.0;"/></g><!--reverse link ClientStatusInterface to ClientStatus--><g id="link_ClientStatusInterface_ClientStatus"><path codeLine="109" d="M3109.47,1183.29 C3112.43,1212.011 3116.21,1248.573 3118.61,1271.89 " fill="none" id="ClientStatusInterface-backto-ClientStatus" style="stroke:#A80036;stroke-width:1.0;stroke-dasharray:7.0,7.0;"/><polygon fill="none" points="3102.49,1183.818,3107.4,1163.205,3116.41,1182.381,3102.49,1183.818" style="stroke:#A80036;stroke-width:1.0;"/></g><!--reverse link UnicastRemoteObject to ClientStatus--><g id="link_UnicastRemoteObject_ClientStatus"><path codeLine="110" d="M2351.92,152.64 C2650.78,155.51 3429.55,171.02 3507,255 C3615.02,372.13 3574.44,827.641 3507,972 C3436.64,1122.619 3257.67,1227.759 3170.38,1271.831 " fill="none" id="UnicastRemoteObject-backto-ClientStatus" style="stroke:#A80036;stroke-width:1.0;"/><polygon fill="none" points="2351.6,159.64,2331.67,152.46,2351.73,145.64,2351.6,159.64" style="stroke:#A80036;stroke-width:1.0;"/></g><!--reverse link Remote to ObjectCardInterface--><g id="link_Remote_ObjectCardInterface"><path codeLine="111" d="M2076.85,193.68 C2087.26,213.6 2102.75,235.55 2124,247 C2142.59,257.01 2867.45,241.89 2884,255 C3013.22,357.42 3000.55,589.631 2992.85,663.489 " fill="none" id="Remote-backto-ObjectCardInterface" style="stroke:#A80036;stroke-width:1.0;"/><polygon fill="none" points="2070.37,196.35,2068.25,175.26,2083.06,190.43,2070.37,196.35" style="stroke:#A80036;stroke-width:1.0;"/></g><!--reverse link Application to GUI--><g id="link_Application_GUI"><path codeLine="112" d="M3409.11,728.75 C3367.54,794.336 3274.95,921.964 3157,972 C3128.54,984.074 955.641,961.327 931,980 C889.287,1011.609 884.253,1079.084 884.747,1114.767 " fill="none" id="Application-backto-GUI" style="stroke:#A80036;stroke-width:1.0;"/><polygon fill="none" points="3403.22,724.976,3419.69,711.643,3415.13,732.336,3403.22,724.976" style="stroke:#A80036;stroke-width:1.0;"/></g><!--reverse link Remote to StatusIntermediateInterface--><g id="link_Remote_StatusIntermediateInterface"><path codeLine="113" d="M2076.88,193.63 C2087.3,213.54 2102.78,235.49 2124,247 C2148.08,260.06 2595.08,238.58 2617,255 C2751.19,355.53 2754.71,589.007 2752.22,663.335 " fill="none" id="Remote-backto-StatusIntermediateInterface" style="stroke:#A80036;stroke-width:1.0;"/><polygon fill="none" points="2070.4,196.31,2068.27,175.23,2083.09,190.38,2070.4,196.31" style="stroke:#A80036;stroke-width:1.0;"/></g><!--reverse link Remote to MoveIntermediateInterface--><g id="link_Remote_MoveIntermediateInterface"><path codeLine="114" d="M1994.33,152.54 C1834.45,155.18 1430.88,170.3 1332,255 C1205.35,363.48 1198.77,590.16 1200.13,663.249 " fill="none" id="Remote-backto-MoveIntermediateInterface" style="stroke:#A80036;stroke-width:1.0;"/><polygon fill="none" points="1994.68,145.53,2014.77,152.25,1994.88,159.53,1994.68,145.53" style="stroke:#A80036;stroke-width:1.0;"/></g><!--reverse link Remote to CommonGoalCardInterface--><g id="link_Remote_CommonGoalCardInterface"><path codeLine="115" d="M1994.69,161.79 C1936.38,173.88 1852.58,200.04 1802,255 C1689.53,377.21 1672.82,592.927 1670.39,663.471 " fill="none" id="Remote-backto-CommonGoalCardInterface" style="stroke:#A80036;stroke-width:1.0;"/><polygon fill="none" points="1993.58,154.88,2014.54,158.01,1996.2,168.63,1993.58,154.88" style="stroke:#A80036;stroke-width:1.0;"/></g><!--reverse link ScoreCardInterface to ClientScoreCard--><g id="link_ScoreCardInterface_ClientScoreCard"><path codeLine="116" d="M1442.49,731.642 C1458.7,825.074 1496.59,1043.459 1508.99,1114.918 " fill="none" id="ScoreCardInterface-backto-ClientScoreCard" style="stroke:#A80036;stroke-width:1.0;stroke-dasharray:7.0,7.0;"/><polygon fill="none" points="1435.55,732.623,1439.03,711.721,1449.35,730.229,1435.55,732.623" style="stroke:#A80036;stroke-width:1.0;"/></g><!--reverse link RMIClientInterface to RMIClient--><g id="link_RMIClientInterface_RMIClient"><path codeLine="117" d="M739,1183.29 C739,1212.011 739,1248.573 739,1271.89 " fill="none" id="RMIClientInterface-backto-RMIClient" style="stroke:#A80036;stroke-width:1.0;stroke-dasharray:7.0,7.0;"/><polygon fill="none" points="732,1183.205,739,1163.205,746,1183.205,732,1183.205" style="stroke:#A80036;stroke-width:1.0;"/></g><!--reverse link MoveIntermediateInterface to MoveIntermediate--><g id="link_MoveIntermediateInterface_MoveIntermediate"><path codeLine="118" d="M1195.28,731.885 C1184.13,796.953 1152.83,917.937 1070,972 C1049.94,985.089 660.867,970.235 639,980 C575.711,1008.263 527.126,1078.19 505.045,1114.803 " fill="none" id="MoveIntermediateInterface-backto-MoveIntermediate" style="stroke:#A80036;stroke-width:1.0;stroke-dasharray:7.0,7.0;"/><polygon fill="none" points="1188.42,730.468,1198.39,711.77,1202.26,732.604,1188.42,730.468" style="stroke:#A80036;stroke-width:1.0;"/></g><!--reverse link UnicastRemoteObject to MoveIntermediate--><g id="link_UnicastRemoteObject_MoveIntermediate"><path codeLine="119" d="M2351.79,157.5 C2574.63,169.27 3045.54,200.38 3094,255 C3305.48,493.382 3318.96,746.302 3094,972 C3081.96,984.075 654.62,973.167 639,980 C575.325,1007.854 526.745,1078.3 504.818,1114.989 " fill="none" id="UnicastRemoteObject-backto-MoveIntermediate" style="stroke:#A80036;stroke-width:1.0;"/><polygon fill="none" points="2351.27,164.48,2331.66,156.45,2352,150.5,2351.27,164.48" style="stroke:#A80036;stroke-width:1.0;"/></g><!--reverse link Remote to ScoreCardInterface--><g id="link_Remote_ScoreCardInterface"><path codeLine="120" d="M1994.39,156.27 C1869.13,165.77 1602.61,192.9 1538,255 C1419.87,368.55 1426.95,591.385 1432.71,663.436 " fill="none" id="Remote-backto-ScoreCardInterface" style="stroke:#A80036;stroke-width:1.0;"/><polygon fill="none" points="1994.19,149.26,2014.65,154.79,1995.21,163.23,1994.19,149.26" style="stroke:#A80036;stroke-width:1.0;"/></g><!--reverse link ObjectCardInterface to ClientObjectCard--><g id="link_ObjectCardInterface_ClientObjectCard"><path codeLine="121" d="M2987.73,731.982 C2981.82,796.213 2960.52,914.99 2884,972 C2862.92,987.703 2788.46,966.347 2766,980 C2715.54,1010.68 2688.02,1078.881 2676.53,1114.817 " fill="none" id="ObjectCardInterface-backto-ClientObjectCard" style="stroke:#A80036;stroke-width:1.0;stroke-dasharray:7.0,7.0;"/><polygon fill="none" points="2980.78,731.149,2989.25,711.728,2994.74,732.195,2980.78,731.149" style="stroke:#A80036;stroke-width:1.0;"/></g><!--reverse link ShelfInterface to ClientShelf--><g id="link_ShelfInterface_ClientShelf"><path codeLine="122" d="M2061.06,731.938 C2063.35,825.534 2068.69,1043.534 2070.44,1114.918 " fill="none" id="ShelfInterface-backto-ClientShelf" style="stroke:#A80036;stroke-width:1.0;stroke-dasharray:7.0,7.0;"/><polygon fill="none" points="2054.06,731.886,2060.57,711.721,2068.06,731.543,2054.06,731.886" style="stroke:#A80036;stroke-width:1.0;"/></g><!--reverse link PersonalGoalCardInterface to ClientPersonalGoalCard--><g id="link_PersonalGoalCardInterface_ClientPersonalGoalCard"><path codeLine="123" d="M2484.91,731.938 C2478.24,825.534 2462.73,1043.534 2457.64,1114.918 " fill="none" id="PersonalGoalCardInterface-backto-ClientPersonalGoalCard" style="stroke:#A80036;stroke-width:1.0;stroke-dasharray:7.0,7.0;"/><polygon fill="none" points="2477.94,731.173,2486.35,711.721,2491.91,732.167,2477.94,731.173" style="stroke:#A80036;stroke-width:1.0;"/></g><!--reverse link ScoreBoardInterface to ClientScoreboard--><g id="link_ScoreBoardInterface_ClientScoreboard"><path codeLine="124" d="M2250.03,731.938 C2247.95,825.534 2243.1,1043.534 2241.51,1114.918 " fill="none" id="ScoreBoardInterface-backto-ClientScoreboard" style="stroke:#A80036;stroke-width:1.0;stroke-dasharray:7.0,7.0;"/><polygon fill="none" points="2243.04,731.56,2250.48,711.721,2257.04,731.871,2243.04,731.56" style="stroke:#A80036;stroke-width:1.0;"/></g><!--reverse link Remote to BoardInterface--><g id="link_Remote_BoardInterface"><path codeLine="125" d="M2021.71,189.74 C2005.28,208 1987.29,231.12 1976,255 C1907.58,399.75 1892.88,596.564 1889.8,663.289 " fill="none" id="Remote-backto-BoardInterface" style="stroke:#A80036;stroke-width:1.0;"/><polygon fill="none" points="2016.75,184.8,2035.56,175.04,2026.94,194.4,2016.75,184.8" style="stroke:#A80036;stroke-width:1.0;"/></g><!--reverse link Remote to PersonalGoalCardInterface--><g id="link_Remote_PersonalGoalCardInterface"><path codeLine="126" d="M2076.97,193.48 C2087.41,213.34 2102.89,235.3 2124,247 C2146.75,259.61 2337.39,239.13 2358,255 C2490.51,357.03 2492.37,589.502 2489.37,663.457 " fill="none" id="Remote-backto-PersonalGoalCardInterface" style="stroke:#A80036;stroke-width:1.0;"/><polygon fill="none" points="2070.51,196.2,2068.33,175.13,2083.18,190.24,2070.51,196.2" style="stroke:#A80036;stroke-width:1.0;"/></g><!--SRC=[fLTDSvim4BthLp2zzD09lw0NGXFNapZs6ASpFMKKM2TAX4GbuJJJzhzN7zX0Z6q9dz0AlPNsyNQrV8u-lGEb_ErJf9wX12HV2Oi4bu1GJh6K4L5nnIafIKpOatoBKqg0gUOnumNGPdp9iIYYF-XVA33bPSdPX6EQRZqGfa2iSGxxNkpYE7i6kfxkLlbXSYx0dZ8Gk9nDKywKu9I22CIw43E5LItxq42Md8iZo0p41aISyVmLb3DEx_E3m5iygwaY5GLZdDv0iz7nVfA0-UCBv2hTOpqm_1dVUE1SyCwmgu7LfVycxLbNxvNPxaiKfSagCy_B-Vp63YR9xCeEhfVRqMevNtoVkl7YDhdJY1C7dTnFFKNRAgU4Wc05WG8qn9q1xoVdUGes-PSUBn9R4Tl733FyvADYaw3jDp_gkKtaFMO2giZPNBHA6yMagNvZW0iGaZDCUyLsJ9tFgdD4yCYz2_sOUlqnoZvyk2Hqiyqb_jNSvdC6hD1h7gQ5FZrP4n1cTWc_Qf3guQuk7q7CrmkAt_MkxfMiE9Cm_Aw1aVoLONtTzjPt9fCyXqf1yT0WpDmtOAG_SyVLJrwBLIsOCRjZ8-xkqgpM7gLSrzIyiUKB4mh5rch2j7HtRAkqZlsHsiwhVgN8AiWrMpbMX3CNqJE1ZMuncBgl2frkjbXQQdOfPJcwnL9reqXCUmB5rjGnTsOccgyhLZZZckYJjGApKrpaK3IhpCGDG9LGueA-ILQa15vRXgPiWoafd0Ii08JWGWi68JzjVlqRnu5fX0AhRjWMVI_e1MzmB3Hi2ILNnjd5XLz_5GRTRxE2yCFTLf2BmQOB1RPQOrbl1BGxhtGNpptJoI2LExqh_mTYy7NiGSH0ysNnwzynhYhQf6USjEEZPz9TIvWK3ZSlGNuEzZ1XgXXEAkH_qGSAOUi0dMfR_7ROBKV1hTwWszCTqNWHX_ZshIbUNsteToFiixKUaD_FPw0gx8qQtBc4RR9tJGVy4eyGkRjkGpxe6VV3GOx-0m00]--></g></svg>