<?xml version="1.0" encoding="us-ascii" standalone="no"?><svg xmlns="http://www.w3.org/2000/svg" xmlns:xlink="http://www.w3.org/1999/xlink" contentStyleType="text/css" height="759px" preserveAspectRatio="none" style="width:2258px;height:759px;background:#FFFFFF;" version="1.1" viewBox="0 0 2258 759" width="2258px" zoomAndPan="magnify"><defs><filter height="300%" id="fz42mrw5jpyih" width="300%" x="-1" y="-1"><feGaussianBlur result="blurOut" stdDeviation="2.0"/><feColorMatrix in="blurOut" result="blurOut2" type="matrix" values="0 0 0 0 0 0 0 0 0 0 0 0 0 0 0 0 0 0 .4 0"/><feOffset dx="4.0" dy="4.0" in="blurOut2" result="blurOut3"/><feBlend in="SourceGraphic" in2="blurOut3" mode="normal"/></filter></defs><g><!--cluster it--><g id="cluster_it"><polygon fill="none" filter="url(#fz42mrw5jpyih)" points="16,6,35,6,42,28.2969,1897,28.2969,1897,750,16,750,16,6" style="stroke:#000000;stroke-width:1.5;"/><line style="stroke:#000000;stroke-width:1.5;" x1="16" x2="42" y1="28.2969" y2="28.2969"/><text fill="#000000" font-family="sans-serif" font-size="14" font-weight="bold" lengthAdjust="spacing" textLength="13" x="20" y="20.9951">it</text></g><!--cluster polimi--><g id="cluster_polimi"><polygon fill="none" filter="url(#fz42mrw5jpyih)" points="40,49,96,49,103,71.2969,1873,71.2969,1873,726,40,726,40,49" style="stroke:#000000;stroke-width:1.5;"/><line style="stroke:#000000;stroke-width:1.5;" x1="40" x2="103" y1="71.2969" y2="71.2969"/><text fill="#000000" font-family="sans-serif" font-size="14" font-weight="bold" lengthAdjust="spacing" textLength="50" x="44" y="63.9951">polimi</text></g><!--cluster ingsw--><g id="cluster_ingsw"><polygon fill="none" filter="url(#fz42mrw5jpyih)" points="64,92,117,92,124,114.2969,1849,114.2969,1849,702,64,702,64,92" style="stroke:#000000;stroke-width:1.5;"/><line style="stroke:#000000;stroke-width:1.5;" x1="64" x2="124" y1="114.2969" y2="114.2969"/><text fill="#000000" font-family="sans-serif" font-size="14" font-weight="bold" lengthAdjust="spacing" textLength="47" x="68" y="106.9951">ingsw</text></g><!--cluster Server--><g id="cluster_Server"><polygon fill="none" filter="url(#fz42mrw5jpyih)" points="88,306,145,306,152,328.2969,1825,328.2969,1825,678,88,678,88,306" style="stroke:#000000;stroke-width:1.5;"/><line style="stroke:#000000;stroke-width:1.5;" x1="88" x2="152" y1="328.2969" y2="328.2969"/><text fill="#000000" font-family="sans-serif" font-size="14" font-weight="bold" lengthAdjust="spacing" textLength="51" x="92" y="320.9951">Server</text></g><!--cluster Model--><g id="cluster_Model"><polygon fill="none" filter="url(#fz42mrw5jpyih)" points="421,349,475,349,482,371.2969,1801,371.2969,1801,654,421,654,421,349" style="stroke:#000000;stroke-width:1.5;"/><line style="stroke:#000000;stroke-width:1.5;" x1="421" x2="482" y1="371.2969" y2="371.2969"/><text fill="#000000" font-family="sans-serif" font-size="14" font-weight="bold" lengthAdjust="spacing" textLength="48" x="425" y="363.9951">Model</text></g><!--cluster Controller--><g id="cluster_Controller"><polygon fill="none" filter="url(#fz42mrw5jpyih)" points="112,398,199,398,206,420.2969,397,420.2969,397,497,112,497,112,398" style="stroke:#000000;stroke-width:1.5;"/><line style="stroke:#000000;stroke-width:1.5;" x1="112" x2="206" y1="420.2969" y2="420.2969"/><text fill="#000000" font-family="sans-serif" font-size="14" font-weight="bold" lengthAdjust="spacing" textLength="81" x="116" y="412.9951">Controller</text></g><!--cluster Common--><g id="cluster_Common"><polygon fill="none" filter="url(#fz42mrw5jpyih)" points="190,135,266,135,273,157.2969,1694,157.2969,1694,234,190,234,190,135" style="stroke:#000000;stroke-width:1.5;"/><line style="stroke:#000000;stroke-width:1.5;" x1="190" x2="273" y1="157.2969" y2="157.2969"/><text fill="#000000" font-family="sans-serif" font-size="14" font-weight="bold" lengthAdjust="spacing" textLength="70" x="194" y="149.9951">Common</text></g><!--cluster java--><g id="cluster_java"><polygon fill="none" filter="url(#fz42mrw5jpyih)" points="1921,49,1961,49,1968,71.2969,2241,71.2969,2241,282,1921,282,1921,49" style="stroke:#000000;stroke-width:1.5;"/><line style="stroke:#000000;stroke-width:1.5;" x1="1921" x2="1968" y1="71.2969" y2="71.2969"/><text fill="#000000" font-family="sans-serif" font-size="14" font-weight="bold" lengthAdjust="spacing" textLength="34" x="1925" y="63.9951">java</text></g><!--cluster rmi--><g id="cluster_rmi"><polygon fill="none" filter="url(#fz42mrw5jpyih)" points="1945,92,1978,92,1985,114.2969,2217,114.2969,2217,258,1945,258,1945,92" style="stroke:#000000;stroke-width:1.5;"/><line style="stroke:#000000;stroke-width:1.5;" x1="1945" x2="1985" y1="114.2969" y2="114.2969"/><text fill="#000000" font-family="sans-serif" font-size="14" font-weight="bold" lengthAdjust="spacing" textLength="27" x="1949" y="106.9951">rmi</text></g><!--cluster server--><g id="cluster_server"><polygon fill="none" filter="url(#fz42mrw5jpyih)" points="1969,135,2025,135,2032,157.2969,2193,157.2969,2193,234,1969,234,1969,135" style="stroke:#000000;stroke-width:1.5;"/><line style="stroke:#000000;stroke-width:1.5;" x1="1969" x2="2032" y1="157.2969" y2="157.2969"/><text fill="#000000" font-family="sans-serif" font-size="14" font-weight="bold" lengthAdjust="spacing" textLength="50" x="1973" y="149.9951">server</text></g><!--class PersonalGoalCard--><g id="elem_PersonalGoalCard"><rect codeLine="4" fill="#FEFECE" filter="url(#fz42mrw5jpyih)" height="48" id="PersonalGoalCard" style="stroke:#A80036;stroke-width:1.0;" width="158" x="1184" y="433"/><ellipse cx="1199" cy="449" fill="#ADD1B2" rx="11" ry="11" style="stroke:#A80036;stroke-width:1.0;"/><path d="M1201.3438,444.6719 C1200.4063,444.2344 1199.8125,444.0938 1198.9375,444.0938 C1196.3125,444.0938 1194.3125,446.1719 1194.3125,448.8906 L1194.3125,450.0156 C1194.3125,452.5938 1196.4219,454.4844 1199.3125,454.4844 C1200.5313,454.4844 1201.6875,454.1875 1202.4375,453.6406 C1203.0156,453.2344 1203.3438,452.7813 1203.3438,452.3906 C1203.3438,451.9375 1202.9531,451.5469 1202.4844,451.5469 C1202.2656,451.5469 1202.0625,451.625 1201.875,451.8125 C1201.4219,452.2969 1201.4219,452.2969 1201.2344,452.3906 C1200.8125,452.6563 1200.125,452.7813 1199.3594,452.7813 C1197.3125,452.7813 1196.0156,451.6875 1196.0156,449.9844 L1196.0156,448.8906 C1196.0156,447.1094 1197.2656,445.7969 1199,445.7969 C1199.5781,445.7969 1200.1875,445.9531 1200.6563,446.2031 C1201.1406,446.4844 1201.3125,446.7031 1201.4063,447.1094 C1201.4688,447.5156 1201.5,447.6406 1201.6406,447.7656 C1201.7813,447.9063 1202.0156,448.0156 1202.2344,448.0156 C1202.5,448.0156 1202.7656,447.875 1202.9375,447.6563 C1203.0469,447.5 1203.0781,447.3125 1203.0781,446.8906 L1203.0781,445.4688 C1203.0781,445.0313 1203.0625,444.9063 1202.9688,444.75 C1202.8125,444.4844 1202.5313,444.3438 1202.2344,444.3438 C1201.9375,444.3438 1201.7344,444.4375 1201.5156,444.75 L1201.3438,444.6719 Z " fill="#000000"/><text fill="#000000" font-family="sans-serif" font-size="14" lengthAdjust="spacing" textLength="126" x="1213" y="453.8467">PersonalGoalCard</text><line style="stroke:#A80036;stroke-width:1.0;" x1="1185" x2="1341" y1="465" y2="465"/><line style="stroke:#A80036;stroke-width:1.0;" x1="1185" x2="1341" y1="473" y2="473"/></g><!--class ObjectCard--><g id="elem_ObjectCard"><rect codeLine="6" fill="#FEFECE" filter="url(#fz42mrw5jpyih)" height="48" id="ObjectCard" style="stroke:#A80036;stroke-width:1.0;" width="114" x="437" y="433"/><ellipse cx="452" cy="449" fill="#ADD1B2" rx="11" ry="11" style="stroke:#A80036;stroke-width:1.0;"/><path d="M454.3438,444.6719 C453.4063,444.2344 452.8125,444.0938 451.9375,444.0938 C449.3125,444.0938 447.3125,446.1719 447.3125,448.8906 L447.3125,450.0156 C447.3125,452.5938 449.4219,454.4844 452.3125,454.4844 C453.5313,454.4844 454.6875,454.1875 455.4375,453.6406 C456.0156,453.2344 456.3438,452.7813 456.3438,452.3906 C456.3438,451.9375 455.9531,451.5469 455.4844,451.5469 C455.2656,451.5469 455.0625,451.625 454.875,451.8125 C454.4219,452.2969 454.4219,452.2969 454.2344,452.3906 C453.8125,452.6563 453.125,452.7813 452.3594,452.7813 C450.3125,452.7813 449.0156,451.6875 449.0156,449.9844 L449.0156,448.8906 C449.0156,447.1094 450.2656,445.7969 452,445.7969 C452.5781,445.7969 453.1875,445.9531 453.6563,446.2031 C454.1406,446.4844 454.3125,446.7031 454.4063,447.1094 C454.4688,447.5156 454.5,447.6406 454.6406,447.7656 C454.7813,447.9063 455.0156,448.0156 455.2344,448.0156 C455.5,448.0156 455.7656,447.875 455.9375,447.6563 C456.0469,447.5 456.0781,447.3125 456.0781,446.8906 L456.0781,445.4688 C456.0781,445.0313 456.0625,444.9063 455.9688,444.75 C455.8125,444.4844 455.5313,444.3438 455.2344,444.3438 C454.9375,444.3438 454.7344,444.4375 454.5156,444.75 L454.3438,444.6719 Z " fill="#000000"/><text fill="#000000" font-family="sans-serif" font-size="14" lengthAdjust="spacing" textLength="82" x="466" y="453.8467">ObjectCard</text><line style="stroke:#A80036;stroke-width:1.0;" x1="438" x2="550" y1="465" y2="465"/><line style="stroke:#A80036;stroke-width:1.0;" x1="438" x2="550" y1="473" y2="473"/></g><!--class ScoreCard--><g id="elem_ScoreCard"><rect codeLine="8" fill="#FEFECE" filter="url(#fz42mrw5jpyih)" height="48" id="ScoreCard" style="stroke:#A80036;stroke-width:1.0;" width="106" x="1043" y="433"/><ellipse cx="1058" cy="449" fill="#ADD1B2" rx="11" ry="11" style="stroke:#A80036;stroke-width:1.0;"/><path d="M1060.3438,444.6719 C1059.4063,444.2344 1058.8125,444.0938 1057.9375,444.0938 C1055.3125,444.0938 1053.3125,446.1719 1053.3125,448.8906 L1053.3125,450.0156 C1053.3125,452.5938 1055.4219,454.4844 1058.3125,454.4844 C1059.5313,454.4844 1060.6875,454.1875 1061.4375,453.6406 C1062.0156,453.2344 1062.3438,452.7813 1062.3438,452.3906 C1062.3438,451.9375 1061.9531,451.5469 1061.4844,451.5469 C1061.2656,451.5469 1061.0625,451.625 1060.875,451.8125 C1060.4219,452.2969 1060.4219,452.2969 1060.2344,452.3906 C1059.8125,452.6563 1059.125,452.7813 1058.3594,452.7813 C1056.3125,452.7813 1055.0156,451.6875 1055.0156,449.9844 L1055.0156,448.8906 C1055.0156,447.1094 1056.2656,445.7969 1058,445.7969 C1058.5781,445.7969 1059.1875,445.9531 1059.6563,446.2031 C1060.1406,446.4844 1060.3125,446.7031 1060.4063,447.1094 C1060.4688,447.5156 1060.5,447.6406 1060.6406,447.7656 C1060.7813,447.9063 1061.0156,448.0156 1061.2344,448.0156 C1061.5,448.0156 1061.7656,447.875 1061.9375,447.6563 C1062.0469,447.5 1062.0781,447.3125 1062.0781,446.8906 L1062.0781,445.4688 C1062.0781,445.0313 1062.0625,444.9063 1061.9688,444.75 C1061.8125,444.4844 1061.5313,444.3438 1061.2344,444.3438 C1060.9375,444.3438 1060.7344,444.4375 1060.5156,444.75 L1060.3438,444.6719 Z " fill="#000000"/><text fill="#000000" font-family="sans-serif" font-size="14" lengthAdjust="spacing" textLength="74" x="1072" y="453.8467">ScoreCard</text><line style="stroke:#A80036;stroke-width:1.0;" x1="1044" x2="1148" y1="465" y2="465"/><line style="stroke:#A80036;stroke-width:1.0;" x1="1044" x2="1148" y1="473" y2="473"/></g><!--class Board--><g id="elem_Board"><rect codeLine="10" fill="#FEFECE" filter="url(#fz42mrw5jpyih)" height="48" id="Board" style="stroke:#A80036;stroke-width:1.0;" width="74" x="934" y="433"/><ellipse cx="949" cy="449" fill="#ADD1B2" rx="11" ry="11" style="stroke:#A80036;stroke-width:1.0;"/><path d="M951.3438,444.6719 C950.4063,444.2344 949.8125,444.0938 948.9375,444.0938 C946.3125,444.0938 944.3125,446.1719 944.3125,448.8906 L944.3125,450.0156 C944.3125,452.5938 946.4219,454.4844 949.3125,454.4844 C950.5313,454.4844 951.6875,454.1875 952.4375,453.6406 C953.0156,453.2344 953.3438,452.7813 953.3438,452.3906 C953.3438,451.9375 952.9531,451.5469 952.4844,451.5469 C952.2656,451.5469 952.0625,451.625 951.875,451.8125 C951.4219,452.2969 951.4219,452.2969 951.2344,452.3906 C950.8125,452.6563 950.125,452.7813 949.3594,452.7813 C947.3125,452.7813 946.0156,451.6875 946.0156,449.9844 L946.0156,448.8906 C946.0156,447.1094 947.2656,445.7969 949,445.7969 C949.5781,445.7969 950.1875,445.9531 950.6563,446.2031 C951.1406,446.4844 951.3125,446.7031 951.4063,447.1094 C951.4688,447.5156 951.5,447.6406 951.6406,447.7656 C951.7813,447.9063 952.0156,448.0156 952.2344,448.0156 C952.5,448.0156 952.7656,447.875 952.9375,447.6563 C953.0469,447.5 953.0781,447.3125 953.0781,446.8906 L953.0781,445.4688 C953.0781,445.0313 953.0625,444.9063 952.9688,444.75 C952.8125,444.4844 952.5313,444.3438 952.2344,444.3438 C951.9375,444.3438 951.7344,444.4375 951.5156,444.75 L951.3438,444.6719 Z " fill="#000000"/><text fill="#000000" font-family="sans-serif" font-size="14" lengthAdjust="spacing" textLength="42" x="963" y="453.8467">Board</text><line style="stroke:#A80036;stroke-width:1.0;" x1="935" x2="1007" y1="465" y2="465"/><line style="stroke:#A80036;stroke-width:1.0;" x1="935" x2="1007" y1="473" y2="473"/></g><!--class BoardSpace--><g id="elem_BoardSpace"><rect codeLine="12" fill="#FEFECE" filter="url(#fz42mrw5jpyih)" height="48" id="BoardSpace" style="stroke:#A80036;stroke-width:1.0;" width="118" x="1482" y="433"/><ellipse cx="1497" cy="449" fill="#ADD1B2" rx="11" ry="11" style="stroke:#A80036;stroke-width:1.0;"/><path d="M1499.3438,444.6719 C1498.4063,444.2344 1497.8125,444.0938 1496.9375,444.0938 C1494.3125,444.0938 1492.3125,446.1719 1492.3125,448.8906 L1492.3125,450.0156 C1492.3125,452.5938 1494.4219,454.4844 1497.3125,454.4844 C1498.5313,454.4844 1499.6875,454.1875 1500.4375,453.6406 C1501.0156,453.2344 1501.3438,452.7813 1501.3438,452.3906 C1501.3438,451.9375 1500.9531,451.5469 1500.4844,451.5469 C1500.2656,451.5469 1500.0625,451.625 1499.875,451.8125 C1499.4219,452.2969 1499.4219,452.2969 1499.2344,452.3906 C1498.8125,452.6563 1498.125,452.7813 1497.3594,452.7813 C1495.3125,452.7813 1494.0156,451.6875 1494.0156,449.9844 L1494.0156,448.8906 C1494.0156,447.1094 1495.2656,445.7969 1497,445.7969 C1497.5781,445.7969 1498.1875,445.9531 1498.6563,446.2031 C1499.1406,446.4844 1499.3125,446.7031 1499.4063,447.1094 C1499.4688,447.5156 1499.5,447.6406 1499.6406,447.7656 C1499.7813,447.9063 1500.0156,448.0156 1500.2344,448.0156 C1500.5,448.0156 1500.7656,447.875 1500.9375,447.6563 C1501.0469,447.5 1501.0781,447.3125 1501.0781,446.8906 L1501.0781,445.4688 C1501.0781,445.0313 1501.0625,444.9063 1500.9688,444.75 C1500.8125,444.4844 1500.5313,444.3438 1500.2344,444.3438 C1499.9375,444.3438 1499.7344,444.4375 1499.5156,444.75 L1499.3438,444.6719 Z " fill="#000000"/><text fill="#000000" font-family="sans-serif" font-size="14" lengthAdjust="spacing" textLength="86" x="1511" y="453.8467">BoardSpace</text><line style="stroke:#A80036;stroke-width:1.0;" x1="1483" x2="1599" y1="465" y2="465"/><line style="stroke:#A80036;stroke-width:1.0;" x1="1483" x2="1599" y1="473" y2="473"/></g><!--class Scoreboard--><g id="elem_Scoreboard"><rect codeLine="16" fill="#FEFECE" filter="url(#fz42mrw5jpyih)" height="48" id="Scoreboard" style="stroke:#A80036;stroke-width:1.0;" width="115" x="783.5" y="433"/><ellipse cx="798.5" cy="449" fill="#ADD1B2" rx="11" ry="11" style="stroke:#A80036;stroke-width:1.0;"/><path d="M800.8438,444.6719 C799.9063,444.2344 799.3125,444.0938 798.4375,444.0938 C795.8125,444.0938 793.8125,446.1719 793.8125,448.8906 L793.8125,450.0156 C793.8125,452.5938 795.9219,454.4844 798.8125,454.4844 C800.0313,454.4844 801.1875,454.1875 801.9375,453.6406 C802.5156,453.2344 802.8438,452.7813 802.8438,452.3906 C802.8438,451.9375 802.4531,451.5469 801.9844,451.5469 C801.7656,451.5469 801.5625,451.625 801.375,451.8125 C800.9219,452.2969 800.9219,452.2969 800.7344,452.3906 C800.3125,452.6563 799.625,452.7813 798.8594,452.7813 C796.8125,452.7813 795.5156,451.6875 795.5156,449.9844 L795.5156,448.8906 C795.5156,447.1094 796.7656,445.7969 798.5,445.7969 C799.0781,445.7969 799.6875,445.9531 800.1563,446.2031 C800.6406,446.4844 800.8125,446.7031 800.9063,447.1094 C800.9688,447.5156 801,447.6406 801.1406,447.7656 C801.2813,447.9063 801.5156,448.0156 801.7344,448.0156 C802,448.0156 802.2656,447.875 802.4375,447.6563 C802.5469,447.5 802.5781,447.3125 802.5781,446.8906 L802.5781,445.4688 C802.5781,445.0313 802.5625,444.9063 802.4688,444.75 C802.3125,444.4844 802.0313,444.3438 801.7344,444.3438 C801.4375,444.3438 801.2344,444.4375 801.0156,444.75 L800.8438,444.6719 Z " fill="#000000"/><text fill="#000000" font-family="sans-serif" font-size="14" lengthAdjust="spacing" textLength="83" x="812.5" y="453.8467">Scoreboard</text><line style="stroke:#A80036;stroke-width:1.0;" x1="784.5" x2="897.5" y1="465" y2="465"/><line style="stroke:#A80036;stroke-width:1.0;" x1="784.5" x2="897.5" y1="473" y2="473"/></g><!--class CommonGoalCard--><g id="elem_CommonGoalCard"><rect codeLine="18" fill="#FEFECE" filter="url(#fz42mrw5jpyih)" height="48" id="CommonGoalCard" style="stroke:#A80036;stroke-width:1.0;" width="162" x="586" y="433"/><ellipse cx="601" cy="449" fill="#ADD1B2" rx="11" ry="11" style="stroke:#A80036;stroke-width:1.0;"/><path d="M603.3438,444.6719 C602.4063,444.2344 601.8125,444.0938 600.9375,444.0938 C598.3125,444.0938 596.3125,446.1719 596.3125,448.8906 L596.3125,450.0156 C596.3125,452.5938 598.4219,454.4844 601.3125,454.4844 C602.5313,454.4844 603.6875,454.1875 604.4375,453.6406 C605.0156,453.2344 605.3438,452.7813 605.3438,452.3906 C605.3438,451.9375 604.9531,451.5469 604.4844,451.5469 C604.2656,451.5469 604.0625,451.625 603.875,451.8125 C603.4219,452.2969 603.4219,452.2969 603.2344,452.3906 C602.8125,452.6563 602.125,452.7813 601.3594,452.7813 C599.3125,452.7813 598.0156,451.6875 598.0156,449.9844 L598.0156,448.8906 C598.0156,447.1094 599.2656,445.7969 601,445.7969 C601.5781,445.7969 602.1875,445.9531 602.6563,446.2031 C603.1406,446.4844 603.3125,446.7031 603.4063,447.1094 C603.4688,447.5156 603.5,447.6406 603.6406,447.7656 C603.7813,447.9063 604.0156,448.0156 604.2344,448.0156 C604.5,448.0156 604.7656,447.875 604.9375,447.6563 C605.0469,447.5 605.0781,447.3125 605.0781,446.8906 L605.0781,445.4688 C605.0781,445.0313 605.0625,444.9063 604.9688,444.75 C604.8125,444.4844 604.5313,444.3438 604.2344,444.3438 C603.9375,444.3438 603.7344,444.4375 603.5156,444.75 L603.3438,444.6719 Z " fill="#000000"/><text fill="#000000" font-family="sans-serif" font-size="14" lengthAdjust="spacing" textLength="130" x="615" y="453.8467">CommonGoalCard</text><line style="stroke:#A80036;stroke-width:1.0;" x1="587" x2="747" y1="465" y2="465"/><line style="stroke:#A80036;stroke-width:1.0;" x1="587" x2="747" y1="473" y2="473"/></g><!--class EndGameCard--><g id="elem_EndGameCard"><rect codeLine="20" fill="#FEFECE" filter="url(#fz42mrw5jpyih)" height="48" id="EndGameCard" style="stroke:#A80036;stroke-width:1.0;" width="134" x="1029" y="590"/><ellipse cx="1044" cy="606" fill="#ADD1B2" rx="11" ry="11" style="stroke:#A80036;stroke-width:1.0;"/><path d="M1046.3438,601.6719 C1045.4063,601.2344 1044.8125,601.0938 1043.9375,601.0938 C1041.3125,601.0938 1039.3125,603.1719 1039.3125,605.8906 L1039.3125,607.0156 C1039.3125,609.5938 1041.4219,611.4844 1044.3125,611.4844 C1045.5313,611.4844 1046.6875,611.1875 1047.4375,610.6406 C1048.0156,610.2344 1048.3438,609.7813 1048.3438,609.3906 C1048.3438,608.9375 1047.9531,608.5469 1047.4844,608.5469 C1047.2656,608.5469 1047.0625,608.625 1046.875,608.8125 C1046.4219,609.2969 1046.4219,609.2969 1046.2344,609.3906 C1045.8125,609.6563 1045.125,609.7813 1044.3594,609.7813 C1042.3125,609.7813 1041.0156,608.6875 1041.0156,606.9844 L1041.0156,605.8906 C1041.0156,604.1094 1042.2656,602.7969 1044,602.7969 C1044.5781,602.7969 1045.1875,602.9531 1045.6563,603.2031 C1046.1406,603.4844 1046.3125,603.7031 1046.4063,604.1094 C1046.4688,604.5156 1046.5,604.6406 1046.6406,604.7656 C1046.7813,604.9063 1047.0156,605.0156 1047.2344,605.0156 C1047.5,605.0156 1047.7656,604.875 1047.9375,604.6563 C1048.0469,604.5 1048.0781,604.3125 1048.0781,603.8906 L1048.0781,602.4688 C1048.0781,602.0313 1048.0625,601.9063 1047.9688,601.75 C1047.8125,601.4844 1047.5313,601.3438 1047.2344,601.3438 C1046.9375,601.3438 1046.7344,601.4375 1046.5156,601.75 L1046.3438,601.6719 Z " fill="#000000"/><text fill="#000000" font-family="sans-serif" font-size="14" lengthAdjust="spacing" textLength="102" x="1058" y="610.8467">EndGameCard</text><line style="stroke:#A80036;stroke-width:1.0;" x1="1030" x2="1162" y1="622" y2="622"/><line style="stroke:#A80036;stroke-width:1.0;" x1="1030" x2="1162" y1="630" y2="630"/></g><!--class Shelf--><g id="elem_Shelf"><rect codeLine="22" fill="#FEFECE" filter="url(#fz42mrw5jpyih)" height="48" id="Shelf" style="stroke:#A80036;stroke-width:1.0;" width="69" x="1377.5" y="433"/><ellipse cx="1392.5" cy="449" fill="#ADD1B2" rx="11" ry="11" style="stroke:#A80036;stroke-width:1.0;"/><path d="M1394.8438,444.6719 C1393.9063,444.2344 1393.3125,444.0938 1392.4375,444.0938 C1389.8125,444.0938 1387.8125,446.1719 1387.8125,448.8906 L1387.8125,450.0156 C1387.8125,452.5938 1389.9219,454.4844 1392.8125,454.4844 C1394.0313,454.4844 1395.1875,454.1875 1395.9375,453.6406 C1396.5156,453.2344 1396.8438,452.7813 1396.8438,452.3906 C1396.8438,451.9375 1396.4531,451.5469 1395.9844,451.5469 C1395.7656,451.5469 1395.5625,451.625 1395.375,451.8125 C1394.9219,452.2969 1394.9219,452.2969 1394.7344,452.3906 C1394.3125,452.6563 1393.625,452.7813 1392.8594,452.7813 C1390.8125,452.7813 1389.5156,451.6875 1389.5156,449.9844 L1389.5156,448.8906 C1389.5156,447.1094 1390.7656,445.7969 1392.5,445.7969 C1393.0781,445.7969 1393.6875,445.9531 1394.1563,446.2031 C1394.6406,446.4844 1394.8125,446.7031 1394.9063,447.1094 C1394.9688,447.5156 1395,447.6406 1395.1406,447.7656 C1395.2813,447.9063 1395.5156,448.0156 1395.7344,448.0156 C1396,448.0156 1396.2656,447.875 1396.4375,447.6563 C1396.5469,447.5 1396.5781,447.3125 1396.5781,446.8906 L1396.5781,445.4688 C1396.5781,445.0313 1396.5625,444.9063 1396.4688,444.75 C1396.3125,444.4844 1396.0313,444.3438 1395.7344,444.3438 C1395.4375,444.3438 1395.2344,444.4375 1395.0156,444.75 L1394.8438,444.6719 Z " fill="#000000"/><text fill="#000000" font-family="sans-serif" font-size="14" lengthAdjust="spacing" textLength="37" x="1406.5" y="453.8467">Shelf</text><line style="stroke:#A80036;stroke-width:1.0;" x1="1378.5" x2="1445.5" y1="465" y2="465"/><line style="stroke:#A80036;stroke-width:1.0;" x1="1378.5" x2="1445.5" y1="473" y2="473"/></g><!--class ObjectCardType--><g id="elem_ObjectCardType"><rect codeLine="24" fill="#FEFECE" filter="url(#fz42mrw5jpyih)" height="145.7813" id="ObjectCardType" style="stroke:#A80036;stroke-width:1.0;" width="150" x="1635" y="384"/><ellipse cx="1650" cy="400" fill="#EB937F" rx="11" ry="11" style="stroke:#A80036;stroke-width:1.0;"/><path d="M1648.7969,400.875 L1650.25,400.875 L1650.25,400.9844 C1650.25,401.3906 1650.2813,401.5469 1650.3594,401.7031 C1650.5156,401.9531 1650.7969,402.1094 1651.0938,402.1094 C1651.3438,402.1094 1651.6094,401.9688 1651.7656,401.75 C1651.8906,401.5938 1651.9219,401.4375 1651.9219,400.9844 L1651.9219,399.0625 C1651.9219,398.9063 1651.9219,398.8594 1651.9063,398.7031 C1651.8438,398.2344 1651.5313,397.9219 1651.0781,397.9219 C1650.8281,397.9219 1650.5625,398.0625 1650.3906,398.2813 C1650.2813,398.4531 1650.25,398.6094 1650.25,399.0625 L1650.25,399.1875 L1648.7969,399.1875 L1648.7969,396.7813 L1652.7813,396.7813 L1652.7813,397.6406 C1652.7813,398.0469 1652.8125,398.2188 1652.8906,398.375 C1653.0625,398.625 1653.3438,398.7813 1653.625,398.7813 C1653.8906,398.7813 1654.1563,398.6406 1654.3281,398.4219 C1654.4375,398.25 1654.4688,398.1094 1654.4688,397.6406 L1654.4688,395.0938 L1646.8438,395.0938 C1646.4063,395.0938 1646.2813,395.1094 1646.125,395.2031 C1645.875,395.3594 1645.7188,395.6563 1645.7188,395.9375 C1645.7188,396.2188 1645.8594,396.4688 1646.0781,396.6406 C1646.2344,396.75 1646.4219,396.7813 1646.8438,396.7813 L1647.0938,396.7813 L1647.0938,403.2969 L1646.8438,403.2969 C1646.4375,403.2969 1646.2813,403.3125 1646.125,403.4219 C1645.875,403.5938 1645.7188,403.8594 1645.7188,404.1563 C1645.7188,404.4219 1645.8594,404.6719 1646.0781,404.8281 C1646.2188,404.9531 1646.4531,405 1646.8438,405 L1654.8438,405 L1654.8438,402.4219 C1654.8438,401.9844 1654.8125,401.8438 1654.7344,401.6875 C1654.5625,401.4375 1654.2813,401.2813 1654,401.2813 C1653.7344,401.2813 1653.4688,401.3906 1653.2969,401.6406 C1653.1875,401.7969 1653.1563,401.9375 1653.1563,402.4219 L1653.1563,403.2969 L1648.7969,403.2969 L1648.7969,400.875 Z " fill="#000000"/><text fill="#000000" font-family="sans-serif" font-size="14" lengthAdjust="spacing" textLength="118" x="1664" y="404.8467">ObjectCardType</text><line style="stroke:#A80036;stroke-width:1.0;" x1="1636" x2="1784" y1="416" y2="416"/><ellipse cx="1646" cy="429.6484" fill="none" rx="3" ry="3" style="stroke:#038048;stroke-width:1.0;"/><text fill="#000000" font-family="sans-serif" font-size="14" lengthAdjust="spacing" textLength="38" x="1655" y="432.9951">CATS</text><ellipse cx="1646" cy="445.9453" fill="none" rx="3" ry="3" style="stroke:#038048;stroke-width:1.0;"/><text fill="#000000" font-family="sans-serif" font-size="14" lengthAdjust="spacing" textLength="51" x="1655" y="449.292">BOOKS</text><ellipse cx="1646" cy="462.2422" fill="none" rx="3" ry="3" style="stroke:#038048;stroke-width:1.0;"/><text fill="#000000" font-family="sans-serif" font-size="14" lengthAdjust="spacing" textLength="51" x="1655" y="465.5889">GAMES</text><ellipse cx="1646" cy="478.5391" fill="none" rx="3" ry="3" style="stroke:#038048;stroke-width:1.0;"/><text fill="#000000" font-family="sans-serif" font-size="14" lengthAdjust="spacing" textLength="58" x="1655" y="481.8857">FRAMES</text><ellipse cx="1646" cy="494.8359" fill="none" rx="3" ry="3" style="stroke:#038048;stroke-width:1.0;"/><text fill="#000000" font-family="sans-serif" font-size="14" lengthAdjust="spacing" textLength="71" x="1655" y="498.1826">TROPHIES</text><ellipse cx="1646" cy="511.1328" fill="none" rx="3" ry="3" style="stroke:#038048;stroke-width:1.0;"/><text fill="#000000" font-family="sans-serif" font-size="14" lengthAdjust="spacing" textLength="55" x="1655" y="514.4795">PLANTS</text><line style="stroke:#A80036;stroke-width:1.0;" x1="1636" x2="1784" y1="521.7813" y2="521.7813"/></g><!--class Player--><g id="elem_Player"><rect codeLine="32" fill="#FEFECE" filter="url(#fz42mrw5jpyih)" height="48" id="Player" style="stroke:#A80036;stroke-width:1.0;" width="76" x="1503" y="590"/><ellipse cx="1518" cy="606" fill="#ADD1B2" rx="11" ry="11" style="stroke:#A80036;stroke-width:1.0;"/><path d="M1520.3438,601.6719 C1519.4063,601.2344 1518.8125,601.0938 1517.9375,601.0938 C1515.3125,601.0938 1513.3125,603.1719 1513.3125,605.8906 L1513.3125,607.0156 C1513.3125,609.5938 1515.4219,611.4844 1518.3125,611.4844 C1519.5313,611.4844 1520.6875,611.1875 1521.4375,610.6406 C1522.0156,610.2344 1522.3438,609.7813 1522.3438,609.3906 C1522.3438,608.9375 1521.9531,608.5469 1521.4844,608.5469 C1521.2656,608.5469 1521.0625,608.625 1520.875,608.8125 C1520.4219,609.2969 1520.4219,609.2969 1520.2344,609.3906 C1519.8125,609.6563 1519.125,609.7813 1518.3594,609.7813 C1516.3125,609.7813 1515.0156,608.6875 1515.0156,606.9844 L1515.0156,605.8906 C1515.0156,604.1094 1516.2656,602.7969 1518,602.7969 C1518.5781,602.7969 1519.1875,602.9531 1519.6563,603.2031 C1520.1406,603.4844 1520.3125,603.7031 1520.4063,604.1094 C1520.4688,604.5156 1520.5,604.6406 1520.6406,604.7656 C1520.7813,604.9063 1521.0156,605.0156 1521.2344,605.0156 C1521.5,605.0156 1521.7656,604.875 1521.9375,604.6563 C1522.0469,604.5 1522.0781,604.3125 1522.0781,603.8906 L1522.0781,602.4688 C1522.0781,602.0313 1522.0625,601.9063 1521.9688,601.75 C1521.8125,601.4844 1521.5313,601.3438 1521.2344,601.3438 C1520.9375,601.3438 1520.7344,601.4375 1520.5156,601.75 L1520.3438,601.6719 Z " fill="#000000"/><text fill="#000000" font-family="sans-serif" font-size="14" lengthAdjust="spacing" textLength="44" x="1532" y="610.8467">Player</text><line style="stroke:#A80036;stroke-width:1.0;" x1="1504" x2="1578" y1="622" y2="622"/><line style="stroke:#A80036;stroke-width:1.0;" x1="1504" x2="1578" y1="630" y2="630"/></g><!--class Game--><g id="elem_Game"><rect codeLine="34" fill="#FEFECE" filter="url(#fz42mrw5jpyih)" height="48" id="Game" style="stroke:#A80036;stroke-width:1.0;" width="74" x="1614" y="590"/><ellipse cx="1629" cy="606" fill="#ADD1B2" rx="11" ry="11" style="stroke:#A80036;stroke-width:1.0;"/><path d="M1631.3438,601.6719 C1630.4063,601.2344 1629.8125,601.0938 1628.9375,601.0938 C1626.3125,601.0938 1624.3125,603.1719 1624.3125,605.8906 L1624.3125,607.0156 C1624.3125,609.5938 1626.4219,611.4844 1629.3125,611.4844 C1630.5313,611.4844 1631.6875,611.1875 1632.4375,610.6406 C1633.0156,610.2344 1633.3438,609.7813 1633.3438,609.3906 C1633.3438,608.9375 1632.9531,608.5469 1632.4844,608.5469 C1632.2656,608.5469 1632.0625,608.625 1631.875,608.8125 C1631.4219,609.2969 1631.4219,609.2969 1631.2344,609.3906 C1630.8125,609.6563 1630.125,609.7813 1629.3594,609.7813 C1627.3125,609.7813 1626.0156,608.6875 1626.0156,606.9844 L1626.0156,605.8906 C1626.0156,604.1094 1627.2656,602.7969 1629,602.7969 C1629.5781,602.7969 1630.1875,602.9531 1630.6563,603.2031 C1631.1406,603.4844 1631.3125,603.7031 1631.4063,604.1094 C1631.4688,604.5156 1631.5,604.6406 1631.6406,604.7656 C1631.7813,604.9063 1632.0156,605.0156 1632.2344,605.0156 C1632.5,605.0156 1632.7656,604.875 1632.9375,604.6563 C1633.0469,604.5 1633.0781,604.3125 1633.0781,603.8906 L1633.0781,602.4688 C1633.0781,602.0313 1633.0625,601.9063 1632.9688,601.75 C1632.8125,601.4844 1632.5313,601.3438 1632.2344,601.3438 C1631.9375,601.3438 1631.7344,601.4375 1631.5156,601.75 L1631.3438,601.6719 Z " fill="#000000"/><text fill="#000000" font-family="sans-serif" font-size="14" lengthAdjust="spacing" textLength="42" x="1643" y="610.8467">Game</text><line style="stroke:#A80036;stroke-width:1.0;" x1="1615" x2="1687" y1="622" y2="622"/><line style="stroke:#A80036;stroke-width:1.0;" x1="1615" x2="1687" y1="630" y2="630"/></g><!--class GameController--><g id="elem_GameController"><rect codeLine="14" fill="#FEFECE" filter="url(#fz42mrw5jpyih)" height="48" id="GameController" style="stroke:#A80036;stroke-width:1.0;" width="147" x="233.5" y="433"/><ellipse cx="248.5" cy="449" fill="#ADD1B2" rx="11" ry="11" style="stroke:#A80036;stroke-width:1.0;"/><path d="M250.8438,444.6719 C249.9063,444.2344 249.3125,444.0938 248.4375,444.0938 C245.8125,444.0938 243.8125,446.1719 243.8125,448.8906 L243.8125,450.0156 C243.8125,452.5938 245.9219,454.4844 248.8125,454.4844 C250.0313,454.4844 251.1875,454.1875 251.9375,453.6406 C252.5156,453.2344 252.8438,452.7813 252.8438,452.3906 C252.8438,451.9375 252.4531,451.5469 251.9844,451.5469 C251.7656,451.5469 251.5625,451.625 251.375,451.8125 C250.9219,452.2969 250.9219,452.2969 250.7344,452.3906 C250.3125,452.6563 249.625,452.7813 248.8594,452.7813 C246.8125,452.7813 245.5156,451.6875 245.5156,449.9844 L245.5156,448.8906 C245.5156,447.1094 246.7656,445.7969 248.5,445.7969 C249.0781,445.7969 249.6875,445.9531 250.1563,446.2031 C250.6406,446.4844 250.8125,446.7031 250.9063,447.1094 C250.9688,447.5156 251,447.6406 251.1406,447.7656 C251.2813,447.9063 251.5156,448.0156 251.7344,448.0156 C252,448.0156 252.2656,447.875 252.4375,447.6563 C252.5469,447.5 252.5781,447.3125 252.5781,446.8906 L252.5781,445.4688 C252.5781,445.0313 252.5625,444.9063 252.4688,444.75 C252.3125,444.4844 252.0313,444.3438 251.7344,444.3438 C251.4375,444.3438 251.2344,444.4375 251.0156,444.75 L250.8438,444.6719 Z " fill="#000000"/><text fill="#000000" font-family="sans-serif" font-size="14" lengthAdjust="spacing" textLength="115" x="262.5" y="453.8467">GameController</text><line style="stroke:#A80036;stroke-width:1.0;" x1="234.5" x2="379.5" y1="465" y2="465"/><line style="stroke:#A80036;stroke-width:1.0;" x1="234.5" x2="379.5" y1="473" y2="473"/></g><!--class Move--><g id="elem_Move"><rect codeLine="36" fill="#FEFECE" filter="url(#fz42mrw5jpyih)" height="48" id="Move" style="stroke:#A80036;stroke-width:1.0;" width="70" x="128" y="433"/><ellipse cx="143" cy="449" fill="#ADD1B2" rx="11" ry="11" style="stroke:#A80036;stroke-width:1.0;"/><path d="M145.3438,444.6719 C144.4063,444.2344 143.8125,444.0938 142.9375,444.0938 C140.3125,444.0938 138.3125,446.1719 138.3125,448.8906 L138.3125,450.0156 C138.3125,452.5938 140.4219,454.4844 143.3125,454.4844 C144.5313,454.4844 145.6875,454.1875 146.4375,453.6406 C147.0156,453.2344 147.3438,452.7813 147.3438,452.3906 C147.3438,451.9375 146.9531,451.5469 146.4844,451.5469 C146.2656,451.5469 146.0625,451.625 145.875,451.8125 C145.4219,452.2969 145.4219,452.2969 145.2344,452.3906 C144.8125,452.6563 144.125,452.7813 143.3594,452.7813 C141.3125,452.7813 140.0156,451.6875 140.0156,449.9844 L140.0156,448.8906 C140.0156,447.1094 141.2656,445.7969 143,445.7969 C143.5781,445.7969 144.1875,445.9531 144.6563,446.2031 C145.1406,446.4844 145.3125,446.7031 145.4063,447.1094 C145.4688,447.5156 145.5,447.6406 145.6406,447.7656 C145.7813,447.9063 146.0156,448.0156 146.2344,448.0156 C146.5,448.0156 146.7656,447.875 146.9375,447.6563 C147.0469,447.5 147.0781,447.3125 147.0781,446.8906 L147.0781,445.4688 C147.0781,445.0313 147.0625,444.9063 146.9688,444.75 C146.8125,444.4844 146.5313,444.3438 146.2344,444.3438 C145.9375,444.3438 145.7344,444.4375 145.5156,444.75 L145.3438,444.6719 Z " fill="#000000"/><text fill="#000000" font-family="sans-serif" font-size="14" lengthAdjust="spacing" textLength="38" x="157" y="453.8467">Move</text><line style="stroke:#A80036;stroke-width:1.0;" x1="129" x2="197" y1="465" y2="465"/><line style="stroke:#A80036;stroke-width:1.0;" x1="129" x2="197" y1="473" y2="473"/></g><!--class PersonalGoalCardInterface--><g id="elem_PersonalGoalCardInterface"><rect fill="#FEFECE" filter="url(#fz42mrw5jpyih)" height="48" id="PersonalGoalCardInterface" style="stroke:#A80036;stroke-width:1.0;" width="224" x="1283" y="170"/><ellipse cx="1298" cy="186" fill="#ADD1B2" rx="11" ry="11" style="stroke:#A80036;stroke-width:1.0;"/><path d="M1300.3438,181.6719 C1299.4063,181.2344 1298.8125,181.0938 1297.9375,181.0938 C1295.3125,181.0938 1293.3125,183.1719 1293.3125,185.8906 L1293.3125,187.0156 C1293.3125,189.5938 1295.4219,191.4844 1298.3125,191.4844 C1299.5313,191.4844 1300.6875,191.1875 1301.4375,190.6406 C1302.0156,190.2344 1302.3438,189.7813 1302.3438,189.3906 C1302.3438,188.9375 1301.9531,188.5469 1301.4844,188.5469 C1301.2656,188.5469 1301.0625,188.625 1300.875,188.8125 C1300.4219,189.2969 1300.4219,189.2969 1300.2344,189.3906 C1299.8125,189.6563 1299.125,189.7813 1298.3594,189.7813 C1296.3125,189.7813 1295.0156,188.6875 1295.0156,186.9844 L1295.0156,185.8906 C1295.0156,184.1094 1296.2656,182.7969 1298,182.7969 C1298.5781,182.7969 1299.1875,182.9531 1299.6563,183.2031 C1300.1406,183.4844 1300.3125,183.7031 1300.4063,184.1094 C1300.4688,184.5156 1300.5,184.6406 1300.6406,184.7656 C1300.7813,184.9063 1301.0156,185.0156 1301.2344,185.0156 C1301.5,185.0156 1301.7656,184.875 1301.9375,184.6563 C1302.0469,184.5 1302.0781,184.3125 1302.0781,183.8906 L1302.0781,182.4688 C1302.0781,182.0313 1302.0625,181.9063 1301.9688,181.75 C1301.8125,181.4844 1301.5313,181.3438 1301.2344,181.3438 C1300.9375,181.3438 1300.7344,181.4375 1300.5156,181.75 L1300.3438,181.6719 Z " fill="#000000"/><text fill="#000000" font-family="sans-serif" font-size="14" lengthAdjust="spacing" textLength="192" x="1312" y="190.8467">PersonalGoalCardInterface</text><line style="stroke:#A80036;stroke-width:1.0;" x1="1284" x2="1506" y1="202" y2="202"/><line style="stroke:#A80036;stroke-width:1.0;" x1="1284" x2="1506" y1="210" y2="210"/></g><!--class ObjectCardInterface--><g id="elem_ObjectCardInterface"><rect fill="#FEFECE" filter="url(#fz42mrw5jpyih)" height="48" id="ObjectCardInterface" style="stroke:#A80036;stroke-width:1.0;" width="180" x="206" y="170"/><ellipse cx="221" cy="186" fill="#ADD1B2" rx="11" ry="11" style="stroke:#A80036;stroke-width:1.0;"/><path d="M223.3438,181.6719 C222.4063,181.2344 221.8125,181.0938 220.9375,181.0938 C218.3125,181.0938 216.3125,183.1719 216.3125,185.8906 L216.3125,187.0156 C216.3125,189.5938 218.4219,191.4844 221.3125,191.4844 C222.5313,191.4844 223.6875,191.1875 224.4375,190.6406 C225.0156,190.2344 225.3438,189.7813 225.3438,189.3906 C225.3438,188.9375 224.9531,188.5469 224.4844,188.5469 C224.2656,188.5469 224.0625,188.625 223.875,188.8125 C223.4219,189.2969 223.4219,189.2969 223.2344,189.3906 C222.8125,189.6563 222.125,189.7813 221.3594,189.7813 C219.3125,189.7813 218.0156,188.6875 218.0156,186.9844 L218.0156,185.8906 C218.0156,184.1094 219.2656,182.7969 221,182.7969 C221.5781,182.7969 222.1875,182.9531 222.6563,183.2031 C223.1406,183.4844 223.3125,183.7031 223.4063,184.1094 C223.4688,184.5156 223.5,184.6406 223.6406,184.7656 C223.7813,184.9063 224.0156,185.0156 224.2344,185.0156 C224.5,185.0156 224.7656,184.875 224.9375,184.6563 C225.0469,184.5 225.0781,184.3125 225.0781,183.8906 L225.0781,182.4688 C225.0781,182.0313 225.0625,181.9063 224.9688,181.75 C224.8125,181.4844 224.5313,181.3438 224.2344,181.3438 C223.9375,181.3438 223.7344,181.4375 223.5156,181.75 L223.3438,181.6719 Z " fill="#000000"/><text fill="#000000" font-family="sans-serif" font-size="14" lengthAdjust="spacing" textLength="148" x="235" y="190.8467">ObjectCardInterface</text><line style="stroke:#A80036;stroke-width:1.0;" x1="207" x2="385" y1="202" y2="202"/><line style="stroke:#A80036;stroke-width:1.0;" x1="207" x2="385" y1="210" y2="210"/></g><!--class ScoreCardInterface--><g id="elem_ScoreCardInterface"><rect fill="#FEFECE" filter="url(#fz42mrw5jpyih)" height="48" id="ScoreCardInterface" style="stroke:#A80036;stroke-width:1.0;" width="172" x="1076" y="170"/><ellipse cx="1091" cy="186" fill="#ADD1B2" rx="11" ry="11" style="stroke:#A80036;stroke-width:1.0;"/><path d="M1093.3438,181.6719 C1092.4063,181.2344 1091.8125,181.0938 1090.9375,181.0938 C1088.3125,181.0938 1086.3125,183.1719 1086.3125,185.8906 L1086.3125,187.0156 C1086.3125,189.5938 1088.4219,191.4844 1091.3125,191.4844 C1092.5313,191.4844 1093.6875,191.1875 1094.4375,190.6406 C1095.0156,190.2344 1095.3438,189.7813 1095.3438,189.3906 C1095.3438,188.9375 1094.9531,188.5469 1094.4844,188.5469 C1094.2656,188.5469 1094.0625,188.625 1093.875,188.8125 C1093.4219,189.2969 1093.4219,189.2969 1093.2344,189.3906 C1092.8125,189.6563 1092.125,189.7813 1091.3594,189.7813 C1089.3125,189.7813 1088.0156,188.6875 1088.0156,186.9844 L1088.0156,185.8906 C1088.0156,184.1094 1089.2656,182.7969 1091,182.7969 C1091.5781,182.7969 1092.1875,182.9531 1092.6563,183.2031 C1093.1406,183.4844 1093.3125,183.7031 1093.4063,184.1094 C1093.4688,184.5156 1093.5,184.6406 1093.6406,184.7656 C1093.7813,184.9063 1094.0156,185.0156 1094.2344,185.0156 C1094.5,185.0156 1094.7656,184.875 1094.9375,184.6563 C1095.0469,184.5 1095.0781,184.3125 1095.0781,183.8906 L1095.0781,182.4688 C1095.0781,182.0313 1095.0625,181.9063 1094.9688,181.75 C1094.8125,181.4844 1094.5313,181.3438 1094.2344,181.3438 C1093.9375,181.3438 1093.7344,181.4375 1093.5156,181.75 L1093.3438,181.6719 Z " fill="#000000"/><text fill="#000000" font-family="sans-serif" font-size="14" lengthAdjust="spacing" textLength="140" x="1105" y="190.8467">ScoreCardInterface</text><line style="stroke:#A80036;stroke-width:1.0;" x1="1077" x2="1247" y1="202" y2="202"/><line style="stroke:#A80036;stroke-width:1.0;" x1="1077" x2="1247" y1="210" y2="210"/></g><!--class BoardInterface--><g id="elem_BoardInterface"><rect fill="#FEFECE" filter="url(#fz42mrw5jpyih)" height="48" id="BoardInterface" style="stroke:#A80036;stroke-width:1.0;" width="140" x="901" y="170"/><ellipse cx="916" cy="186" fill="#ADD1B2" rx="11" ry="11" style="stroke:#A80036;stroke-width:1.0;"/><path d="M918.3438,181.6719 C917.4063,181.2344 916.8125,181.0938 915.9375,181.0938 C913.3125,181.0938 911.3125,183.1719 911.3125,185.8906 L911.3125,187.0156 C911.3125,189.5938 913.4219,191.4844 916.3125,191.4844 C917.5313,191.4844 918.6875,191.1875 919.4375,190.6406 C920.0156,190.2344 920.3438,189.7813 920.3438,189.3906 C920.3438,188.9375 919.9531,188.5469 919.4844,188.5469 C919.2656,188.5469 919.0625,188.625 918.875,188.8125 C918.4219,189.2969 918.4219,189.2969 918.2344,189.3906 C917.8125,189.6563 917.125,189.7813 916.3594,189.7813 C914.3125,189.7813 913.0156,188.6875 913.0156,186.9844 L913.0156,185.8906 C913.0156,184.1094 914.2656,182.7969 916,182.7969 C916.5781,182.7969 917.1875,182.9531 917.6563,183.2031 C918.1406,183.4844 918.3125,183.7031 918.4063,184.1094 C918.4688,184.5156 918.5,184.6406 918.6406,184.7656 C918.7813,184.9063 919.0156,185.0156 919.2344,185.0156 C919.5,185.0156 919.7656,184.875 919.9375,184.6563 C920.0469,184.5 920.0781,184.3125 920.0781,183.8906 L920.0781,182.4688 C920.0781,182.0313 920.0625,181.9063 919.9688,181.75 C919.8125,181.4844 919.5313,181.3438 919.2344,181.3438 C918.9375,181.3438 918.7344,181.4375 918.5156,181.75 L918.3438,181.6719 Z " fill="#000000"/><text fill="#000000" font-family="sans-serif" font-size="14" lengthAdjust="spacing" textLength="108" x="930" y="190.8467">BoardInterface</text><line style="stroke:#A80036;stroke-width:1.0;" x1="902" x2="1040" y1="202" y2="202"/><line style="stroke:#A80036;stroke-width:1.0;" x1="902" x2="1040" y1="210" y2="210"/></g><!--class ScoreBoardInterface--><g id="elem_ScoreBoardInterface"><rect fill="#FEFECE" filter="url(#fz42mrw5jpyih)" height="48" id="ScoreBoardInterface" style="stroke:#A80036;stroke-width:1.0;" width="181" x="684.5" y="170"/><ellipse cx="699.5" cy="186" fill="#ADD1B2" rx="11" ry="11" style="stroke:#A80036;stroke-width:1.0;"/><path d="M701.8438,181.6719 C700.9063,181.2344 700.3125,181.0938 699.4375,181.0938 C696.8125,181.0938 694.8125,183.1719 694.8125,185.8906 L694.8125,187.0156 C694.8125,189.5938 696.9219,191.4844 699.8125,191.4844 C701.0313,191.4844 702.1875,191.1875 702.9375,190.6406 C703.5156,190.2344 703.8438,189.7813 703.8438,189.3906 C703.8438,188.9375 703.4531,188.5469 702.9844,188.5469 C702.7656,188.5469 702.5625,188.625 702.375,188.8125 C701.9219,189.2969 701.9219,189.2969 701.7344,189.3906 C701.3125,189.6563 700.625,189.7813 699.8594,189.7813 C697.8125,189.7813 696.5156,188.6875 696.5156,186.9844 L696.5156,185.8906 C696.5156,184.1094 697.7656,182.7969 699.5,182.7969 C700.0781,182.7969 700.6875,182.9531 701.1563,183.2031 C701.6406,183.4844 701.8125,183.7031 701.9063,184.1094 C701.9688,184.5156 702,184.6406 702.1406,184.7656 C702.2813,184.9063 702.5156,185.0156 702.7344,185.0156 C703,185.0156 703.2656,184.875 703.4375,184.6563 C703.5469,184.5 703.5781,184.3125 703.5781,183.8906 L703.5781,182.4688 C703.5781,182.0313 703.5625,181.9063 703.4688,181.75 C703.3125,181.4844 703.0313,181.3438 702.7344,181.3438 C702.4375,181.3438 702.2344,181.4375 702.0156,181.75 L701.8438,181.6719 Z " fill="#000000"/><text fill="#000000" font-family="sans-serif" font-size="14" lengthAdjust="spacing" textLength="149" x="713.5" y="190.8467">ScoreBoardInterface</text><line style="stroke:#A80036;stroke-width:1.0;" x1="685.5" x2="864.5" y1="202" y2="202"/><line style="stroke:#A80036;stroke-width:1.0;" x1="685.5" x2="864.5" y1="210" y2="210"/></g><!--class CommonGoalCardInterface--><g id="elem_CommonGoalCardInterface"><rect fill="#FEFECE" filter="url(#fz42mrw5jpyih)" height="48" id="CommonGoalCardInterface" style="stroke:#A80036;stroke-width:1.0;" width="228" x="421" y="170"/><ellipse cx="436" cy="186" fill="#ADD1B2" rx="11" ry="11" style="stroke:#A80036;stroke-width:1.0;"/><path d="M438.3438,181.6719 C437.4063,181.2344 436.8125,181.0938 435.9375,181.0938 C433.3125,181.0938 431.3125,183.1719 431.3125,185.8906 L431.3125,187.0156 C431.3125,189.5938 433.4219,191.4844 436.3125,191.4844 C437.5313,191.4844 438.6875,191.1875 439.4375,190.6406 C440.0156,190.2344 440.3438,189.7813 440.3438,189.3906 C440.3438,188.9375 439.9531,188.5469 439.4844,188.5469 C439.2656,188.5469 439.0625,188.625 438.875,188.8125 C438.4219,189.2969 438.4219,189.2969 438.2344,189.3906 C437.8125,189.6563 437.125,189.7813 436.3594,189.7813 C434.3125,189.7813 433.0156,188.6875 433.0156,186.9844 L433.0156,185.8906 C433.0156,184.1094 434.2656,182.7969 436,182.7969 C436.5781,182.7969 437.1875,182.9531 437.6563,183.2031 C438.1406,183.4844 438.3125,183.7031 438.4063,184.1094 C438.4688,184.5156 438.5,184.6406 438.6406,184.7656 C438.7813,184.9063 439.0156,185.0156 439.2344,185.0156 C439.5,185.0156 439.7656,184.875 439.9375,184.6563 C440.0469,184.5 440.0781,184.3125 440.0781,183.8906 L440.0781,182.4688 C440.0781,182.0313 440.0625,181.9063 439.9688,181.75 C439.8125,181.4844 439.5313,181.3438 439.2344,181.3438 C438.9375,181.3438 438.7344,181.4375 438.5156,181.75 L438.3438,181.6719 Z " fill="#000000"/><text fill="#000000" font-family="sans-serif" font-size="14" lengthAdjust="spacing" textLength="196" x="450" y="190.8467">CommonGoalCardInterface</text><line style="stroke:#A80036;stroke-width:1.0;" x1="422" x2="648" y1="202" y2="202"/><line style="stroke:#A80036;stroke-width:1.0;" x1="422" x2="648" y1="210" y2="210"/></g><!--class ShelfInterface--><g id="elem_ShelfInterface"><rect fill="#FEFECE" filter="url(#fz42mrw5jpyih)" height="48" id="ShelfInterface" style="stroke:#A80036;stroke-width:1.0;" width="135" x="1542.5" y="170"/><ellipse cx="1557.5" cy="186" fill="#ADD1B2" rx="11" ry="11" style="stroke:#A80036;stroke-width:1.0;"/><path d="M1559.8438,181.6719 C1558.9063,181.2344 1558.3125,181.0938 1557.4375,181.0938 C1554.8125,181.0938 1552.8125,183.1719 1552.8125,185.8906 L1552.8125,187.0156 C1552.8125,189.5938 1554.9219,191.4844 1557.8125,191.4844 C1559.0313,191.4844 1560.1875,191.1875 1560.9375,190.6406 C1561.5156,190.2344 1561.8438,189.7813 1561.8438,189.3906 C1561.8438,188.9375 1561.4531,188.5469 1560.9844,188.5469 C1560.7656,188.5469 1560.5625,188.625 1560.375,188.8125 C1559.9219,189.2969 1559.9219,189.2969 1559.7344,189.3906 C1559.3125,189.6563 1558.625,189.7813 1557.8594,189.7813 C1555.8125,189.7813 1554.5156,188.6875 1554.5156,186.9844 L1554.5156,185.8906 C1554.5156,184.1094 1555.7656,182.7969 1557.5,182.7969 C1558.0781,182.7969 1558.6875,182.9531 1559.1563,183.2031 C1559.6406,183.4844 1559.8125,183.7031 1559.9063,184.1094 C1559.9688,184.5156 1560,184.6406 1560.1406,184.7656 C1560.2813,184.9063 1560.5156,185.0156 1560.7344,185.0156 C1561,185.0156 1561.2656,184.875 1561.4375,184.6563 C1561.5469,184.5 1561.5781,184.3125 1561.5781,183.8906 L1561.5781,182.4688 C1561.5781,182.0313 1561.5625,181.9063 1561.4688,181.75 C1561.3125,181.4844 1561.0313,181.3438 1560.7344,181.3438 C1560.4375,181.3438 1560.2344,181.4375 1560.0156,181.75 L1559.8438,181.6719 Z " fill="#000000"/><text fill="#000000" font-family="sans-serif" font-size="14" lengthAdjust="spacing" textLength="103" x="1571.5" y="190.8467">ShelfInterface</text><line style="stroke:#A80036;stroke-width:1.0;" x1="1543.5" x2="1676.5" y1="202" y2="202"/><line style="stroke:#A80036;stroke-width:1.0;" x1="1543.5" x2="1676.5" y1="210" y2="210"/></g><!--class UnicastRemoteObject--><g id="elem_UnicastRemoteObject"><rect fill="#FEFECE" filter="url(#fz42mrw5jpyih)" height="48" id="UnicastRemoteObject" style="stroke:#A80036;stroke-width:1.0;" width="191" x="1985.5" y="170"/><ellipse cx="2000.5" cy="186" fill="#ADD1B2" rx="11" ry="11" style="stroke:#A80036;stroke-width:1.0;"/><path d="M2002.8438,181.6719 C2001.9063,181.2344 2001.3125,181.0938 2000.4375,181.0938 C1997.8125,181.0938 1995.8125,183.1719 1995.8125,185.8906 L1995.8125,187.0156 C1995.8125,189.5938 1997.9219,191.4844 2000.8125,191.4844 C2002.0313,191.4844 2003.1875,191.1875 2003.9375,190.6406 C2004.5156,190.2344 2004.8438,189.7813 2004.8438,189.3906 C2004.8438,188.9375 2004.4531,188.5469 2003.9844,188.5469 C2003.7656,188.5469 2003.5625,188.625 2003.375,188.8125 C2002.9219,189.2969 2002.9219,189.2969 2002.7344,189.3906 C2002.3125,189.6563 2001.625,189.7813 2000.8594,189.7813 C1998.8125,189.7813 1997.5156,188.6875 1997.5156,186.9844 L1997.5156,185.8906 C1997.5156,184.1094 1998.7656,182.7969 2000.5,182.7969 C2001.0781,182.7969 2001.6875,182.9531 2002.1563,183.2031 C2002.6406,183.4844 2002.8125,183.7031 2002.9063,184.1094 C2002.9688,184.5156 2003,184.6406 2003.1406,184.7656 C2003.2813,184.9063 2003.5156,185.0156 2003.7344,185.0156 C2004,185.0156 2004.2656,184.875 2004.4375,184.6563 C2004.5469,184.5 2004.5781,184.3125 2004.5781,183.8906 L2004.5781,182.4688 C2004.5781,182.0313 2004.5625,181.9063 2004.4688,181.75 C2004.3125,181.4844 2004.0313,181.3438 2003.7344,181.3438 C2003.4375,181.3438 2003.2344,181.4375 2003.0156,181.75 L2002.8438,181.6719 Z " fill="#000000"/><text fill="#000000" font-family="sans-serif" font-size="14" lengthAdjust="spacing" textLength="159" x="2014.5" y="190.8467">UnicastRemoteObject</text><line style="stroke:#A80036;stroke-width:1.0;" x1="1986.5" x2="2175.5" y1="202" y2="202"/><line style="stroke:#A80036;stroke-width:1.0;" x1="1986.5" x2="2175.5" y1="210" y2="210"/></g><!--reverse link PersonalGoalCardInterface to PersonalGoalCard--><g id="link_PersonalGoalCardInterface_PersonalGoalCard"><path codeLine="40" d="M1374.14,236.251 C1346.05,291.788 1297.03,388.723 1274.69,432.89 " fill="none" id="PersonalGoalCardInterface-backto-PersonalGoalCard" style="stroke:#A80036;stroke-width:1.0;stroke-dasharray:7.0,7.0;"/><polygon fill="none" points="1368.01,232.85,1383.29,218.162,1380.51,239.169,1368.01,232.85" style="stroke:#A80036;stroke-width:1.0;"/></g><!--reverse link UnicastRemoteObject to PersonalGoalCard--><g id="link_UnicastRemoteObject_PersonalGoalCard"><path codeLine="41" d="M1988.29,223.775 C1910.56,246.437 1796.2,276.396 1694,290 C1675.6,292.449 1376.09,288.744 1360,298 C1308.53,327.614 1280.86,396.61 1269.43,432.84 " fill="none" id="UnicastRemoteObject-backto-PersonalGoalCard" style="stroke:#A80036;stroke-width:1.0;"/><polygon fill="none" points="1986.56,216.987,2007.72,218.038,1990.52,230.414,1986.56,216.987" style="stroke:#A80036;stroke-width:1.0;"/></g><!--reverse link ObjectCardInterface to ObjectCard--><g id="link_ObjectCardInterface_ObjectCard"><path codeLine="42" d="M336.37,232.048 C355.789,250.862 378.753,274.639 397,298 C432.069,342.899 465.015,401.242 482.008,432.975 " fill="none" id="ObjectCardInterface-backto-ObjectCard" style="stroke:#A80036;stroke-width:1.0;stroke-dasharray:7.0,7.0;"/><polygon fill="none" points="331.394,236.975,321.715,218.126,341.036,226.825,331.394,236.975" style="stroke:#A80036;stroke-width:1.0;"/></g><!--reverse link ScoreCardInterface to ScoreCard--><g id="link_ScoreCardInterface_ScoreCard"><path codeLine="43" d="M1151.2,237.718 C1137.1,293.481 1112.91,389.109 1101.84,432.89 " fill="none" id="ScoreCardInterface-backto-ScoreCard" style="stroke:#A80036;stroke-width:1.0;stroke-dasharray:7.0,7.0;"/><polygon fill="none" points="1144.45,235.836,1156.14,218.162,1158.03,239.268,1144.45,235.836" style="stroke:#A80036;stroke-width:1.0;"/></g><!--reverse link UnicastRemoteObject to ScoreCard--><g id="link_UnicastRemoteObject_ScoreCard"><path codeLine="44" d="M1989.04,223.799 C1911.31,246.627 1796.57,276.805 1694,290 C1679.45,291.871 1178.23,289.907 1166,298 C1119.96,328.458 1103.94,396.756 1098.57,432.764 " fill="none" id="UnicastRemoteObject-backto-ScoreCard" style="stroke:#A80036;stroke-width:1.0;"/><polygon fill="none" points="1987.29,217.015,2008.46,218.021,1991.29,230.433,1987.29,217.015" style="stroke:#A80036;stroke-width:1.0;"/></g><!--reverse link BoardInterface to Board--><g id="link_BoardInterface_Board"><path codeLine="45" d="M971,238.459 C971,294.324 971,389.302 971,432.89 " fill="none" id="BoardInterface-backto-Board" style="stroke:#A80036;stroke-width:1.0;stroke-dasharray:7.0,7.0;"/><polygon fill="none" points="964,238.162,971,218.162,978,238.162,964,238.162" style="stroke:#A80036;stroke-width:1.0;"/></g><!--reverse link UnicastRemoteObject to Board--><g id="link_UnicastRemoteObject_Board"><path codeLine="46" d="M1989.05,223.884 C1911.33,246.763 1796.59,276.969 1694,290 C1675.56,292.342 1040.05,287.1 1025,298 C981.798,329.282 972.802,397.219 971.16,432.959 " fill="none" id="UnicastRemoteObject-backto-Board" style="stroke:#A80036;stroke-width:1.0;"/><polygon fill="none" points="1987.3,217.1,2008.47,218.092,1991.3,230.516,1987.3,217.1" style="stroke:#A80036;stroke-width:1.0;"/></g><!--reverse link ScoreBoardInterface to Scoreboard--><g id="link_ScoreBoardInterface_Scoreboard"><path codeLine="47" d="M785.802,237.718 C799.903,293.481 824.085,389.109 835.156,432.89 " fill="none" id="ScoreBoardInterface-backto-Scoreboard" style="stroke:#A80036;stroke-width:1.0;stroke-dasharray:7.0,7.0;"/><polygon fill="none" points="778.974,239.268,780.857,218.162,792.547,235.836,778.974,239.268" style="stroke:#A80036;stroke-width:1.0;"/></g><!--reverse link UnicastRemoteObject to Scoreboard--><g id="link_UnicastRemoteObject_Scoreboard"><path codeLine="48" d="M1989.41,223.823 C1911.69,246.742 1796.76,277.035 1694,290 C1672.56,292.705 934.208,286.357 916,298 C868.803,328.181 850.68,396.926 844.238,432.973 " fill="none" id="UnicastRemoteObject-backto-Scoreboard" style="stroke:#A80036;stroke-width:1.0;"/><polygon fill="none" points="1987.66,217.04,2008.83,218.022,1991.67,230.454,1987.66,217.04" style="stroke:#A80036;stroke-width:1.0;"/></g><!--reverse link CommonGoalCardInterface to CommonGoalCard--><g id="link_CommonGoalCardInterface_CommonGoalCard"><path codeLine="49" d="M555.862,236.251 C583.95,291.788 632.975,388.723 655.312,432.89 " fill="none" id="CommonGoalCardInterface-backto-CommonGoalCard" style="stroke:#A80036;stroke-width:1.0;stroke-dasharray:7.0,7.0;"/><polygon fill="none" points="549.494,239.169,546.714,218.162,561.987,232.85,549.494,239.169" style="stroke:#A80036;stroke-width:1.0;"/></g><!--reverse link UnicastRemoteObject to CommonGoalCard--><g id="link_UnicastRemoteObject_CommonGoalCard"><path codeLine="50" d="M1989.42,223.867 C1911.7,246.813 1796.77,277.12 1694,290 C1668.42,293.205 788.5,285.419 766,298 C713.872,327.147 685.46,396.349 673.655,432.731 " fill="none" id="UnicastRemoteObject-backto-CommonGoalCard" style="stroke:#A80036;stroke-width:1.0;"/><polygon fill="none" points="1987.67,217.085,2008.83,218.059,1991.68,230.497,1987.67,217.085" style="stroke:#A80036;stroke-width:1.0;"/></g><!--reverse link ScoreCard to EndGameCard--><g id="link_ScoreCard_EndGameCard"><path codeLine="51" d="M1096,501.29 C1096,530.011 1096,566.573 1096,589.89 " fill="none" id="ScoreCard-backto-EndGameCard" style="stroke:#A80036;stroke-width:1.0;"/><polygon fill="none" points="1089,501.205,1096,481.205,1103,501.205,1089,501.205" style="stroke:#A80036;stroke-width:1.0;"/></g><!--reverse link ShelfInterface to Shelf--><g id="link_ShelfInterface_Shelf"><path codeLine="52" d="M1584.76,234.609 C1569.87,254.566 1549.21,277.19 1525,290 C1501.22,302.583 1485.75,280.879 1465,298 C1424.27,331.604 1414.68,397.594 1412.53,432.716 " fill="none" id="ShelfInterface-backto-Shelf" style="stroke:#A80036;stroke-width:1.0;stroke-dasharray:7.0,7.0;"/><polygon fill="none" points="1579.12,230.464,1596.31,218.071,1590.6,238.478,1579.12,230.464" style="stroke:#A80036;stroke-width:1.0;"/></g><!--reverse link UnicastRemoteObject to Shelf--><g id="link_UnicastRemoteObject_Shelf"><path codeLine="53" d="M1987.53,223.689 C1909.79,246.153 1795.81,275.879 1694,290 C1681.39,291.749 1475.2,290.387 1465,298 C1422.45,329.75 1413.67,397.163 1412.11,432.8 " fill="none" id="UnicastRemoteObject-backto-Shelf" style="stroke:#A80036;stroke-width:1.0;"/><polygon fill="none" points="1985.81,216.898,2006.97,218.003,1989.74,230.335,1985.81,216.898" style="stroke:#A80036;stroke-width:1.0;"/></g><!--SRC=[hLL1Ri8m4Bpx5HQN7YhyWbuWeXIrD16X3p1XAQ6s5zak2BNzU-D49GKKo4evPIFjZCOptlKTxnr0ATptk5-31kO-SiCjEc0iKz8vddknHPNhNEJctUr52dO7Lann2KeaO1qQgSOeLIJjad-ndpQuUB61p5CGQOOMA80XKflJhSpWDY92uoqgLPHZgQ7-9HrbGP4NeTPeg2QFpB8KI75v3MfLDeFvr6qpd1-smRTxpgF1F0tVOHm_byLuC1sLnUFihvhFukHfKjN9o-2rGBJIbYXvQ6zoE3afoodkAW1ZvysL_HUNVM8ys5MuCm_VGj06XMtaJWfRDBkgxStacNH-1XezLDOMjFq-aRP1UfqLHNIDQk8zJYM5zWZgo8IQhq5bETqKXIMW8tKLrpN_oFBg1TAbWujhGayt44NiAR8ZmMUaBL-Esxp_LcPZP655aj8AWAw22bo_]--></g></svg>